<svg xmlns="http://www.w3.org/2000/svg" xmlns:xlink="http://www.w3.org/1999/xlink" width="292.632" height="619.228" viewBox="0 0 292.632 619.228">
  <defs>
    <clipPath id="clip-path">
      <rect id="Rectangle_12" data-name="Rectangle 12" width="292.632" height="619.228" fill="none"/>
    </clipPath>
    <clipPath id="clip-path-2">
      <rect id="Rectangle_13" data-name="Rectangle 13" width="208.408" height="329.544" fill="none"/>
    </clipPath>
  </defs>
  <g id="Groupe_15" data-name="Groupe 15" transform="translate(-1314.368 -10331.387)">
    <g id="Groupe_5" data-name="Groupe 5" transform="translate(1314.368 10331.387)">
      <g id="Groupe_4" data-name="Groupe 4" transform="translate(0 0)" clip-path="url(#clip-path)">
        <path id="Tracé_12" data-name="Tracé 12" d="M242.529,25.531l17.233-4.924a6.21,6.21,0,0,1,2.267-.213l16.028,1.457a7.994,7.994,0,0,1,4.573,1.974l13.63,12.057,20.418,13.244a4.587,4.587,0,0,0,.059-2.274l-2.623-11.367a6.3,6.3,0,0,0-2.015-3.347l-35-30.307A5.461,5.461,0,0,0,273.524.5h-10.86a3.622,3.622,0,0,0-1.145.186l-18.8,6.267A4.111,4.111,0,0,0,240,10l-5.442,25.6a.043.043,0,0,0,.079.03l3.905-6.942A6.685,6.685,0,0,1,242.529,25.531Z" transform="translate(-93.886 -0.199)" fill="none" stroke="#29fdc1" stroke-miterlimit="10" stroke-width="1.5"/>
        <line id="Ligne_1" data-name="Ligne 1" x2="1.799" y2="387.422" transform="translate(207.771 58.173)" fill="none" stroke="#29fdc1" stroke-miterlimit="10" stroke-width="1.5"/>
        <ellipse id="Ellipse_1" data-name="Ellipse 1" cx="20.391" cy="11.095" rx="20.391" ry="11.095" transform="translate(148.998 22.489)" fill="none" stroke="#29fdc1" stroke-miterlimit="10" stroke-width="1.5"/>
        <ellipse id="Ellipse_2" data-name="Ellipse 2" cx="7.497" cy="4.198" rx="7.497" ry="4.198" transform="translate(162.192 29.686)" fill="none" stroke="#29fdc1" stroke-miterlimit="10" stroke-width="1.5"/>
        <path id="Tracé_13" data-name="Tracé 13" d="M287.335,41.308C283.6,38.975,278.1,37.5,271.964,37.5c-6.318,0-11.964,1.563-15.7,4.018l8.507,7.976h.085a2.441,2.441,0,0,1-.085-.6c0-2.319,3.357-4.2,7.5-4.2s7.5,1.88,7.5,4.2a2.413,2.413,0,0,1-.085.6h.085Z" transform="translate(-102.575 -15.009)" fill="none" stroke="#29fdc1" stroke-miterlimit="10" stroke-width="1.5"/>
        <ellipse id="Ellipse_3" data-name="Ellipse 3" cx="2.399" cy="1.199" rx="2.399" ry="1.199" transform="translate(166.99 32.685)" fill="none" stroke="#29fdc1" stroke-miterlimit="10" stroke-width="1.5"/>
        <line id="Ligne_2" data-name="Ligne 2" y1="53.983" x2="86.56" transform="translate(205.772 458.489)" fill="none" stroke="#29fdc1" stroke-miterlimit="10" stroke-width="1.5"/>
        <line id="Ligne_3" data-name="Ligne 3" x1="204.306" y1="46.187" transform="translate(1.466 466.285)" fill="none" stroke="#29fdc1" stroke-miterlimit="10" stroke-width="1.5"/>
        <line id="Ligne_4" data-name="Ligne 4" x1="0.4" y2="43.772" transform="translate(205.372 512.471)" fill="none" stroke="#29fdc1" stroke-miterlimit="10" stroke-width="1.5"/>
        <path id="Tracé_14" data-name="Tracé 14" d="M14.194,877.175a15.452,15.452,0,0,0,3.775,10.347,20.9,20.9,0,0,1,3.344-6.238A27.919,27.919,0,0,1,14.194,877.175Z" transform="translate(-5.68 -351.112)" fill="none" stroke="#29fdc1" stroke-miterlimit="10" stroke-width="1.5"/>
        <path id="Tracé_15" data-name="Tracé 15" d="M39.415,876.733v0a40.907,40.907,0,0,0,.339,4.755c3.8,1.838,5.447,7.832,3.667,14.03-1.915,6.668-7.064,11.041-11.5,9.767s-6.481-7.712-4.566-14.381a18.027,18.027,0,0,1,2.076-4.66l-2.545-3.656s-1.687-.564-3.824-1.481a21.079,21.079,0,0,0-3.652,7.219c-2.6,9.059.967,18.032,7.97,20.043s14.79-3.7,17.392-12.76C47.026,887.763,44.646,879.981,39.415,876.733Z" transform="translate(-7.429 -350.935)" fill="none" stroke="#29fdc1" stroke-miterlimit="10" stroke-width="1.5"/>
        <path id="Tracé_16" data-name="Tracé 16" d="M43.481,899.954a3.084,3.084,0,0,1-2.26-1.333l-6.4-9.2a18.026,18.026,0,0,0-2.076,4.66c-1.915,6.668.13,13.107,4.566,14.381s9.585-3.1,11.5-9.767c1.78-6.2.136-12.192-3.667-14.03.293,2.665.751,6.169,1.284,10.48S45,900.078,43.481,899.954Z" transform="translate(-12.82 -354.11)" fill="none" stroke="#29fdc1" stroke-miterlimit="10" stroke-width="1.5"/>
        <path id="Tracé_17" data-name="Tracé 17" d="M468.66,889.652c1.2,2.4,3.325,2.054,4.2.6.8-1.337,1.126-4.58,1.187-7.977a71.381,71.381,0,0,1-2.387-7.016,22.018,22.018,0,0,0-2.107-4.855C467.5,875.286,466.577,885.487,468.66,889.652Z" transform="translate(-187.123 -348.401)" fill="none" stroke="#29fdc1" stroke-miterlimit="10" stroke-width="1.5"/>
        <path id="Tracé_18" data-name="Tracé 18" d="M316.592,969.3a6.273,6.273,0,0,1-2.773-1.79A17.054,17.054,0,0,0,317.4,977.7a25.5,25.5,0,0,1,4.383-6.83C320.22,970.425,318.461,969.927,316.592,969.3Z" transform="translate(-125.613 -387.272)" fill="none" stroke="#29fdc1" stroke-miterlimit="10" stroke-width="1.5"/>
        <path id="Tracé_19" data-name="Tracé 19" d="M338.224,964.469a40.512,40.512,0,0,1,2.193,6.175c3.229,2.149,5.148,8.5,4.452,15.76-.833,8.7-5.1,15.408-9.531,14.983s-7.347-7.82-6.514-16.519a27.51,27.51,0,0,1,2.229-8.709c-1.275-2.344-2.362-4.125-2.887-4.475a23.256,23.256,0,0,0-5.605-2.032,26.481,26.481,0,0,0-5.7,10.468c-3.2,11.131.848,22.06,9.035,24.412s17.416-4.765,20.613-15.9C349.6,977.852,345.9,967.258,338.224,964.469Z" transform="translate(-126.392 -386.053)" fill="none" stroke="#29fdc1" stroke-miterlimit="10" stroke-width="1.5"/>
        <path id="Tracé_20" data-name="Tracé 20" d="M351.9,993.158a3.244,3.244,0,0,1-5.83-.1c-1.411-2.967-4.185-8.721-6.394-12.781a27.51,27.51,0,0,0-2.229,8.709c-.833,8.7,2.084,16.1,6.515,16.519s8.7-6.284,9.531-14.983c.7-7.262-1.223-13.611-4.452-15.76.811,2.837,1.659,6.3,2.742,10.636C352.768,989.342,352.587,991.73,351.9,993.158Z" transform="translate(-135.015 -390.174)" fill="none" stroke="#29fdc1" stroke-miterlimit="10" stroke-width="1.5"/>
        <path id="Tracé_21" data-name="Tracé 21" d="M17.442,856.054v4.036s-6,1.577-6,5.775,12.594,8.4,12.594,8.4l8.943,12.856a3.082,3.082,0,0,0,2.26,1.333c1.516.124,3.481-.5,2.948-4.809-.959-7.757-1.678-12.916-1.623-15.235A2.542,2.542,0,0,1,37.7,866.35l.776-.518a1.045,1.045,0,0,0-.238-1.857l-13-4.109v-3.944A19.654,19.654,0,0,1,17.442,856.054Z" transform="translate(-4.581 -342.605)" fill="none" stroke="#29fdc1" stroke-miterlimit="10" stroke-width="1.5"/>
        <path id="Tracé_22" data-name="Tracé 22" d="M341.36,971.472c-3-11.994-4.2-17.392-7.8-20.99s-5.4-4.2-5.4-4.2l-.2-5.946a24.13,24.13,0,0,1-9.991-.37v4.407s-4.2-1.689-6,3.709,0,9,3.6,10.2c4.861,1.62,9,2.4,10.8,3.6,1.434.956,7.056,12.575,9.282,17.256a3.244,3.244,0,0,0,5.829.1C342.165,977.8,342.346,975.414,341.36,971.472Z" transform="translate(-124.593 -376.246)" fill="none" stroke="#29fdc1" stroke-miterlimit="10" stroke-width="1.5"/>
        <path id="Tracé_23" data-name="Tracé 23" d="M13.445,839v7.888s3.6,4.409,13.794,2.01l12.507,7.786,131.427,37.793h22.412v3.288s11.154,5.687,21.059,0v-8.607l-3.889,2.92Z" transform="translate(-5.382 -335.829)" fill="none" stroke="#29fdc1" stroke-miterlimit="10" stroke-width="1.5"/>
        <path id="Tracé_24" data-name="Tracé 24" d="M312.488,99.984l1.76,380.464,26.393,4.081L338.865,94.719l-25.8,5.266Z" transform="translate(-125.082 -37.913)" fill="none" stroke="#29fdc1" stroke-miterlimit="10" stroke-width="1.5"/>
        <path id="Tracé_25" data-name="Tracé 25" d="M253.311,65.2l17.46,9.233a9.487,9.487,0,0,0,4.435,1.1h6.618l26.714-5.452a7.778,7.778,0,0,0,4.42-2.641l2.789-3.348a4.586,4.586,0,0,0,.888-1.7L296.217,49.145,282.587,37.087a8,8,0,0,0-4.573-1.974l-16.028-1.457a6.206,6.206,0,0,0-2.266.213l-17.234,4.924a6.689,6.689,0,0,0-3.991,3.152l-4.05,7.2v.024L251.689,64.09A8.665,8.665,0,0,0,253.311,65.2Z" transform="translate(-93.843 -13.461)" fill="none" stroke="#29fdc1" stroke-miterlimit="10" stroke-width="1.5"/>
        <path id="Tracé_26" data-name="Tracé 26" d="M253.445,28.45l6,.6,1.61-1.432-7.607-2.238Z" transform="translate(-101.448 -10.159)" fill="none" stroke="#29fdc1" stroke-miterlimit="10" stroke-width="1.5"/>
        <path id="Tracé_27" data-name="Tracé 27" d="M264.84,11.7l-6-1.2-5.4,4.8V18l9.085,2.344,2.31-2.053Z" transform="translate(-101.448 -4.202)" fill="none" stroke="#29fdc1" stroke-miterlimit="10" stroke-width="1.5"/>
        <path id="Tracé_28" data-name="Tracé 28" d="M468.312,833.871c1.24-.8,1.295-4.463,1.079-7.679l-11.992,9C461.6,835.075,466.959,834.748,468.312,833.871Z" transform="translate(-183.086 -330.704)" fill="none" stroke="#29fdc1" stroke-miterlimit="10" stroke-width="1.5"/>
        <path id="Tracé_29" data-name="Tracé 29" d="M2.513,754.048,117.747,719.6a1.234,1.234,0,0,1,.54-.037l173.2,26.784a1.23,1.23,0,0,1,1.042,1.215v30.807a1.228,1.228,0,0,1-.491.983L206.052,843.9a1.228,1.228,0,0,1-1.057.2L1.41,789.339a1.23,1.23,0,0,1-.91-1.23l1.135-32.925A1.23,1.23,0,0,1,2.513,754.048Z" transform="translate(-0.2 -288.016)" fill="none" stroke="#29fdc1" stroke-miterlimit="10" stroke-width="1.5"/>
        <path id="Tracé_30" data-name="Tracé 30" d="M467.317,865.622l.04.04Z" transform="translate(-187.056 -346.487)" fill="none" stroke="#29fdc1" stroke-miterlimit="10" stroke-width="1.5"/>
        <path id="Tracé_31" data-name="Tracé 31" d="M464.526,863.338l0,0Z" transform="translate(-185.939 -345.573)" fill="none" stroke="#29fdc1" stroke-miterlimit="10" stroke-width="1.5"/>
        <path id="Tracé_32" data-name="Tracé 32" d="M465.513,864.029l.017.013Z" transform="translate(-186.334 -345.85)" fill="none" stroke="#29fdc1" stroke-miterlimit="10" stroke-width="1.5"/>
        <path id="Tracé_33" data-name="Tracé 33" d="M466.443,864.794l.029.026Z" transform="translate(-186.706 -346.156)" fill="none" stroke="#29fdc1" stroke-miterlimit="10" stroke-width="1.5"/>
        <path id="Tracé_34" data-name="Tracé 34" d="M468.14,866.506l.044.05Z" transform="translate(-187.385 -346.841)" fill="none" stroke="#29fdc1" stroke-miterlimit="10" stroke-width="1.5"/>
        <path id="Tracé_35" data-name="Tracé 35" d="M469.631,868.4l.038.053Z" transform="translate(-187.982 -347.598)" fill="none" stroke="#29fdc1" stroke-miterlimit="10" stroke-width="1.5"/>
        <path id="Tracé_36" data-name="Tracé 36" d="M479.015,891.51c.118.247.234.476.35.684C479.249,891.986,479.133,891.756,479.015,891.51Z" transform="translate(-191.738 -356.85)" fill="none" stroke="#29fdc1" stroke-miterlimit="10" stroke-width="1.5"/>
        <path id="Tracé_37" data-name="Tracé 37" d="M478.426,890.2h0c.118.276.235.539.353.786C478.661,890.737,478.544,890.474,478.426,890.2Z" transform="translate(-191.502 -356.324)" fill="none" stroke="#29fdc1" stroke-miterlimit="10" stroke-width="1.5"/>
        <path id="Tracé_38" data-name="Tracé 38" d="M470.305,869.391l.022.035Z" transform="translate(-188.252 -347.996)" fill="none" stroke="#29fdc1" stroke-miterlimit="10" stroke-width="1.5"/>
        <path id="Tracé_39" data-name="Tracé 39" d="M468.91,867.433l.044.057Z" transform="translate(-187.693 -347.212)" fill="none" stroke="#29fdc1" stroke-miterlimit="10" stroke-width="1.5"/>
        <path id="Tracé_40" data-name="Tracé 40" d="M470.932,870.4Z" transform="translate(-188.503 -348.401)" fill="none" stroke="#29fdc1" stroke-miterlimit="10" stroke-width="1.5"/>
        <path id="Tracé_41" data-name="Tracé 41" d="M448.077,863.435h0c-.837,1.856-1.165,3.224,2.347,8.334.1-3.791.4-7.676,1.181-9.927A12.724,12.724,0,0,0,448.077,863.435Z" transform="translate(-179.134 -344.974)" fill="none" stroke="#29fdc1" stroke-miterlimit="10" stroke-width="1.5"/>
        <path id="Tracé_42" data-name="Tracé 42" d="M454.328,861.842Z" transform="translate(-181.857 -344.974)" fill="none" stroke="#29fdc1" stroke-miterlimit="10" stroke-width="1.5"/>
        <path id="Tracé_43" data-name="Tracé 43" d="M466.775,886.63c-.873,1.454-3,1.8-4.2-.6-2.083-4.165-1.157-14.366.892-19.248-1.863-3.151-5.059-6.434-9.958-5.135-1.711,4.954-1.129,17.818-1.129,20.185,0,2.4,1.2,6.976,3,8.286s5.4,1.31,8.4.71c2.7-.541,4.918-2.059,4.889-10.7a16.189,16.189,0,0,1-.7-1.472C467.9,882.05,467.577,885.293,466.775,886.63Z" transform="translate(-181.039 -344.78)" fill="none" stroke="#29fdc1" stroke-miterlimit="10" stroke-width="1.5"/>
        <path id="Tracé_44" data-name="Tracé 44" d="M469.126,866.255c-.193-9.8-1.268-15.675-2-18.593a4.266,4.266,0,0,0-2.743-3l-3.658-1.266v-3.419c-2.113.233-4.672.356-6.911.42l1.61-1.209-6.381,4.791v4.4l-.6,5.99c11.395-7.2,15.593,8.4,15.593,8.4S469.435,881.955,469.126,866.255Z" transform="translate(-179.502 -335.906)" fill="none" stroke="#29fdc1" stroke-miterlimit="10" stroke-width="1.5"/>
      </g>
    </g>
    <g id="Groupe_7" data-name="Groupe 7" transform="translate(1361.043 10476.229)">
      <g id="Groupe_6" data-name="Groupe 6" clip-path="url(#clip-path-2)">
        <path id="Tracé_45" data-name="Tracé 45" d="M10.038,127.389c.121-.627.27-1.389.442-2.262l-.486-.044a4.413,4.413,0,0,1-3.876-3.043,4.6,4.6,0,0,1,.773-3.986c2.2-3.3,2.643-7.035,6.6-7.693,1.021-4.833,2.185-10.166,3.414-15.483l-4.752,4.455a31.871,31.871,0,0,0-7.341,10.321C2.9,113.958,2.08,113.932.706,120.8a12.063,12.063,0,0,0,1.374,8.246c.8,1.2,3.814,3.638,7.558,4.822v-2.348A21.675,21.675,0,0,1,10.038,127.389Z" transform="translate(-0.157 -29.684)" fill="none" stroke="#29fdc1" stroke-miterlimit="10" stroke-width="1.5"/>
        <path id="Tracé_46" data-name="Tracé 46" d="M201.388,104.331s-2.749-34.357-2.749-36.418a2.884,2.884,0,0,1,.4-1.476c-1.674-7.651-2.967-11.679-3.149-12.954-.687-4.81-2.061-28.375-2.061-28.375l-.535-8.947c-.492-.757-.919-2.5-2.519-3.442C175.964,4.009,129.239-.114,92.133.573,81.914.762,45.343.615,33.482,7.819a7.091,7.091,0,0,0-3.33,5.713L28.917,36.992C23.508,50.814,16,88.6,14.2,97.861a21.675,21.675,0,0,0-.4,4.133V229.389c0,38.48,26.111,87.953,26.111,87.953,17.866,12.368,63.9,14.43,100.322,9.62,23.921-3.159,37.287-11.391,41.666-14.547a7.808,7.808,0,0,0,2.464-2.907c9.383-19.257,20.123-69.253,21.65-76.492a11.481,11.481,0,0,0,.231-1.771c2.942-56.31,1.481-96.39-1.159-124.092C201.839,107.765,201.388,104.331,201.388,104.331Z" transform="translate(-4.318 -0.156)" fill="#191a1a" stroke="#29fdc1" stroke-miterlimit="10" stroke-width="1.5"/>
        <path id="Tracé_47" data-name="Tracé 47" d="M290.616,105.116s1.5,17.72,3.561,23.9c.486,1.457.687,1.374,2.061,1.374s1.374-.687,1.374-4.123c0-6.184-.107-14.644-1.374-17.178C295.552,107.719,290.49,100.452,290.616,105.116Z" transform="translate(-90.923 -32.404)" fill="none" stroke="#29fdc1" stroke-miterlimit="10" stroke-width="1.5"/>
        <path id="Tracé_48" data-name="Tracé 48" d="M291.046,100.165c-1.374-2.061-4.123-4.123-4.81-4.81-1.374-1.374-3.436,0-3.436,2.061s2.749,36.418,2.749,36.418.714,5.479,6.871,1.374c4.123-2.749,4.123-6.184,4.123-6.184s0-19.927-2.061-23.363S291.046,100.165,291.046,100.165Z" transform="translate(-88.478 -29.66)" fill="none" stroke="#29fdc1" stroke-miterlimit="10" stroke-width="1.5"/>
        <path id="Tracé_49" data-name="Tracé 49" d="M77.811,246.5,51.8,227.237v19.495L95.777,278.34l16.1-9.354-29.65-19.407Q79.974,248.106,77.811,246.5Z" transform="translate(-16.206 -71.095)" fill="none" stroke="#29fdc1" stroke-miterlimit="10" stroke-width="1.5"/>
        <path id="Tracé_50" data-name="Tracé 50" d="M148,158.013,96.911,128.156,51.8,157.658v22.305l29.624,20.927q5.444,3.845,11.241,7.148l35.721,20.352,18.239-10.6Z" transform="translate(-16.206 -40.096)" fill="none" stroke="#29fdc1" stroke-miterlimit="10" stroke-width="1.5"/>
      </g>
    </g>
  </g>
</svg>
