<svg id="Groupe_172" data-name="Groupe 172" xmlns="http://www.w3.org/2000/svg" width="541" height="535" viewBox="0 0 541 535">
  <rect id="bg" width="541" height="535" fill="none"/>
  <g id="Groupe_171" data-name="Groupe 171" transform="translate(51.587 47.104)">
    <g id="oeuf" transform="translate(-1138 -4395)">
      <path id="Tracé_321" data-name="Tracé 321" d="M496.86,882.868a202.875,202.875,0,0,0,93.99-37.01q4.662-3.361,9.271-6.8c18.578-13.842,36.523-28.842,50.908-46.715a156.559,156.559,0,0,0,10.1-13.951c17.638-27.5,31.426-73.063,19.336-103.405a183.514,183.514,0,0,0-9.6-20.4c-10.12-18.469-24.36-36.4-42.649-44.944a54.957,54.957,0,0,0-12.469-4.157c-14.4-2.909-28.932.38-43.119,4.988-5.4,1.753-10.771,3.7-16.047,5.584q-9.271,3.28-18.614,6.253A624.591,624.591,0,0,1,397.955,649.8c-40.86,3.253-79.605,13.807-95.563,56.2-6.361,16.933-1.445,28.12,1.735,45.938,4.59,25.5,22.373,44.094,40.029,59.962,15.126,13.59,30.975,27.089,47.925,38.384,25.824,28.318,66.684,37.534,104.779,32.583" transform="translate(894.998 3959.024)" fill="#33413d" stroke="#707070" stroke-width="2"/>
      <path id="Tracé_322" data-name="Tracé 322" d="M496.86,882.868a202.875,202.875,0,0,0,93.99-37.01q4.662-3.361,9.271-6.8c18.578-13.842,36.523-28.842,50.908-46.715a156.559,156.559,0,0,0,10.1-13.951c17.638-27.5,31.426-73.063,19.336-103.405a183.514,183.514,0,0,0-9.6-20.4c-10.12-18.469-24.36-36.4-42.649-44.944a54.957,54.957,0,0,0-12.469-4.157c-14.4-2.909-28.932.38-43.119,4.988-5.4,1.753-10.771,3.7-16.047,5.584q-9.271,3.28-18.614,6.253A624.591,624.591,0,0,1,397.955,649.8c-40.86,3.253-79.605,13.807-95.563,56.2-6.361,16.933-1.445,28.12,1.735,45.938,4.59,25.5,22.373,44.094,40.029,59.962,15.126,13.59,30.975,27.089,47.925,38.384C417.905,878.6,458.765,887.819,496.86,882.868Z" transform="translate(894.998 3959.024)" fill="none" stroke="#29fdc1" stroke-miterlimit="10" stroke-width="2"/>
      <path id="Tracé_324" data-name="Tracé 324" d="M711.629,1049.071a73.24,73.24,0,1,0-73.241-73.241,73.241,73.241,0,0,0,73.241,73.241" transform="translate(675.536 3766.026)" fill="#191a1a" stroke="#707070" stroke-width="2"/>
      <circle id="Ellipse_17" data-name="Ellipse 17" cx="73.24" cy="73.24" r="73.24" transform="translate(1313.924 4668.616)" fill="none" stroke="#29fdc1" stroke-miterlimit="10" stroke-width="2"/>
      <path id="Tracé_325" data-name="Tracé 325" d="M665.4,1015.307c-14.47-20.982-9.673-54.718,10.429-76.282,11.949-12.818,30.262-19.428,47.881-20.461,7.025-.412,22.383-2.022,25.555,6.54,3.479,9.389-29.364,11.418-35.059,12.471-4.437.821-9.392,1.981-11.76,5.822-2.249,3.648-1.3,8.356-.057,12.459,1.683,5.577,3.483,11.04-1.51,15.2-5.445,4.532-13.318,4.038-19.067,8.083-9.282,6.53-5.059,18.148-5.766,27.583-.275,3.665-3.516,18.929-10.648,8.588" transform="translate(663.471 3755.94)" fill="#33413d"/>
    </g>
  </g>
</svg>
