<svg xmlns="http://www.w3.org/2000/svg" width="206.001" height="165.486" viewBox="0 0 206.001 165.486">
  <g id="Groupe_155" data-name="Groupe 155" transform="translate(1.001 1)">
    <g id="Groupe_149" data-name="Groupe 149" transform="translate(40.788)">
      <path id="Tracé_189" data-name="Tracé 189" d="M499.645,617.188l38.17,18.427H411.458l38.171-18.427" transform="translate(-393.03 -588.231)" fill="none" stroke="#29fdc1" stroke-linecap="round" stroke-linejoin="round" stroke-width="2"/>
      <path id="Tracé_190" data-name="Tracé 190" d="M327.628,1689.974H282.877l44.752-18.427h50.017l44.752,18.427H343.423" transform="translate(-271.031 -1588.625)" fill="none" stroke="#29fdc1" stroke-linecap="round" stroke-linejoin="round" stroke-width="2"/>
      <path id="Tracé_191" data-name="Tracé 191" d="M1157.223,80.391l13.252-28.957h23.6l13.162,28.957" transform="translate(-1100.626 -51.434)" fill="none" stroke="#29fdc1" stroke-linecap="round" stroke-linejoin="round" stroke-width="2"/>
      <line id="Ligne_12" data-name="Ligne 12" y1="72.392" transform="translate(56.598 28.957)" fill="none" stroke="#29fdc1" stroke-linecap="round" stroke-linejoin="round" stroke-width="2"/>
      <path id="Tracé_192" data-name="Tracé 192" d="M1388.668,617.188h38.17V689.58" transform="translate(-1320.224 -588.231)" fill="none" stroke="#29fdc1" stroke-linecap="round" stroke-linejoin="round" stroke-width="2"/>
      <line id="Ligne_13" data-name="Ligne 13" x2="50.017" y2="35.538" transform="translate(56.598 47.384)" fill="none" stroke="#29fdc1" stroke-linecap="round" stroke-linejoin="round" stroke-width="2"/>
      <line id="Ligne_14" data-name="Ligne 14" x1="50.017" y2="35.538" transform="translate(56.598 47.384)" fill="none" stroke="#29fdc1" stroke-linecap="round" stroke-linejoin="round" stroke-width="2"/>
      <line id="Ligne_15" data-name="Ligne 15" y2="28.957" transform="translate(81.696 0)" fill="none" stroke="#29fdc1" stroke-linecap="round" stroke-linejoin="round" stroke-width="2"/>
      <path id="Tracé_193" data-name="Tracé 193" d="M522.827,2031.572l-34.222,60.985,84.238-60.985,34.222,61.863Z" transform="translate(-466.23 -1930.223)" fill="none" stroke="#29fdc1" stroke-linecap="round" stroke-linejoin="round" stroke-width="2"/>
      <line id="Ligne_16" data-name="Ligne 16" y2="6.581" transform="translate(18.427 56.598)" fill="none" stroke="#29fdc1" stroke-linecap="round" stroke-linejoin="round" stroke-width="2"/>
      <line id="Ligne_17" data-name="Ligne 17" y2="6.581" transform="translate(27.641 56.598)" fill="none" stroke="#29fdc1" stroke-linecap="round" stroke-linejoin="round" stroke-width="2"/>
      <line id="Ligne_18" data-name="Ligne 18" y2="6.581" transform="translate(135.571 56.598)" fill="none" stroke="#29fdc1" stroke-linecap="round" stroke-linejoin="round" stroke-width="2"/>
      <line id="Ligne_19" data-name="Ligne 19" y2="6.581" transform="translate(144.785 56.598)" fill="none" stroke="#29fdc1" stroke-linecap="round" stroke-linejoin="round" stroke-width="2"/>
      <line id="Ligne_20" data-name="Ligne 20" y2="6.581" transform="translate(11.846 110.563)" fill="none" stroke="#29fdc1" stroke-linecap="round" stroke-linejoin="round" stroke-width="2"/>
      <line id="Ligne_21" data-name="Ligne 21" y2="6.581" transform="translate(21.06 110.563)" fill="none" stroke="#29fdc1" stroke-linecap="round" stroke-linejoin="round" stroke-width="2"/>
      <line id="Ligne_22" data-name="Ligne 22" y2="6.581" transform="translate(142.152 110.563)" fill="none" stroke="#29fdc1" stroke-linecap="round" stroke-linejoin="round" stroke-width="2"/>
      <line id="Ligne_23" data-name="Ligne 23" y2="6.581" transform="translate(151.366 110.563)" fill="none" stroke="#29fdc1" stroke-linecap="round" stroke-linejoin="round" stroke-width="2"/>
      <line id="Ligne_24" data-name="Ligne 24" x2="22.376" transform="translate(140.836 163.212)" fill="none" stroke="#29fdc1" stroke-linecap="round" stroke-linejoin="round" stroke-width="2"/>
      <line id="Ligne_25" data-name="Ligne 25" x2="123.725" transform="translate(0 163.212)" fill="none" stroke="#29fdc1" stroke-linecap="round" stroke-linejoin="round" stroke-width="2"/>
    </g>
    <g id="Groupe_154" data-name="Groupe 154" transform="translate(0 91.823)">
      <path id="bgg" d="M5696.249,3638.936l27.562-24.885h43.5l28.055,24.885-1.693,5.105v41.408h-97.422Z" transform="translate(-5693.178 -3614.051)" fill="#637771" stroke="#707070" stroke-width="1"/>
      <path id="Tracé_194" data-name="Tracé 194" d="M64.5,74.906l0-43.947.281.053L34.388,4,4,31.012l3.376-.053,0,43.947" transform="translate(-4 -3.537)" fill="none" stroke="#29fdc1" stroke-linecap="round" stroke-linejoin="round" stroke-width="2"/>
      <path id="Tracé_195" data-name="Tracé 195" d="M106.763,31.012h43.522L119.9,4H76" transform="translate(-45.612 -3.537)" fill="none" stroke="#29fdc1" stroke-linecap="round" stroke-linejoin="round" stroke-width="2"/>
      <line id="Ligne_26" data-name="Ligne 26" y2="43.332" transform="translate(101.108 27.755)" fill="none" stroke="#29fdc1" stroke-linecap="round" stroke-linejoin="round" stroke-width="2"/>
      <line id="Ligne_27" data-name="Ligne 27" y1="0.291" x2="104.671" transform="translate(0.002 71.369)" fill="none" stroke="#29fdc1" stroke-linecap="round" stroke-linejoin="round" stroke-width="2"/>
      <path id="Tracé_196" data-name="Tracé 196" d="M58.131,89.947v11.818L71.637,81.506H61.508V68L48,88.259H58.131Z" transform="translate(-29.431 -40.525)" fill="#191a1a" stroke="#29fdc1" stroke-linecap="round" stroke-linejoin="round" stroke-width="2"/>
    </g>
  </g>
</svg>
