<svg id="Groupe_172" data-name="Groupe 172" xmlns="http://www.w3.org/2000/svg" width="541" height="535" viewBox="0 0 541 535">
  <rect id="bg" width="541" height="535" fill="none"/>
  <g id="Groupe_171" data-name="Groupe 171" transform="translate(51.587 47.104)">
    <g id="legume1" transform="translate(-1441.635 4725.231) rotate(-143)">
      <path id="Tracé_385" data-name="Tracé 385" d="M1168.635,903.752s13.458,10.531,15.058,18.622-3.965,18.417-3.965,18.417,6.891,2.519,14.676-11.868c0,0,7.194,11.5,6.5,18.045a15.768,15.768,0,0,0,5.278-12.683s.085,16.113,24.305,25.655c0,0-4.5-6.56-3.952-11.691,0,0,10.927,15.113,25.479,9.5,0,0-10.16-3.759-16.015-11,0,0,6.679-.546,11.808,3.4,0,0-2.753-7.806-9.811-12.132s-7.6-9.393-7.6-9.393a19.363,19.363,0,0,1,8.286,6.245c3.956,4.892,7.895,6.561,12.15,8.622,0,0-4.822-5.162-4.41-9.056,0,0,13.474,6.257,20.611,18.285,0,0,5.382-15.356-18.4-30.755,0,0,2.831.3,7.527-3.5a50.425,50.425,0,0,1-8.727-.386c-6.016-.637-9.285-1.877-15.048-6.6s-15.189-8.837-19.537-8.151c0,0,2.415-4.218,10.2-3.394,0,0-2.69-3.326-11.892-4.3s-16.732-1.114-23.071-.115-12.686-2.011-12.686-2.011Z" transform="translate(332.354 3771.91)" fill="#191a1a" stroke="#707070" stroke-width="2"/>
      <path id="Tracé_386" data-name="Tracé 386" d="M1168.635,903.752s13.458,10.531,15.058,18.622-3.965,18.417-3.965,18.417,6.891,2.519,14.676-11.868c0,0,7.194,11.5,6.5,18.045a15.768,15.768,0,0,0,5.278-12.683s.085,16.113,24.305,25.655c0,0-4.5-6.56-3.952-11.691,0,0,10.927,15.113,25.479,9.5,0,0-10.16-3.759-16.015-11,0,0,6.679-.546,11.808,3.4,0,0-2.753-7.806-9.811-12.132s-7.6-9.393-7.6-9.393a19.363,19.363,0,0,1,8.286,6.245c3.956,4.892,7.895,6.561,12.15,8.622,0,0-4.822-5.162-4.41-9.056,0,0,13.474,6.257,20.611,18.285,0,0,5.382-15.356-18.4-30.755,0,0,2.831.3,7.527-3.5a50.425,50.425,0,0,1-8.727-.386c-6.016-.637-9.285-1.877-15.048-6.6s-15.189-8.837-19.537-8.151c0,0,2.415-4.218,10.2-3.394,0,0-2.69-3.326-11.892-4.3s-16.732-1.114-23.071-.115-12.686-2.011-12.686-2.011Z" transform="translate(332.354 3771.91)" fill="none" stroke="#29fdc1" stroke-miterlimit="10" stroke-width="2"/>
      <path id="Tracé_387" data-name="Tracé 387" d="M962.929,822.235s57.441,15,81.958,26.912,58.778,23.059,64.782,30.485c0,0-36.556-16.264-41.45-15.492,0,0,22.373,19.916,24.622,29.1,0,0-15.458-19.116-36.118-27.056s-27.479-8.552-60.1-19.1c-15.635-5.055-35.459-12.091-35.459-12.091Z" transform="translate(466.633 3818.032)" fill="#33413d" stroke="#707070" stroke-width="2"/>
      <path id="Tracé_388" data-name="Tracé 388" d="M962.929,822.235s57.441,15,81.958,26.912,58.778,23.059,64.782,30.485c0,0-36.556-16.264-41.45-15.492,0,0,22.373,19.916,24.622,29.1,0,0-15.458-19.116-36.118-27.056s-27.479-8.552-60.1-19.1c-15.635-5.055-35.459-12.091-35.459-12.091Z" transform="translate(466.633 3818.032)" fill="none" stroke="#29fdc1" stroke-miterlimit="10" stroke-width="2"/>
    </g>
  </g>
</svg>
