<svg id="Groupe_172" data-name="Groupe 172" xmlns="http://www.w3.org/2000/svg" width="541" height="535" viewBox="0 0 541 535">
  <rect id="bg" width="541" height="535" fill="none"/>
  <g id="Groupe_171" data-name="Groupe 171" transform="translate(51.587 47.104)">
    <g id="legume2" transform="translate(-1138 -4395)">
      <path id="Tracé_389" data-name="Tracé 389" d="M1146.007,784.173s13.717,17.278,33.783,18.153c0,0-8.335-5.931-8.608-9.3,0,0,16.607,10.413,25.578,7.214,0,0-9.021-3.376-9.394-7.988,0,0,15.483,1.6,21.685,9.849,0,0,3.212-2.224.9-6.5,0,0,12.287,1.859,21.618-6.393,0,0-22.165,4.058-16.568-2.526.978-1.15,27.145-1.364,42.631-19.577,0,0-9.837,4.188-14.055.6,0,0,16.348-14.177,11.757-22.375,0,0-25.066,32.2-50.174,26.377,0,0,13.652,1.038,23.136-16.333,0,0-9.061,7.16-17.344,4.081a22.988,22.988,0,0,1,9.052-9.48s-14.694.188-22.454,9.315c0,0-.216-6.35,4.274-9.689,0,0-14.88,3.584-20.18,11.69,0,0,1.669-9.812-8.626-15.923,0,0-2.326,19.848-11.863,25.258a178.735,178.735,0,0,1-16.827,8.485Z" transform="translate(348.085 3867.805)" fill="#191a1a" stroke="#707070" stroke-width="2"/>
      <path id="Tracé_390" data-name="Tracé 390" d="M1146.007,784.173s13.717,17.278,33.783,18.153c0,0-8.335-5.931-8.608-9.3,0,0,16.607,10.413,25.578,7.214,0,0-9.021-3.376-9.394-7.988,0,0,15.483,1.6,21.685,9.849,0,0,3.212-2.224.9-6.5,0,0,12.287,1.859,21.618-6.393,0,0-22.165,4.058-16.568-2.526.978-1.15,27.145-1.364,42.631-19.577,0,0-9.837,4.188-14.055.6,0,0,16.348-14.177,11.757-22.375,0,0-25.066,32.2-50.174,26.377,0,0,13.652,1.038,23.136-16.333,0,0-9.061,7.16-17.344,4.081a22.988,22.988,0,0,1,9.052-9.48s-14.694.188-22.454,9.315c0,0-.216-6.35,4.274-9.689,0,0-14.88,3.584-20.18,11.69,0,0,1.669-9.812-8.626-15.923,0,0-2.326,19.848-11.863,25.258a178.735,178.735,0,0,1-16.827,8.485Z" transform="translate(348.085 3867.805)" fill="none" stroke="#29fdc1" stroke-miterlimit="10" stroke-width="2"/>
      <path id="Tracé_391" data-name="Tracé 391" d="M923.1,809.656a300.829,300.829,0,0,1,35.536,2.843c17.59,2.624,45.174,3.21,56.09,2.327s24.405,2.59,41.624-1.606a97.418,97.418,0,0,0,28.239-12.1s-23.181,6.335-35.415,7.325-26.494,1.256-26.494,1.256,21.831-13.971,38.448-15.316c0,0-29.294,1.959-41.272,9.831a95.452,95.452,0,0,1-35.268-.478c-19.6-3.889-56.12-12.9-56.12-12.9Z" transform="translate(491.267 3838.353)" fill="#33413d" stroke="#707070" stroke-width="2"/>
      <path id="Tracé_392" data-name="Tracé 392" d="M923.1,809.656a300.829,300.829,0,0,1,35.536,2.843c17.59,2.624,45.174,3.21,56.09,2.327s24.405,2.59,41.624-1.606a97.418,97.418,0,0,0,28.239-12.1s-23.181,6.335-35.415,7.325-26.494,1.256-26.494,1.256,21.831-13.971,38.448-15.316c0,0-29.294,1.959-41.272,9.831a95.452,95.452,0,0,1-35.268-.478c-19.6-3.889-56.12-12.9-56.12-12.9Z" transform="translate(491.267 3838.353)" fill="none" stroke="#29fdc1" stroke-miterlimit="10" stroke-width="2"/>
    </g>
  </g>
</svg>
