<svg id="Groupe_172" data-name="Groupe 172" xmlns="http://www.w3.org/2000/svg" width="541" height="535" viewBox="0 0 541 535">
  <rect id="bg" width="541" height="535" fill="none"/>
  <g id="Groupe_171" data-name="Groupe 171" transform="translate(51.587 47.104)">
    <g id="pea1" transform="translate(-1138 -4395)">
      <path id="Tracé_318" data-name="Tracé 318" d="M309.458,1156.092c9.545-9.511,21.543-3.251,26.34,4.131,4.92,7.572,2.893,17.435-4.312,23.565-7.149,6.082-20.249,4.656-25.22-3.413s-3.668-17.448,3.193-24.284" transform="translate(892.431 3605.079)" fill="#33413d" stroke="#707070" stroke-width="2"/>
      <path id="Tracé_319" data-name="Tracé 319" d="M309.458,1156.092c9.545-9.511,21.543-3.251,26.34,4.131,4.92,7.572,2.893,17.435-4.312,23.565-7.149,6.082-20.249,4.656-25.22-3.413S302.6,1162.928,309.458,1156.092Z" transform="translate(892.431 3605.079)" fill="none" stroke="#29fdc1" stroke-miterlimit="10" stroke-width="2"/>
      <path id="Tracé_320" data-name="Tracé 320" d="M332.858,1232.73a26.353,26.353,0,0,1-11.634-3.163.882.882,0,0,1,.869-1.535c.118.067,11.9,6.6,19.14-.189a.882.882,0,1,1,1.205,1.288,13.586,13.586,0,0,1-9.581,3.6" transform="translate(881.097 3555.673)" fill="#29fdc1"/>
    </g>
  </g>
</svg>
