<svg id="Groupe_172" data-name="Groupe 172" xmlns="http://www.w3.org/2000/svg" width="541" height="535" viewBox="0 0 541 535">
  <rect id="bg" width="541" height="535" fill="none"/>
  <g id="Groupe_171" data-name="Groupe 171" transform="translate(51.587 47.104)">
    <g id="pea2" transform="translate(-1138 -4395)">
      <path id="Tracé_315" data-name="Tracé 315" d="M242.642,1061.034c13.243,2.486,14.874,15.92,11.5,24.052-3.457,8.342-12.736,12.253-21.868,9.783-9.06-2.451-15.3-14.058-11.461-22.723s12.308-12.9,21.827-11.113" transform="translate(946.539 3663.741)" fill="#33413d" stroke="#707070" stroke-width="2"/>
      <path id="Tracé_316" data-name="Tracé 316" d="M242.642,1061.034c13.243,2.486,14.874,15.92,11.5,24.052-3.457,8.342-12.736,12.253-21.868,9.783-9.06-2.451-15.3-14.058-11.461-22.723S233.123,1059.247,242.642,1061.034Z" transform="translate(946.539 3663.741)" fill="none" stroke="#29fdc1" stroke-miterlimit="10" stroke-width="2"/>
      <path id="Tracé_317" data-name="Tracé 317" d="M241.8,1116.907a.88.88,0,0,1-.191-.021c-10.965-2.413-12.316-16.638-12.368-17.243a.882.882,0,0,1,1.758-.152c.012.135,1.3,13.539,10.989,15.672a.882.882,0,0,1-.188,1.744" transform="translate(940.341 3639.111)" fill="#29fdc1"/>
    </g>
  </g>
</svg>
