<svg id="Groupe_172" data-name="Groupe 172" xmlns="http://www.w3.org/2000/svg" width="541" height="535" viewBox="0 0 541 535">
  <rect id="bg" width="541" height="535" fill="none"/>
  <g id="Groupe_171" data-name="Groupe 171" transform="translate(51.587 47.104)">
    <g id="pea3" transform="translate(-1138 -4395)">
      <path id="Tracé_326" data-name="Tracé 326" d="M395.732,1049.881c8.873,10.14,1.851,21.708-5.826,26.017-7.874,4.42-17.586,1.759-23.237-5.827-5.608-7.527-3.338-20.508,5.036-24.947s17.649-2.532,24.026,4.757" transform="translate(853.388 3675.312)" fill="#33413d" stroke="#707070" stroke-width="2"/>
      <path id="Tracé_327" data-name="Tracé 327" d="M395.732,1049.881c8.873,10.14,1.851,21.708-5.826,26.017-7.874,4.42-17.586,1.759-23.237-5.827-5.608-7.527-3.338-20.508,5.036-24.947S389.354,1042.592,395.732,1049.881Z" transform="translate(853.388 3675.312)" fill="none" stroke="#29fdc1" stroke-miterlimit="10" stroke-width="2"/>
      <path id="Tracé_328" data-name="Tracé 328" d="M379.046,1080.56a.881.881,0,0,1-.682-.322c-7.127-8.675.6-20.692.937-21.2a.882.882,0,0,1,1.475.967c-.074.114-7.35,11.444-1.049,19.113a.882.882,0,0,1-.681,1.442" transform="translate(845.773 3665.029)" fill="#29fdc1"/>
    </g>
  </g>
</svg>
