<svg id="Groupe_172" data-name="Groupe 172" xmlns="http://www.w3.org/2000/svg" width="541" height="535" viewBox="0 0 541 535">
  <rect id="bg" width="541" height="535" fill="none"/>
  <g id="Groupe_171" data-name="Groupe 171" transform="translate(51.587 47.104)">
    <g id="pea4" transform="translate(-1138 -4395)">
      <path id="Tracé_312" data-name="Tracé 312" d="M146.362,92.73c12.549,2.356,14.095,15.086,10.9,22.793-3.276,7.9-12.069,11.611-20.723,9.271-8.586-2.322-14.5-13.321-10.861-21.533s11.663-12.224,20.683-10.531" transform="translate(1008.073 4290.423)" fill="#33413d" stroke="#707070" stroke-width="2"/>
      <path id="Tracé_313" data-name="Tracé 313" d="M146.362,92.73c12.549,2.356,14.095,15.086,10.9,22.793-3.276,7.9-12.069,11.611-20.723,9.271-8.586-2.322-14.5-13.321-10.861-21.533S137.342,91.037,146.362,92.73Z" transform="translate(1008.073 4290.423)" fill="none" stroke="#29fdc1" stroke-miterlimit="10" stroke-width="2"/>
      <path id="Tracé_314" data-name="Tracé 314" d="M145.48,145.639a.883.883,0,0,1-.191-.021c-10.424-2.294-11.707-15.806-11.756-16.381a.882.882,0,0,1,1.758-.152c.011.128,1.226,12.8,10.378,14.81a.882.882,0,0,1-.189,1.743" transform="translate(1002.285 4267.167)" fill="#29fdc1"/>
    </g>
  </g>
</svg>
