<svg id="Groupe_172" data-name="Groupe 172" xmlns="http://www.w3.org/2000/svg" width="541" height="535" viewBox="0 0 541 535">
  <rect id="bg" width="541" height="535" fill="none"/>
  <g id="Groupe_171" data-name="Groupe 171" transform="translate(51.587 47.104)">
    <g id="pea5" transform="translate(-1138 -4395)">
      <path id="Tracé_309" data-name="Tracé 309" d="M40.728,211.69c12.549,2.356,14.095,15.086,10.9,22.793-3.277,7.9-12.069,11.611-20.723,9.271-8.586-2.322-14.5-13.321-10.861-21.533S31.708,210,40.728,211.69" transform="translate(1076.44 4213.431)" fill="#33413d" stroke="#707070" stroke-width="2"/>
      <path id="Tracé_310" data-name="Tracé 310" d="M40.728,211.69c12.549,2.356,14.095,15.086,10.9,22.793-3.277,7.9-12.069,11.611-20.723,9.271-8.586-2.322-14.5-13.321-10.861-21.533S31.708,210,40.728,211.69Z" transform="translate(1076.44 4213.431)" fill="none" stroke="#29fdc1" stroke-miterlimit="10" stroke-width="2"/>
      <path id="Tracé_311" data-name="Tracé 311" d="M55.431,265.846h-.153a.882.882,0,0,1,.04-1.764c.071,0,7.3.1,11.845-4.348,2.471-2.419,3.723-5.77,3.723-9.956a.882.882,0,0,1,1.764,0c0,4.684-1.434,8.461-4.263,11.226-4.752,4.645-11.8,4.843-12.955,4.843" transform="translate(1053.488 4189.104)" fill="#29fdc1"/>
    </g>
  </g>
</svg>
