<svg xmlns="http://www.w3.org/2000/svg" width="206.207" height="101.321" viewBox="0 0 206.207 101.321">
  <g id="Groupe_142" data-name="Groupe 142" transform="translate(1.207 1)">
    <path id="Tracé_187" data-name="Tracé 187" d="M88.4,160.456l-25.649,4.982L50.122,137.773l7.024-2.489Z" transform="translate(-47.043 -121.768)" fill="#637771" stroke="#29fdc1" stroke-linecap="round" stroke-linejoin="round" stroke-width="2"/>
    <path id="Tracé_184" data-name="Tracé 184" d="M108.269,264.3l-41.905,9.361h0L25,283.288" transform="translate(-25 -234.971)" fill="none" stroke="#29fdc1" stroke-linecap="round" stroke-linejoin="round" stroke-width="2"/>
    <path id="Tracé_186" data-name="Tracé 186" d="M25,133.869l60.232,14.59s91.5-13.859,125.674-26.279c0,0,17.931-4.719,18.094-19.134,0,0-7.772-12.312-26.9-8.194l-14.054,3.3-43.406,10.1" transform="translate(-25 -85.552)" fill="#637771" stroke="#29fdc1" stroke-linecap="round" stroke-linejoin="round" stroke-width="2"/>
    <line id="Ligne_10" data-name="Ligne 10" x2="181.643" transform="translate(2.656 99.321)" fill="none" stroke="#29fdc1" stroke-linecap="round" stroke-linejoin="round" stroke-width="2"/>
    <line id="Ligne_11" data-name="Ligne 11" x1="19.217" y2="4.587" transform="translate(182.441 15.222)" fill="none" stroke="#29fdc1" stroke-linecap="round" stroke-linejoin="round" stroke-width="2"/>
    <path id="Tracé_188" data-name="Tracé 188" d="M400.978,51.867,312.313,25l-10.822,2.11,59.173,32.613" transform="translate(-267.605 -25)" fill="#637771" stroke="#29fdc1" stroke-linecap="round" stroke-linejoin="round" stroke-width="2"/>
  </g>
</svg>
