<svg id="Groupe_185" data-name="Groupe 185" xmlns="http://www.w3.org/2000/svg" width="664" height="423" viewBox="0 0 664 423">
  <rect id="bg" width="664" height="423" fill="none"/>
  <path id="Tracé_536" data-name="Tracé 536" d="M-59.44,0h3.74V-4.96L-52.38,0h4.12V-.42l-3.3-4.78a4.153,4.153,0,0,0,2.7-4.14c0-2.88-1.98-4.66-5.26-4.66h-5.32Zm3.72-7.54v-3.02h1.5A1.429,1.429,0,0,1-52.6-9.04a1.415,1.415,0,0,1-1.62,1.5ZM-46.8,0h3.54V-10.6H-46.8Zm1.76-11.48a1.872,1.872,0,0,0,2-1.88,1.888,1.888,0,0,0-2-1.9,1.893,1.893,0,0,0-2.02,1.9A1.878,1.878,0,0,0-45.04-11.48ZM-41.48,0h9.04V-3.16l-4.24.02,4.16-5.94V-10.6h-8.72v3.1h3.78l-4.02,5.82Zm15.66-4.52h6.72V-7.64h-6.72ZM-9.02,0H-5.4V-14H-7.94l-4.9,3.52,1.54,2.56L-9-9.28l-.02,3.42ZM1.9.26c3.22,0,5.44-1.72,5.44-4.2A3.89,3.89,0,0,0,5.26-7.4a3.5,3.5,0,0,0,1.52-2.94c0-2.28-2.04-3.92-4.88-3.92-2.82,0-4.86,1.64-4.86,3.92a3.648,3.648,0,0,0,1.5,2.96A3.879,3.879,0,0,0-3.52-3.94C-3.52-1.46-1.32.26,1.9.26Zm0-3.14A1.5,1.5,0,0,1,.2-4.38a1.5,1.5,0,0,1,1.7-1.5c1.08,0,1.72.6,1.72,1.5S2.98-2.88,1.9-2.88Zm0-5.74A1.367,1.367,0,0,1,.36-9.98,1.367,1.367,0,0,1,1.9-11.34,1.357,1.357,0,0,1,3.44-9.98,1.357,1.357,0,0,1,1.9-8.62ZM13.58.26c3.08,0,5.36-1.66,5.36-4.2a3.914,3.914,0,0,0-1.96-3.4,3.536,3.536,0,0,0,1.5-3.04c0-2.42-1.96-3.88-4.92-3.88-2.98,0-4.94,1.64-4.94,4.32h3.52c0-.72.56-1.18,1.42-1.18.84,0,1.38.44,1.38,1.16,0,.78-.54,1.22-1.48,1.22H12.12V-5.7h1.34c1.06,0,1.68.5,1.68,1.34,0,.82-.6,1.32-1.58,1.32S12-3.54,12-4.36H8.34C8.34-1.58,10.48.26,13.58.26ZM20.08,0H30.54V-3.24H27.46l-1.6.08L27.6-4.72c2.08-1.84,2.82-3.18,2.82-4.9,0-2.72-2.1-4.64-5.1-4.64a4.813,4.813,0,0,0-5.06,5.12h3.56a1.461,1.461,0,0,1,1.46-1.64,1.344,1.344,0,0,1,1.44,1.4c0,.72-.36,1.24-1.58,2.4L20.08-2.3ZM43.9,0h4.02V-.34L44.46-5.5l3.14-4.76v-.34H43.72L41.4-6.72V-14H37.86V0H41.4V-4.02Zm9.96,3.6c3.28,0,5.68-1.8,5.68-5.34V-10.6H56.56l-.12.88a4.922,4.922,0,0,0-3.22-1.12,4.964,4.964,0,0,0-5.04,5.12A4.859,4.859,0,0,0,53.22-.7a5.156,5.156,0,0,0,2.8-.78v.26c0,1.26-.98,1.88-2.28,1.88-.88,0-1.62-.28-1.8-.96H48.52C48.8,2.36,50.96,3.6,53.86,3.6Zm0-7.14a2.021,2.021,0,0,1-2.16-2.1,2.006,2.006,0,0,1,2.16-2.08,2.022,2.022,0,0,1,2.18,2.08A2.038,2.038,0,0,1,53.86-3.54ZM-89.327,21H-88l4.788-8.946V11.2h-6.874v1.19h5.334l-4.578,8.484Zm10.612.14c2.114,0,3.584-1.148,3.584-2.814a2.632,2.632,0,0,0-1.708-2.464,2.5,2.5,0,0,0,1.246-2.142,2.858,2.858,0,0,0-3.122-2.66,2.845,2.845,0,0,0-3.108,2.66,2.5,2.5,0,0,0,1.246,2.142,2.632,2.632,0,0,0-1.708,2.464C-82.285,19.978-80.815,21.14-78.715,21.14Zm0-1.2c-1.414,0-2.31-.672-2.31-1.722s.9-1.722,2.31-1.722,2.324.672,2.324,1.722S-77.287,19.936-78.715,19.936Zm0-4.578c-1.12,0-1.89-.644-1.89-1.568a1.672,1.672,0,0,1,1.89-1.582c1.12,0,1.9.644,1.9,1.582S-77.6,15.358-78.715,15.358ZM-71.491,21h1.022l5.46-9.8h-1.022Zm.056-5.362a2.249,2.249,0,0,0,2.324-2.282,2.252,2.252,0,0,0-2.324-2.3,2.241,2.241,0,0,0-2.31,2.3A2.237,2.237,0,0,0-71.435,15.638Zm0-.952a1.276,1.276,0,0,1-1.316-1.33,1.268,1.268,0,0,1,1.316-1.33,1.26,1.26,0,0,1,1.316,1.33A1.276,1.276,0,0,1-71.435,14.686Zm6.412,6.44a2.237,2.237,0,0,0,2.31-2.282,2.241,2.241,0,0,0-2.31-2.3,2.252,2.252,0,0,0-2.324,2.3A2.249,2.249,0,0,0-65.023,21.126Zm0-.952a1.276,1.276,0,0,1-1.316-1.33,1.268,1.268,0,0,1,1.316-1.33,1.26,1.26,0,0,1,1.316,1.33A1.268,1.268,0,0,1-65.023,20.174Zm7.966.826h1.19V11.2h-1.19Zm6.986.126a3.706,3.706,0,0,0,3.864-3.836,3.706,3.706,0,0,0-3.864-3.836,3.713,3.713,0,0,0-3.864,3.836A3.713,3.713,0,0,0-50.071,21.126Zm0-1.12a2.585,2.585,0,0,1-2.646-2.716,2.585,2.585,0,0,1,2.646-2.716,2.6,2.6,0,0,1,2.66,2.716A2.6,2.6,0,0,1-50.071,20.006Zm5.8.994h1.19V16.968a2.312,2.312,0,0,1,2.394-2.408,3.316,3.316,0,0,1,.8.112V13.594a3.942,3.942,0,0,0-.938-.126,2.563,2.563,0,0,0-2.254,1.218V13.58h-1.19Zm8.428.112c1.75,0,3.136-.714,3.136-2.254,0-1.414-1.176-1.918-2.912-2.142-1.54-.2-2.016-.476-2.016-1.134s.644-1.05,1.764-1.05c1.008,0,1.666.434,1.736,1.148h1.2c-.084-1.386-1.176-2.24-2.912-2.24-1.68,0-3,.728-3,2.142,0,1.316.8,1.918,2.926,2.226,1.554.238,1.988.476,1.988,1.106,0,.728-.756,1.092-1.9,1.092-1.12,0-1.862-.476-1.918-1.316h-1.218C-38.9,20.2-37.709,21.112-35.847,21.112Zm11.858.014a3.592,3.592,0,0,0,2.8-1.218V21H-20V11.2h-1.19v3.472a3.592,3.592,0,0,0-2.8-1.218,3.64,3.64,0,0,0-3.724,3.836A3.64,3.64,0,0,0-23.989,21.126Zm.14-1.12A2.577,2.577,0,0,1-26.5,17.29a2.577,2.577,0,0,1,2.646-2.716,2.584,2.584,0,0,1,2.674,2.716A2.584,2.584,0,0,1-23.849,20.006Zm9.59,1.12a3.641,3.641,0,0,0,3.6-2.352h-1.288a2.491,2.491,0,0,1-2.31,1.232,2.488,2.488,0,0,1-2.562-2.31h6.384a3.721,3.721,0,0,0-3.822-4.242,3.684,3.684,0,0,0-3.808,3.836A3.684,3.684,0,0,0-14.259,21.126Zm-2.534-4.452a2.476,2.476,0,0,1,2.534-2.1,2.57,2.57,0,0,1,2.576,2.1ZM-4.865,21h1.19V11.2h-1.19Zm6.846.126A3.664,3.664,0,0,0,4.753,19.95V21h1.19V13.58H4.753v1.05a3.664,3.664,0,0,0-2.772-1.176A3.64,3.64,0,0,0-1.743,17.29,3.64,3.64,0,0,0,1.981,21.126Zm.14-1.12A2.577,2.577,0,0,1-.525,17.29a2.577,2.577,0,0,1,2.646-2.716,2.588,2.588,0,0,1,2.66,2.716A2.588,2.588,0,0,1,2.121,20.006Zm13.986,1.12a3.648,3.648,0,0,0,3.724-3.836,3.648,3.648,0,0,0-3.724-3.836,3.592,3.592,0,0,0-2.8,1.218V13.58h-1.19v9.576h1.19V19.908A3.592,3.592,0,0,0,16.107,21.126Zm-.154-1.12a2.592,2.592,0,0,1-2.674-2.716,2.592,2.592,0,0,1,2.674-2.716,2.581,2.581,0,0,1,2.66,2.716A2.581,2.581,0,0,1,15.953,20.006Zm5.81.994h1.19V16.968a2.312,2.312,0,0,1,2.394-2.408,3.316,3.316,0,0,1,.8.112V13.594a3.942,3.942,0,0,0-.938-.126,2.563,2.563,0,0,0-2.254,1.218V13.58h-1.19Zm9.016.126a3.706,3.706,0,0,0,3.864-3.836,3.706,3.706,0,0,0-3.864-3.836,3.713,3.713,0,0,0-3.864,3.836A3.713,3.713,0,0,0,30.779,21.126Zm0-1.12a2.585,2.585,0,0,1-2.646-2.716,2.654,2.654,0,1,1,5.306,0A2.6,2.6,0,0,1,30.779,20.006Zm8.96,1.12a3.592,3.592,0,0,0,2.8-1.218V21h1.19V11.2h-1.19v3.472a3.592,3.592,0,0,0-2.8-1.218,3.64,3.64,0,0,0-3.724,3.836A3.64,3.64,0,0,0,39.739,21.126Zm.14-1.12a2.577,2.577,0,0,1-2.646-2.716,2.661,2.661,0,1,1,5.32,0A2.584,2.584,0,0,1,39.879,20.006Zm9.282,1.106a3.217,3.217,0,0,0,2.618-1.19V21h1.19V13.58h-1.19V17.7a2.224,2.224,0,0,1-2.408,2.338C48,20.034,47.3,19.222,47.3,17.7V13.58h-1.19V17.7C46.109,19.866,47.215,21.112,49.161,21.112Zm9.436.014a3.6,3.6,0,0,0,3.682-2.786H61.061a2.411,2.411,0,0,1-2.436,1.666,2.529,2.529,0,0,1-2.618-2.7,2.544,2.544,0,0,1,2.618-2.73,2.451,2.451,0,0,1,2.436,1.652h1.19A3.577,3.577,0,0,0,58.6,13.454a3.664,3.664,0,0,0-3.808,3.85A3.665,3.665,0,0,0,58.6,21.126Zm8.386-.084c.252,0,.56-.014.854-.042V19.894a6.681,6.681,0,0,1-.714.042c-1.036,0-1.428-.42-1.428-1.4V14.574h2.044V13.58H65.695V11.7l-1.19.126v1.75H62.951v.994H64.5v4.1C64.5,20.3,65.289,21.042,66.983,21.042ZM69.615,21H70.8V13.58h-1.19Zm.6-8.414a.889.889,0,0,0,.924-.882.924.924,0,1,0-1.848,0A.888.888,0,0,0,70.217,12.586Zm6.384,8.54a3.706,3.706,0,0,0,3.864-3.836,3.864,3.864,0,0,0-7.728,0A3.713,3.713,0,0,0,76.6,21.126Zm0-1.12a2.585,2.585,0,0,1-2.646-2.716,2.654,2.654,0,1,1,5.306,0A2.6,2.6,0,0,1,76.6,20.006ZM82.4,21h1.19V16.912a2.268,2.268,0,0,1,2.436-2.366c1.386,0,2.114.812,2.114,2.38V21h1.19V16.884c0-2.2-1.148-3.416-3.094-3.416a3.246,3.246,0,0,0-2.646,1.2V13.58H82.4ZM-79.24,42h6.65V40.81h-3.374l-1.2.028,2.464-2.254c1.428-1.288,2.03-2.282,2.03-3.514a2.947,2.947,0,0,0-3.192-3.01,3.033,3.033,0,0,0-3.178,3.3h1.232a1.856,1.856,0,0,1,1.946-2.1,1.752,1.752,0,0,1,1.932,1.848c0,.854-.448,1.5-1.54,2.534L-79.24,41.16Zm7.868,0h6.65V40.81H-68.1l-1.2.028,2.464-2.254c1.428-1.288,2.03-2.282,2.03-3.514A2.947,2.947,0,0,0-68,32.06a3.033,3.033,0,0,0-3.178,3.3h1.232A1.856,1.856,0,0,1-68,33.264a1.752,1.752,0,0,1,1.932,1.848c0,.854-.448,1.5-1.54,2.534l-3.766,3.514Zm10.346,0H-60l5.46-9.8h-1.022Zm.056-5.362a2.249,2.249,0,0,0,2.324-2.282,2.252,2.252,0,0,0-2.324-2.3,2.241,2.241,0,0,0-2.31,2.3A2.237,2.237,0,0,0-60.97,36.638Zm0-.952a1.276,1.276,0,0,1-1.316-1.33,1.268,1.268,0,0,1,1.316-1.33,1.26,1.26,0,0,1,1.316,1.33A1.276,1.276,0,0,1-60.97,35.686Zm6.412,6.44a2.237,2.237,0,0,0,2.31-2.282,2.241,2.241,0,0,0-2.31-2.3,2.252,2.252,0,0,0-2.324,2.3A2.249,2.249,0,0,0-54.558,42.126Zm0-.952a1.276,1.276,0,0,1-1.316-1.33,1.268,1.268,0,0,1,1.316-1.33,1.26,1.26,0,0,1,1.316,1.33A1.268,1.268,0,0,1-54.558,41.174Zm11.214.952a3.641,3.641,0,0,0,3.6-2.352h-1.288a2.491,2.491,0,0,1-2.31,1.232,2.488,2.488,0,0,1-2.562-2.31h6.384a3.721,3.721,0,0,0-3.822-4.242,3.684,3.684,0,0,0-3.808,3.836A3.684,3.684,0,0,0-43.344,42.126Zm-2.534-4.452a2.476,2.476,0,0,1,2.534-2.1,2.57,2.57,0,0,1,2.576,2.1ZM-37.632,42h1.19V37.912a2.268,2.268,0,0,1,2.436-2.366c1.386,0,2.114.812,2.114,2.38V42h1.19V37.884c0-2.2-1.148-3.416-3.094-3.416a3.246,3.246,0,0,0-2.646,1.2V34.58h-1.19Zm12.978,0h1.19V37.968A2.312,2.312,0,0,1-21.07,35.56a3.316,3.316,0,0,1,.8.112V34.594a3.942,3.942,0,0,0-.938-.126,2.563,2.563,0,0,0-2.254,1.218V34.58h-1.19Zm8.96.126a3.641,3.641,0,0,0,3.6-2.352h-1.288a2.491,2.491,0,0,1-2.31,1.232,2.488,2.488,0,0,1-2.562-2.31h6.384a3.721,3.721,0,0,0-3.822-4.242A3.684,3.684,0,0,0-19.5,38.29,3.684,3.684,0,0,0-15.694,42.126Zm-2.534-4.452a2.476,2.476,0,0,1,2.534-2.1,2.57,2.57,0,0,1,2.576,2.1ZM-7.07,42.042c.252,0,.56-.014.854-.042V40.894a6.682,6.682,0,0,1-.714.042c-1.036,0-1.428-.42-1.428-1.4V35.574h2.044V34.58H-8.358V32.7l-1.19.126v1.75H-11.1v.994h1.554v4.1C-9.548,41.3-8.764,42.042-7.07,42.042Zm5.852.084A3.706,3.706,0,0,0,2.646,38.29a3.706,3.706,0,0,0-3.864-3.836A3.713,3.713,0,0,0-5.082,38.29,3.713,3.713,0,0,0-1.218,42.126Zm0-1.12A2.585,2.585,0,0,1-3.864,38.29a2.585,2.585,0,0,1,2.646-2.716,2.6,2.6,0,0,1,2.66,2.716A2.6,2.6,0,0,1-1.218,41.006Zm8.736,1.106a3.217,3.217,0,0,0,2.618-1.19V42h1.19V34.58h-1.19V38.7a2.224,2.224,0,0,1-2.408,2.338c-1.372,0-2.072-.812-2.072-2.338V34.58H4.466V38.7C4.466,40.866,5.572,42.112,7.518,42.112ZM13.706,42H14.9V37.968A2.312,2.312,0,0,1,17.29,35.56a3.316,3.316,0,0,1,.8.112V34.594a3.942,3.942,0,0,0-.938-.126A2.563,2.563,0,0,0,14.9,35.686V34.58h-1.19Zm12.894.126a3.664,3.664,0,0,0,2.772-1.176V42h1.19V34.58h-1.19v1.05a3.806,3.806,0,1,0-2.772,6.5Zm.14-1.12A2.717,2.717,0,1,1,29.4,38.29,2.577,2.577,0,0,1,26.74,41.006Zm8.932,1.106c1.75,0,3.136-.714,3.136-2.254,0-1.414-1.176-1.918-2.912-2.142-1.54-.2-2.016-.476-2.016-1.134s.644-1.05,1.764-1.05c1.008,0,1.666.434,1.736,1.148h1.2c-.084-1.386-1.176-2.24-2.912-2.24-1.68,0-3,.728-3,2.142,0,1.316.8,1.918,2.926,2.226,1.554.238,1.988.476,1.988,1.106,0,.728-.756,1.092-1.9,1.092-1.12,0-1.862-.476-1.918-1.316H32.55C32.62,41.2,33.81,42.112,35.672,42.112Zm7.63,0c1.75,0,3.136-.714,3.136-2.254,0-1.414-1.176-1.918-2.912-2.142-1.54-.2-2.016-.476-2.016-1.134s.644-1.05,1.764-1.05c1.008,0,1.666.434,1.736,1.148h1.2c-.084-1.386-1.176-2.24-2.912-2.24-1.68,0-3,.728-3,2.142,0,1.316.8,1.918,2.926,2.226,1.554.238,1.988.476,1.988,1.106,0,.728-.756,1.092-1.9,1.092-1.12,0-1.862-.476-1.918-1.316H40.18C40.25,41.2,41.44,42.112,43.3,42.112ZM48.314,42H49.5V34.58h-1.19Zm.6-8.414a.888.888,0,0,0,.924-.882.924.924,0,1,0-1.848,0A.888.888,0,0,0,48.916,33.586Zm6.328,8.54a3.641,3.641,0,0,0,3.6-2.352H57.554A2.653,2.653,0,0,1,52.682,38.7h6.384a3.721,3.721,0,0,0-3.822-4.242,3.836,3.836,0,0,0,0,7.672ZM52.71,37.674a2.476,2.476,0,0,1,2.534-2.1,2.57,2.57,0,0,1,2.576,2.1Zm11.158,4.368c.252,0,.56-.014.854-.042V40.894a6.682,6.682,0,0,1-.714.042c-1.036,0-1.428-.42-1.428-1.4V35.574h2.044V34.58H62.58V32.7l-1.19.126v1.75H59.836v.994H61.39v4.1C61.39,41.3,62.174,42.042,63.868,42.042Zm5.656,0c.252,0,.56-.014.854-.042V40.894a6.682,6.682,0,0,1-.714.042c-1.036,0-1.428-.42-1.428-1.4V35.574H70.28V34.58H68.236V32.7l-1.19.126v1.75H65.492v.994h1.554v4.1C67.046,41.3,67.83,42.042,69.524,42.042Zm5.8.084a3.641,3.641,0,0,0,3.6-2.352H77.63A2.653,2.653,0,0,1,72.758,38.7h6.384a3.721,3.721,0,0,0-3.822-4.242,3.836,3.836,0,0,0,0,7.672Zm-2.534-4.452a2.476,2.476,0,0,1,2.534-2.1,2.57,2.57,0,0,1,2.576,2.1Z" transform="translate(329 24)" fill="#29fdc1"/>
</svg>
