<svg id="Groupe_187" data-name="Groupe 187" xmlns="http://www.w3.org/2000/svg" width="664" height="423" viewBox="0 0 664 423">
  <g id="podium3" transform="translate(74 277.126)">
    <g id="Groupe_184" data-name="Groupe 184" transform="translate(40.542 -50)">
      <path id="Tracé_526" data-name="Tracé 526" d="M99.868,28.646c-.789,4.512-3.652,6.712-7.145,7.771s-7.652.974-10.973.919c-10.589,0-21.169-.117-31.751-.221-10.581.1-21.161.221-31.75.221-3.321.055-7.466.143-10.973-.919S.921,33.158.132,28.646c-.71-4.058,1.572-9.205,3.947-12.272a28.548,28.548,0,0,1,5.718-5.5l.1-.07a41.309,41.309,0,0,1,6.456-3.815l.129-.062c1.867-.893,3.769-1.665,5.644-2.344Q25.289,3.435,28.546,2.6l.137-.036A79.461,79.461,0,0,1,38.215.748l.161-.021A93.341,93.341,0,0,1,50,0q.915,0,1.83.021l.137,0A90,90,0,0,1,64.11,1.083l.168.026a74.433,74.433,0,0,1,13.6,3.474c.934.338,1.875.7,2.815,1.088l.15.062a46.422,46.422,0,0,1,8.33,4.413l.173.118a29.183,29.183,0,0,1,6.574,6.11c2.375,3.067,4.657,8.214,3.947,12.272" fill="#637771" stroke="#29fdc1" stroke-width="2"/>
      <path id="Tracé_527" data-name="Tracé 527" d="M699.075,31.461l-.014-.128-.016-.128-.035-.256c-.024-.172-.045-.344-.071-.517l-.084-.522-.043-.263-.049-.264-.1-.533-.114-.537a37.477,37.477,0,0,0-1.268-4.482c-.277-.777-.576-1.563-.909-2.354s-.7-1.611-1.106-2.425q-.269-.545-.557-1.094a79.461,79.461,0,0,0-9.532,1.816l-.138.036q.407.417.8.838.817.885,1.572,1.786c.5.594.969,1.194,1.423,1.8s.869,1.2,1.275,1.8a36.713,36.713,0,0,1,2.107,3.577l.225.442.213.442.106.22.1.22.2.439c.065.146.125.292.188.438l.093.218.046.109.043.109c.113.29.234.578.336.867A29.786,29.786,0,0,1,694.8,36.5l0,.015a2.17,2.17,0,0,0,2.187,1.363c1.22.016,2.238-.685,2.274-1.58a30.826,30.826,0,0,0-.087-3.829c-.023-.334-.066-.67-.1-1.009" transform="translate(-656.493 -17.21)" fill="#29fdc1"/>
      <path id="Tracé_528" data-name="Tracé 528" d="M246.176,177.391c-.055-.259-.129-.519-.2-.785l-.026-.1-.029-.1-.06-.2c-.041-.136-.079-.272-.124-.41l-.138-.417-.071-.212-.078-.213-.158-.432-.175-.439a30.508,30.508,0,0,0-1.87-3.8c-.4-.685-.832-1.387-1.308-2.1q-.15-.223-.3-.449a41.311,41.311,0,0,0-6.456,3.815l-.1.07q.309.28.608.56a39.677,39.677,0,0,1,2.836,2.956l.3.355.288.352.143.175.136.174.27.345c.088.114.17.229.256.342l.126.17.063.085.059.084c.156.224.319.446.462.668a22.036,22.036,0,0,1,1.475,2.534l0,.011a2.718,2.718,0,0,0,2.343.985c1.222.011,2.18-.493,2.142-1.143a17.541,17.541,0,0,0-.425-2.878" transform="translate(-225.29 -160.743)" fill="#29fdc1"/>
      <path id="Tracé_529" data-name="Tracé 529" d="M1944.99,140.568q-.086.419-.184.834l-.127.537-.139.533-.069.264-.075.263-.149.522c-.051.173-.108.346-.161.517l-.08.256-.04.128-.044.128c-.116.339-.224.675-.35,1.009a39.613,39.613,0,0,1-1.626,3.829,3.456,3.456,0,0,1-2.981,1.58c-1.087-.014-1.736-.6-1.577-1.363l0-.015a26.916,26.916,0,0,0,.481-3.392c.027-.289.035-.577.052-.867l.005-.109,0-.109,0-.218c0-.146.008-.292.008-.438l0-.439,0-.22-.008-.22-.015-.442-.027-.442a24.17,24.17,0,0,0-.506-3.577c-.137-.6-.289-1.2-.47-1.8-.126-.41-.26-.818-.406-1.225l.15.062a46.421,46.421,0,0,1,8.33,4.413" transform="translate(-1855.815 -130.423)" fill="#29fdc1"/>
      <path id="Tracé_530" data-name="Tracé 530" d="M1257.507,11.535l-.007.537-.019.533-.01.264-.016.263-.033.522c-.012.173-.03.346-.044.517l-.023.256-.011.128-.015.128c-.041.339-.073.675-.125,1.009a32.549,32.549,0,0,1-.769,3.829,2.661,2.661,0,0,1-2.627,1.58c-1.09-.014-1.87-.6-1.882-1.363v-.015a26.332,26.332,0,0,0-.278-3.392c-.038-.289-.094-.577-.142-.867l-.019-.109-.022-.109-.044-.218c-.03-.146-.057-.292-.089-.438l-.1-.439-.051-.22-.056-.22-.114-.442-.127-.442a28.255,28.255,0,0,0-1.306-3.577c-.272-.6-.558-1.2-.872-1.8s-.657-1.2-1.021-1.8-.759-1.2-1.173-1.786-.862-1.183-1.328-1.764q-.653-.818-1.369-1.612l.137,0a90,90,0,0,1,12.143,1.059q.106.361.2.719c.219.813.4,1.623.563,2.425s.279,1.578.382,2.354a33.4,33.4,0,0,1,.266,4.482" transform="translate(-1191.984 -0.473)" fill="#29fdc1"/>
    </g>
  </g>
  <rect id="Rectangle_109" data-name="Rectangle 109" width="664" height="423" fill="none"/>
</svg>
