<svg id="Groupe_187" data-name="Groupe 187" xmlns="http://www.w3.org/2000/svg" width="664" height="423" viewBox="0 0 664 423">
  <g id="podium3" transform="translate(74 277.126)">
    <path id="Tracé_411" data-name="Tracé 411" d="M0,0H115L105,72H10Z" transform="translate(34 61)" fill="#191a1a" stroke="#29fdc1" stroke-linecap="round" stroke-width="2"/>
    <path id="Tracé_413" data-name="Tracé 413" d="M0,0V38" transform="translate(91 81)" fill="none" stroke="#29fdc1" stroke-linecap="round" stroke-width="2"/>
    <rect id="Rectangle_108" data-name="Rectangle 108" width="47" height="66" transform="translate(65 63)" fill="#191a1a"/>
    <path id="Tracé_423" data-name="Tracé 423" d="M22.308,1.014c12.012,0,20.9-6.474,20.9-16.38a15.263,15.263,0,0,0-7.644-13.26c3.822-2.574,5.85-6.864,5.85-11.856,0-9.438-7.644-15.132-19.188-15.132-11.622,0-19.266,6.4-19.266,16.848H16.692c0-2.808,2.184-4.6,5.538-4.6,3.276,0,5.382,1.716,5.382,4.524,0,3.042-2.106,4.758-5.772,4.758H16.614V-22.23H21.84c4.134,0,6.552,1.95,6.552,5.226,0,3.2-2.34,5.148-6.162,5.148S16.146-13.806,16.146-17H1.872C1.872-6.162,10.218,1.014,22.308,1.014Z" transform="translate(68 124)" fill="#29fdc1"/>
    <path id="Tracé_414" data-name="Tracé 414" d="M0,0V38" transform="translate(118 81)" fill="none" stroke="#29fdc1" stroke-linecap="round" stroke-width="2"/>
    <path id="Tracé_412" data-name="Tracé 412" d="M0,0V38" transform="translate(64 81)" fill="none" stroke="#29fdc1" stroke-linecap="round" stroke-width="2"/>
  </g>
  <rect id="Rectangle_109" data-name="Rectangle 109" width="664" height="423" fill="none"/>
</svg>
