<svg id="Groupe_186" data-name="Groupe 186" xmlns="http://www.w3.org/2000/svg" width="664" height="423" viewBox="0 0 664 423">
  <rect id="bg" width="664" height="423" fill="none"/>
  <g id="podium1" transform="translate(239 197.126)">
    <g id="Groupe_181" data-name="Groupe 181" transform="translate(41.21 -97.345)">
      <path id="Tracé_429" data-name="Tracé 429" d="M68.8,69.1c-6.144.007-11.628,3.511-13.732,8.772a9.366,9.366,0,0,0-2.082-.241,10.551,10.551,0,0,0-8.868,5.344,11.862,11.862,0,0,0-3.393-.519c-7.641,0-13.835,7.3-13.835,16.313a19.182,19.182,0,0,0,.164,2.407c-3.537,1.526-4.974,5.157-4.977,9.6,25.29,27.64,87.46,15.424,96.631-.341a11.819,11.819,0,0,0-2.125-5.7c-.052-7.3-3.157-15.864-9.338-16.265-1.284-4.256-6.392-4.583-10.221-4.734-1.857-7-7.281-11.75-13.414-11.759a12.024,12.024,0,0,0-4.583.938A15.4,15.4,0,0,0,68.8,69.1" transform="translate(-20.652 -64.659)" fill="#637771"/>
      <path id="Tracé_505" data-name="Tracé 505" d="M581.463,711.525c-1.1.092-2.288-1.946-2.46-4.229-.144-1.906.423-3.3,1.349-3.308h.092l.241.209a2.668,2.668,0,0,0,.688.457l.171.083.142.2a7.423,7.423,0,0,1,1.049,4.486,5.7,5.7,0,0,1-.328,1.284,1.3,1.3,0,0,1-.631.708.733.733,0,0,1-.311.106" transform="translate(-545.219 -663.143)" fill="#fff"/>
      <path id="Tracé_508" data-name="Tracé 508" d="M1425.145,701.726c-1.026.9-3.58-.231-5.3-2.356-1.437-1.775-1.822-3.567-.916-4.261l.09-.069.38.029a3.125,3.125,0,0,0,.989-.057l.225-.044.28.1a8.472,8.472,0,0,1,4.082,3.653,6.872,6.872,0,0,1,.549,1.51,1.661,1.661,0,0,1-.142,1.165.952.952,0,0,1-.235.334" transform="translate(-1337.121 -654.623)" fill="#fff"/>
      <path id="Tracé_509" data-name="Tracé 509" d="M1129.124,699.036c1.251.51,1.51,3.392.537,5.982-.812,2.162-2.14,3.369-3.157,2.869l-.1-.05-.156-.362a3.421,3.421,0,0,0-.52-.88l-.144-.185-.051-.3a9.034,9.034,0,0,1,1.136-5.482,6.624,6.624,0,0,1,1.012-1.222,1.5,1.5,0,0,1,1.05-.424.881.881,0,0,1,.394.057" transform="translate(-1059.894 -658.501)" fill="#fff"/>
      <path id="Tracé_510" data-name="Tracé 510" d="M1536.382,714.535c-.186,1.331-2.918,2.191-5.669,1.785-2.3-.339-3.794-1.383-3.559-2.483l.023-.11.312-.229a3.241,3.241,0,0,0,.725-.693l.144-.18.281-.114a9.018,9.018,0,0,1,5.6-.043,6.916,6.916,0,0,1,1.434.732,1.575,1.575,0,0,1,.67.938.889.889,0,0,1,.042.4" transform="translate(-1438.819 -670.579)" fill="#fff"/>
      <g id="Groupe_182" data-name="Groupe 182" transform="translate(0.126 -0.004)">
        <path id="Tracé_430" data-name="Tracé 430" d="M988.57,195.612c.177-1.389-2.118-3.018-4.763-3.382-2.208-.3-3.863.325-3.935,1.495l-.007.117.228.318a3.442,3.442,0,0,1,.487.9l.086.221.229.193a8.129,8.129,0,0,0,5.152,1.613,6.192,6.192,0,0,0,1.515-.333,1.555,1.555,0,0,0,.864-.753.978.978,0,0,0,.143-.387" transform="translate(-923.187 -179.793)" fill="#29fdc1"/>
        <path id="Tracé_431" data-name="Tracé 431" d="M1097.041,312.331c-.633-1.236-3.409-1.164-5.761.148-1.964,1.1-2.957,2.613-2.361,3.607l.06.1.363.119a3.2,3.2,0,0,1,.9.434l.193.128.294.017a8.148,8.148,0,0,0,5.087-1.822,6.6,6.6,0,0,0,1.045-1.192,1.654,1.654,0,0,0,.281-1.137.989.989,0,0,0-.1-.4" transform="translate(-1025.738 -291.414)" fill="#29fdc1"/>
        <path id="Tracé_432" data-name="Tracé 432" d="M687.316,173.858c1.266-.468,1.613-3.34.721-5.961-.746-2.188-2.036-3.439-3.067-2.973l-.1.047-.167.356a3.407,3.407,0,0,1-.546.862l-.15.18-.06.3a9.046,9.046,0,0,0,.967,5.517,6.65,6.65,0,0,0,.974,1.255,1.5,1.5,0,0,0,1.037.459.879.879,0,0,0,.4-.044" transform="translate(-644.145 -154.224)" fill="#29fdc1"/>
        <path id="Tracé_433" data-name="Tracé 433" d="M560.781,271.273c.767-1.15-.557-3.695-2.748-5.281-1.829-1.325-3.577-1.556-4.154-.55l-.058.1.063.391a3.536,3.536,0,0,1,.038,1.032l-.021.238.119.281a8.54,8.54,0,0,0,3.871,3.894,6.214,6.214,0,0,0,1.493.428,1.487,1.487,0,0,0,1.1-.257.932.932,0,0,0,.3-.276" transform="translate(-521.783 -247.783)" fill="#29fdc1"/>
        <path id="Tracé_434" data-name="Tracé 434" d="M298.1,318.7c1.026.9,3.58-.231,5.3-2.356,1.436-1.775,1.822-3.567.916-4.261l-.09-.069-.38.029a3.125,3.125,0,0,1-.989-.057l-.225-.044-.279.1a8.472,8.472,0,0,0-4.082,3.652,6.876,6.876,0,0,0-.549,1.51,1.661,1.661,0,0,0,.142,1.165.952.952,0,0,0,.235.334" transform="translate(-280.514 -291.873)" fill="#29fdc1"/>
        <path id="Tracé_435" data-name="Tracé 435" d="M201.394,262.65c1.339.111,2.779-2.364,2.989-5.137.175-2.315-.514-4.005-1.638-4.018h-.112l-.292.254a3.24,3.24,0,0,1-.836.555l-.207.1-.173.249a9.018,9.018,0,0,0-1.274,5.449,6.922,6.922,0,0,0,.4,1.56,1.574,1.574,0,0,0,.767.86.888.888,0,0,0,.378.128" transform="translate(-187.091 -237.187)" fill="#29fdc1"/>
        <path id="Tracé_436" data-name="Tracé 436" d="M432.215,256.766c-1.251.51-1.51,3.392-.537,5.982.812,2.162,2.14,3.369,3.157,2.869l.1-.05.156-.362a3.421,3.421,0,0,1,.519-.88l.144-.185.051-.3a9.033,9.033,0,0,0-1.136-5.482,6.628,6.628,0,0,0-1.012-1.222,1.5,1.5,0,0,0-1.05-.424.882.882,0,0,0-.394.057" transform="translate(-406.112 -240.196)" fill="#29fdc1"/>
        <path id="Tracé_437" data-name="Tracé 437" d="M473.669,106.912c-.732,1.175.67,3.674,2.909,5.187,1.869,1.263,3.623,1.436,4.169.412l.055-.1-.075-.389a3.536,3.536,0,0,1-.07-1.031l.014-.238-.128-.277a8.507,8.507,0,0,0-3.988-3.763,6.2,6.2,0,0,0-1.506-.378,1.49,1.49,0,0,0-1.091.294.933.933,0,0,0-.288.286" transform="translate(-446.104 -99.492)" fill="#29fdc1"/>
        <path id="Tracé_438" data-name="Tracé 438" d="M1476.856,364.182c.177-1.389-2.118-3.018-4.763-3.382-2.208-.3-3.863.325-3.934,1.495l-.007.117.228.318a3.432,3.432,0,0,1,.487.9l.086.221.229.193a8.129,8.129,0,0,0,5.152,1.613,6.2,6.2,0,0,0,1.515-.333,1.556,1.556,0,0,0,.864-.753.982.982,0,0,0,.143-.387" transform="translate(-1383.761 -337.52)" fill="#29fdc1"/>
        <path id="Tracé_439" data-name="Tracé 439" d="M1482.108,457.144c-.633-1.236-3.409-1.164-5.76.148-1.964,1.1-2.957,2.613-2.361,3.607l.059.1.363.119a3.193,3.193,0,0,1,.9.434l.193.128.294.017a8.147,8.147,0,0,0,5.087-1.822,6.6,6.6,0,0,0,1.045-1.192,1.654,1.654,0,0,0,.281-1.137.985.985,0,0,0-.1-.4" transform="translate(-1389.061 -426.911)" fill="#29fdc1"/>
        <path id="Tracé_440" data-name="Tracé 440" d="M1376.288,289.7c1.169.674,3.6-.9,5.043-3.26,1.205-1.973,1.341-3.764.323-4.259l-.1-.049-.381.1a3.406,3.406,0,0,1-1.012.132h-.235l-.27.146a9.046,9.046,0,0,0-3.622,4.273,6.655,6.655,0,0,0-.342,1.552,1.5,1.5,0,0,0,.31,1.091.877.877,0,0,0,.287.276" transform="translate(-1297.249 -263.981)" fill="#29fdc1"/>
        <path id="Tracé_441" data-name="Tracé 441" d="M1046.85,73.8c.767-1.15-.557-3.695-2.748-5.281-1.829-1.325-3.577-1.556-4.154-.55l-.058.1.063.391a3.532,3.532,0,0,1,.038,1.032l-.021.238.119.281a8.54,8.54,0,0,0,3.871,3.894,6.217,6.217,0,0,0,1.494.428,1.487,1.487,0,0,0,1.1-.257.932.932,0,0,0,.3-.276" transform="translate(-979.633 -63.013)" fill="#29fdc1"/>
        <path id="Tracé_442" data-name="Tracé 442" d="M859.919,88.314c1.026.9,3.58-.231,5.3-2.356,1.437-1.775,1.822-3.567.916-4.261l-.09-.069-.38.029a3.125,3.125,0,0,1-.989-.057l-.225-.044-.28.1A8.473,8.473,0,0,0,860.09,85.3a6.88,6.88,0,0,0-.549,1.51,1.662,1.662,0,0,0,.142,1.165.953.953,0,0,0,.235.334" transform="translate(-809.715 -76.309)" fill="#29fdc1"/>
        <path id="Tracé_443" data-name="Tracé 443" d="M681.972,52.577c.785-1.135-.616-3.537-2.907-4.985-1.913-1.209-3.729-1.369-4.319-.379l-.059.1.07.375a3.153,3.153,0,0,1,.05.993l-.019.23.126.266a8.269,8.269,0,0,0,4.059,3.609,6.733,6.733,0,0,0,1.555.358,1.664,1.664,0,0,0,1.138-.287.975.975,0,0,0,.305-.276" transform="translate(-635.645 -43.57)" fill="#29fdc1"/>
        <path id="Tracé_444" data-name="Tracé 444" d="M861.47.053c-1.251.51-1.51,3.392-.537,5.982.812,2.162,2.14,3.369,3.157,2.869l.1-.05.156-.362a3.424,3.424,0,0,1,.519-.88l.144-.185.051-.3a9.033,9.033,0,0,0-1.136-5.482A6.627,6.627,0,0,0,862.914.421,1.5,1.5,0,0,0,861.864,0a.882.882,0,0,0-.394.057" transform="translate(-810.384 0.003)" fill="#29fdc1"/>
        <path id="Tracé_445" data-name="Tracé 445" d="M915.549,271.472c-.731,1.175.67,3.674,2.909,5.187,1.869,1.263,3.623,1.436,4.169.412l.055-.1-.075-.389a3.534,3.534,0,0,1-.07-1.031l.014-.238-.128-.277a8.507,8.507,0,0,0-3.988-3.763,6.2,6.2,0,0,0-1.506-.378,1.49,1.49,0,0,0-1.09.294.934.934,0,0,0-.288.286" transform="translate(-862.335 -253.466)" fill="#29fdc1"/>
        <path id="Tracé_446" data-name="Tracé 446" d="M466.093,593.81c.767-1.15-.557-3.695-2.748-5.281-1.829-1.325-3.577-1.556-4.154-.551l-.058.1.063.391a3.536,3.536,0,0,1,.038,1.032l-.021.238.119.281a8.541,8.541,0,0,0,3.871,3.894,6.22,6.22,0,0,0,1.493.428,1.487,1.487,0,0,0,1.1-.257.931.931,0,0,0,.3-.276" transform="translate(-432.592 -549.573)" fill="#29fdc1"/>
        <path id="Tracé_447" data-name="Tracé 447" d="M234.974,575.411c1.026.9,3.58-.231,5.3-2.356,1.437-1.775,1.822-3.567.916-4.261l-.09-.069-.38.029a3.125,3.125,0,0,1-.989-.057l-.225-.044-.279.1a8.473,8.473,0,0,0-4.082,3.653,6.877,6.877,0,0,0-.549,1.51,1.661,1.661,0,0,0,.142,1.165.952.952,0,0,0,.235.334" transform="translate(-219.596 -532.073)" fill="#29fdc1"/>
        <path id="Tracé_448" data-name="Tracé 448" d="M25.037,545.693c1.339.111,2.779-2.364,2.989-5.137.175-2.315-.514-4.005-1.638-4.018h-.112l-.292.254a3.239,3.239,0,0,1-.836.555l-.207.1-.173.249a9.017,9.017,0,0,0-1.274,5.449,6.923,6.923,0,0,0,.4,1.561,1.574,1.574,0,0,0,.767.86.887.887,0,0,0,.378.128" transform="translate(-22.078 -502.023)" fill="#29fdc1"/>
        <path id="Tracé_449" data-name="Tracé 449" d="M186.025,427.908c-1.251.51-1.51,3.392-.537,5.982.812,2.162,2.14,3.369,3.157,2.869l.1-.05.156-.362a3.424,3.424,0,0,1,.52-.88l.144-.185.051-.3a9.033,9.033,0,0,0-1.136-5.482,6.624,6.624,0,0,0-1.012-1.222,1.5,1.5,0,0,0-1.05-.424.882.882,0,0,0-.394.057" transform="translate(-173.128 -400.33)" fill="#29fdc1"/>
        <path id="Tracé_450" data-name="Tracé 450" d="M385.293,396.537c-.732,1.175.67,3.674,2.909,5.187,1.869,1.263,3.623,1.436,4.169.412l.055-.1-.075-.389a3.535,3.535,0,0,1-.07-1.031l.014-.238-.128-.277a8.507,8.507,0,0,0-3.988-3.763,6.2,6.2,0,0,0-1.506-.378,1.489,1.489,0,0,0-1.09.294.933.933,0,0,0-.288.286" transform="translate(-362.858 -370.486)" fill="#29fdc1"/>
        <path id="Tracé_451" data-name="Tracé 451" d="M774.876,323.932c-.767-1.15.557-3.695,2.748-5.281,1.829-1.325,3.577-1.556,4.154-.551l.058.1-.063.391a3.536,3.536,0,0,0-.038,1.032l.021.238-.119.281a8.54,8.54,0,0,1-3.871,3.894,6.216,6.216,0,0,1-1.493.428,1.487,1.487,0,0,1-1.1-.257.93.93,0,0,1-.3-.276" transform="translate(-729.797 -297.055)" fill="#29fdc1"/>
        <path id="Tracé_452" data-name="Tracé 452" d="M1051.037,463.51c-1.026.9-3.58-.231-5.3-2.356-1.437-1.775-1.822-3.567-.916-4.261l.09-.069.38.029a3.125,3.125,0,0,0,.989-.057l.225-.044.279.1a8.473,8.473,0,0,1,4.082,3.652,6.88,6.88,0,0,1,.549,1.51,1.661,1.661,0,0,1-.142,1.165.951.951,0,0,1-.235.334" transform="translate(-983.814 -427.37)" fill="#29fdc1"/>
        <path id="Tracé_453" data-name="Tracé 453" d="M1000.526,523.182c-1.1.092-2.288-1.946-2.46-4.229-.144-1.906.423-3.3,1.349-3.308h.092l.241.209a2.667,2.667,0,0,0,.688.457l.171.083.142.2a7.422,7.422,0,0,1,1.049,4.486,5.7,5.7,0,0,1-.328,1.284,1.3,1.3,0,0,1-.631.708.732.732,0,0,1-.311.106" transform="translate(-940.014 -482.475)" fill="#29fdc1"/>
        <path id="Tracé_454" data-name="Tracé 454" d="M811.83,572.721c1.251.51,1.51,3.392.537,5.982-.812,2.162-2.14,3.369-3.157,2.869l-.1-.05-.156-.362a3.422,3.422,0,0,0-.519-.88l-.144-.185-.051-.3a9.033,9.033,0,0,1,1.136-5.482,6.624,6.624,0,0,1,1.012-1.222,1.5,1.5,0,0,1,1.05-.424.882.882,0,0,1,.394.057" transform="translate(-761.242 -535.827)" fill="#29fdc1"/>
        <path id="Tracé_455" data-name="Tracé 455" d="M556.83,429.449c.732,1.175-.67,3.674-2.909,5.187-1.869,1.263-3.623,1.436-4.169.412l-.055-.1.075-.389a3.536,3.536,0,0,0,.07-1.031l-.014-.238.128-.277a8.507,8.507,0,0,1,3.988-3.763,6.206,6.206,0,0,1,1.506-.378,1.49,1.49,0,0,1,1.091.294.933.933,0,0,1,.288.286" transform="translate(-517.904 -401.281)" fill="#29fdc1"/>
        <path id="Tracé_456" data-name="Tracé 456" d="M1251.408,485.62c.177-1.389-2.118-3.018-4.763-3.382-2.208-.3-3.863.325-3.934,1.495l-.007.117.228.318a3.434,3.434,0,0,1,.488.9l.086.221.229.193a8.129,8.129,0,0,0,5.152,1.613,6.191,6.191,0,0,0,1.515-.333,1.555,1.555,0,0,0,.864-.753.98.98,0,0,0,.143-.387" transform="translate(-1170.792 -451.146)" fill="#29fdc1"/>
        <path id="Tracé_457" data-name="Tracé 457" d="M1158.781,535.75c-.633-1.236-3.409-1.164-5.761.148-1.964,1.1-2.957,2.613-2.361,3.607l.06.1.363.119a3.2,3.2,0,0,1,.9.434l.193.128.294.017a8.148,8.148,0,0,0,5.087-1.822,6.6,6.6,0,0,0,1.045-1.192,1.653,1.653,0,0,0,.281-1.137.987.987,0,0,0-.1-.4" transform="translate(-1083.898 -500.461)" fill="#29fdc1"/>
        <path id="Tracé_458" data-name="Tracé 458" d="M1537.764,570.808c.177-1.389-2.118-3.018-4.763-3.382-2.208-.3-3.863.325-3.935,1.495l-.007.117.228.318a3.437,3.437,0,0,1,.488.9l.086.221.229.193a8.13,8.13,0,0,0,5.152,1.613,6.191,6.191,0,0,0,1.515-.333,1.555,1.555,0,0,0,.864-.753.978.978,0,0,0,.143-.387" transform="translate(-1440.751 -530.855)" fill="#29fdc1"/>
        <path id="Tracé_459" data-name="Tracé 459" d="M1339.991,251.132c1.386.081,2.731-2.348,2.792-5.041.051-2.248-.754-3.873-1.912-3.863h-.116l-.287.252a3.194,3.194,0,0,1-.83.555l-.208.1-.164.245a8.146,8.146,0,0,0-1.008,5.309,6.6,6.6,0,0,0,.5,1.5,1.654,1.654,0,0,0,.838.818.985.985,0,0,0,.4.117" transform="translate(-1260.391 -226.647)" fill="#29fdc1"/>
        <path id="Tracé_460" data-name="Tracé 460" d="M1406.95,529.308c1.266-.468,1.614-3.34.721-5.961-.746-2.188-2.036-3.439-3.067-2.973l-.1.046-.167.356a3.408,3.408,0,0,1-.546.862l-.15.18-.061.3a9.045,9.045,0,0,0,.967,5.517,6.642,6.642,0,0,0,.974,1.255,1.5,1.5,0,0,0,1.036.459.88.88,0,0,0,.4-.044" transform="translate(-1323.237 -486.81)" fill="#29fdc1"/>
        <path id="Tracé_461" data-name="Tracé 461" d="M905.848,397.686c-1.026.9-3.58-.231-5.3-2.356-1.437-1.775-1.822-3.567-.916-4.261l.09-.069.38.029a3.125,3.125,0,0,0,.989-.057l.225-.044.28.1a8.472,8.472,0,0,1,4.082,3.653,6.874,6.874,0,0,1,.549,1.51,1.662,1.662,0,0,1-.142,1.165.954.954,0,0,1-.235.334" transform="translate(-847.054 -365.78)" fill="#29fdc1"/>
        <path id="Tracé_462" data-name="Tracé 462" d="M655.438,627.535c-.115-1.4,2.25-2.913,4.908-3.148,2.219-.2,3.844.511,3.864,1.683l0,.117-.242.306a3.418,3.418,0,0,0-.527.875l-.1.217-.237.182a8.1,8.1,0,0,1-5.218,1.362,6.209,6.209,0,0,1-1.5-.406,1.564,1.564,0,0,1-.83-.794.982.982,0,0,1-.125-.393" transform="translate(-617.562 -584.192)" fill="#29fdc1"/>
        <path id="Tracé_463" data-name="Tracé 463" d="M604.227,221.941c-.177-1.389,2.118-3.018,4.763-3.382,2.208-.3,3.863.325,3.935,1.495l.007.117-.228.318a3.437,3.437,0,0,0-.487.9l-.086.221-.229.193a8.129,8.129,0,0,1-5.152,1.613,6.192,6.192,0,0,1-1.515-.333,1.555,1.555,0,0,1-.864-.753.981.981,0,0,1-.143-.387" transform="translate(-569.311 -204.429)" fill="#29fdc1"/>
        <path id="Tracé_464" data-name="Tracé 464" d="M500.211,338.66c.633-1.236,3.409-1.164,5.761.148,1.964,1.1,2.957,2.613,2.361,3.607l-.059.1-.363.119a3.19,3.19,0,0,0-.9.434l-.193.127-.294.017a8.147,8.147,0,0,1-5.087-1.822,6.6,6.6,0,0,1-1.045-1.192,1.655,1.655,0,0,1-.281-1.137.988.988,0,0,1,.1-.4" transform="translate(-471.215 -316.049)" fill="#29fdc1"/>
        <path id="Tracé_465" data-name="Tracé 465" d="M963.839,200.188c-1.266-.468-1.613-3.34-.721-5.961.746-2.188,2.036-3.439,3.067-2.973l.1.046.167.356a3.406,3.406,0,0,0,.546.862l.15.18.06.3a9.046,9.046,0,0,1-.967,5.517,6.647,6.647,0,0,1-.974,1.255,1.5,1.5,0,0,1-1.037.459.88.88,0,0,1-.4-.044" transform="translate(-906.706 -178.86)" fill="#29fdc1"/>
        <path id="Tracé_466" data-name="Tracé 466" d="M1040.329,304.289c-.76,1.154-3.62.926-5.935-.474-1.932-1.169-2.826-2.688-2.125-3.612l.07-.092.385-.094a3.539,3.539,0,0,0,.966-.367l.211-.112h.305a8.539,8.539,0,0,1,5.094,2.048,6.22,6.22,0,0,1,.976,1.209,1.488,1.488,0,0,1,.191,1.112.933.933,0,0,1-.138.381" transform="translate(-972.314 -280.271)" fill="#29fdc1"/>
        <path id="Tracé_467" data-name="Tracé 467" d="M1254.326,329.093c-1.026.9-3.58-.231-5.3-2.356-1.436-1.775-1.822-3.567-.916-4.261l.09-.069.38.029a3.127,3.127,0,0,0,.989-.057l.225-.044.28.1a8.474,8.474,0,0,1,4.082,3.653,6.879,6.879,0,0,1,.549,1.51,1.661,1.661,0,0,1-.142,1.165.952.952,0,0,1-.235.334" transform="translate(-1175.3 -301.6)" fill="#29fdc1"/>
        <path id="Tracé_468" data-name="Tracé 468" d="M1574.58,440.3c-1.339.111-2.779-2.364-2.989-5.137-.175-2.315.514-4.005,1.638-4.018h.112l.292.254a3.24,3.24,0,0,0,.836.555l.207.1.173.249a9.018,9.018,0,0,1,1.274,5.449,6.935,6.935,0,0,1-.4,1.56,1.574,1.574,0,0,1-.767.86.887.887,0,0,1-.378.128" transform="translate(-1480.522 -403.407)" fill="#29fdc1"/>
        <path id="Tracé_469" data-name="Tracé 469" d="M1415.488,372.9c1.251.51,1.51,3.392.537,5.982-.812,2.162-2.14,3.369-3.157,2.869l-.1-.05-.156-.362a3.42,3.42,0,0,0-.52-.88l-.144-.185-.051-.3a9.033,9.033,0,0,1,1.136-5.482,6.631,6.631,0,0,1,1.012-1.222,1.5,1.5,0,0,1,1.05-.424.881.881,0,0,1,.394.057" transform="translate(-1331.053 -348.855)" fill="#29fdc1"/>
        <path id="Tracé_470" data-name="Tracé 470" d="M1139.3,133.241c.731,1.175-.67,3.674-2.909,5.187-1.869,1.263-3.623,1.436-4.169.412l-.054-.1.075-.389a3.537,3.537,0,0,0,.07-1.031l-.013-.238.127-.277a8.507,8.507,0,0,1,3.988-3.763,6.2,6.2,0,0,1,1.506-.378,1.49,1.49,0,0,1,1.091.294.935.935,0,0,1,.288.286" transform="translate(-1066.564 -124.127)" fill="#29fdc1"/>
        <path id="Tracé_471" data-name="Tracé 471" d="M162.346,340.425c-.177-1.389,2.118-3.018,4.763-3.382,2.208-.3,3.863.325,3.935,1.495l.007.117-.228.318a3.438,3.438,0,0,0-.487.9l-.086.221-.229.193a8.129,8.129,0,0,1-5.152,1.613,6.192,6.192,0,0,1-1.515-.333,1.555,1.555,0,0,1-.864-.753.98.98,0,0,1-.143-.387" transform="translate(-152.02 -315.291)" fill="#29fdc1"/>
        <path id="Tracé_472" data-name="Tracé 472" d="M115.144,483.473c.633-1.236,3.409-1.164,5.761.148,1.964,1.1,2.957,2.613,2.361,3.607l-.06.1-.363.119a3.2,3.2,0,0,0-.9.434l-.193.128-.294.017a8.148,8.148,0,0,1-5.087-1.822,6.6,6.6,0,0,1-1.045-1.192,1.654,1.654,0,0,1-.281-1.137.987.987,0,0,1,.1-.4" transform="translate(-107.756 -451.546)" fill="#29fdc1"/>
        <path id="Tracé_473" data-name="Tracé 473" d="M332.582,298.924c-1.266-.468-1.613-3.34-.721-5.961.746-2.188,2.036-3.439,3.067-2.973l.1.046.167.356a3.411,3.411,0,0,0,.546.862l.15.18.061.3a9.046,9.046,0,0,1-.967,5.517,6.646,6.646,0,0,1-.974,1.255,1.5,1.5,0,0,1-1.037.459.879.879,0,0,1-.4-.044" transform="translate(-312.191 -271.245)" fill="#29fdc1"/>
        <path id="Tracé_474" data-name="Tracé 474" d="M580.9,80.383c-.767-1.15.557-3.695,2.748-5.281,1.829-1.325,3.577-1.556,4.154-.55l.058.1-.063.391a3.536,3.536,0,0,0-.038,1.032l.021.238-.119.281a8.541,8.541,0,0,1-3.871,3.894,6.216,6.216,0,0,1-1.493.428,1.487,1.487,0,0,1-1.1-.257.931.931,0,0,1-.3-.276" transform="translate(-547.082 -69.172)" fill="#29fdc1"/>
        <path id="Tracé_475" data-name="Tracé 475" d="M756.059,114.643c-1.026.9-3.58-.231-5.3-2.356-1.436-1.775-1.822-3.567-.916-4.261l.09-.069.38.029a3.126,3.126,0,0,0,.989-.057l.225-.044.28.1a8.473,8.473,0,0,1,4.082,3.652,6.877,6.877,0,0,1,.549,1.51,1.661,1.661,0,0,1-.142,1.165.952.952,0,0,1-.235.334" transform="translate(-705.962 -100.944)" fill="#29fdc1"/>
        <path id="Tracé_476" data-name="Tracé 476" d="M999.84,101.752c-1.339.111-2.779-2.364-2.989-5.137-.175-2.315.514-4.005,1.638-4.018h.112l.292.254a3.24,3.24,0,0,0,.836.555l.207.1.173.249a9.018,9.018,0,0,1,1.274,5.449,6.923,6.923,0,0,1-.4,1.56,1.574,1.574,0,0,1-.767.86.888.888,0,0,1-.378.128" transform="translate(-938.913 -86.638)" fill="#29fdc1"/>
        <path id="Tracé_477" data-name="Tracé 477" d="M851.287,116.745c1.251.51,1.51,3.392.537,5.982-.812,2.162-2.14,3.369-3.157,2.869l-.1-.05-.156-.362a3.421,3.421,0,0,0-.52-.88l-.144-.185-.051-.3a9.033,9.033,0,0,1,1.136-5.482,6.627,6.627,0,0,1,1.012-1.222,1.5,1.5,0,0,1,1.05-.424.882.882,0,0,1,.394.057" transform="translate(-798.402 -109.182)" fill="#29fdc1"/>
        <path id="Tracé_478" data-name="Tracé 478" d="M659.544,337.3c.732,1.175-.67,3.674-2.909,5.187-1.869,1.263-3.623,1.436-4.169.412l-.055-.1.075-.389a3.535,3.535,0,0,0,.07-1.031l-.014-.238.128-.277a8.507,8.507,0,0,1,3.988-3.763,6.2,6.2,0,0,1,1.506-.378,1.489,1.489,0,0,1,1.09.294.934.934,0,0,1,.288.286" transform="translate(-614.656 -315.056)" fill="#29fdc1"/>
        <path id="Tracé_479" data-name="Tracé 479" d="M1235.6,660.093c-.767-1.15.557-3.695,2.748-5.281,1.829-1.324,3.577-1.556,4.154-.55l.058.1-.063.391a3.537,3.537,0,0,0-.038,1.032l.021.238-.119.281a8.539,8.539,0,0,1-3.871,3.894,6.216,6.216,0,0,1-1.493.428,1.486,1.486,0,0,1-1.1-.257.931.931,0,0,1-.3-.276" transform="translate(-1163.771 -611.592)" fill="#29fdc1"/>
        <path id="Tracé_480" data-name="Tracé 480" d="M1381,601.741c-1.026.9-3.58-.231-5.3-2.356-1.437-1.775-1.822-3.567-.916-4.261l.09-.069.38.029a3.124,3.124,0,0,0,.989-.057l.225-.044.279.1a8.473,8.473,0,0,1,4.082,3.652,6.88,6.88,0,0,1,.549,1.51,1.661,1.661,0,0,1-.142,1.165.953.953,0,0,1-.235.334" transform="translate(-1295.946 -556.709)" fill="#29fdc1"/>
        <path id="Tracé_481" data-name="Tracé 481" d="M1627.717,572.022c-1.339.111-2.779-2.364-2.989-5.137-.175-2.315.514-4.005,1.638-4.018h.112l.292.254a3.239,3.239,0,0,0,.836.555l.207.1.173.249a9.019,9.019,0,0,1,1.274,5.449,6.915,6.915,0,0,1-.4,1.56,1.575,1.575,0,0,1-.767.86.887.887,0,0,1-.378.128" transform="translate(-1530.241 -526.658)" fill="#29fdc1"/>
        <path id="Tracé_482" data-name="Tracé 482" d="M1193,221.164c1.251.51,1.51,3.392.537,5.982-.812,2.162-2.14,3.369-3.157,2.869l-.1-.05-.156-.362a3.417,3.417,0,0,0-.52-.88l-.144-.185-.051-.3a9.033,9.033,0,0,1,1.136-5.482,6.626,6.626,0,0,1,1.012-1.222,1.5,1.5,0,0,1,1.05-.424.882.882,0,0,1,.394.057" transform="translate(-1120.224 -206.884)" fill="#29fdc1"/>
        <path id="Tracé_483" data-name="Tracé 483" d="M1154.428,402.89c.732,1.175-.67,3.674-2.909,5.187-1.869,1.263-3.623,1.436-4.169.412l-.055-.1.075-.389a3.533,3.533,0,0,0,.07-1.031l-.014-.238.128-.277a8.506,8.506,0,0,1,3.988-3.763,6.2,6.2,0,0,1,1.506-.378,1.489,1.489,0,0,1,1.09.294.933.933,0,0,1,.288.286" transform="translate(-1080.814 -376.431)" fill="#29fdc1"/>
        <path id="Tracé_484" data-name="Tracé 484" d="M564.941,489.84c1.026.9,3.58-.231,5.3-2.356,1.437-1.775,1.822-3.567.916-4.261l-.09-.069-.38.029a3.123,3.123,0,0,1-.989-.057l-.225-.044-.28.1a8.473,8.473,0,0,0-4.082,3.652,6.872,6.872,0,0,0-.549,1.51,1.661,1.661,0,0,0,.142,1.165.952.952,0,0,0,.235.334" transform="translate(-531.863 -452.006)" fill="#29fdc1"/>
        <path id="Tracé_485" data-name="Tracé 485" d="M651.694,572.022c1.339.111,2.779-2.364,2.989-5.137.175-2.315-.514-4.005-1.638-4.018h-.112l-.292.254a3.24,3.24,0,0,1-.836.555l-.207.1-.173.249a9.017,9.017,0,0,0-1.274,5.449,6.921,6.921,0,0,0,.4,1.56,1.575,1.575,0,0,0,.767.86.888.888,0,0,0,.378.128" transform="translate(-612.388 -526.658)" fill="#29fdc1"/>
        <path id="Tracé_486" data-name="Tracé 486" d="M894.746,487.15c-1.251.51-1.51,3.392-.537,5.982.812,2.162,2.14,3.369,3.157,2.869l.1-.05.156-.362a3.421,3.421,0,0,1,.52-.88l.144-.185.051-.3a9.033,9.033,0,0,0-1.136-5.482,6.629,6.629,0,0,0-1.012-1.222,1.5,1.5,0,0,0-1.05-.424.881.881,0,0,0-.394.057" transform="translate(-841.724 -455.761)" fill="#29fdc1"/>
        <path id="Tracé_487" data-name="Tracé 487" d="M1490.658,608.672c-.6,1.252,1.056,3.574,3.441,4.819,1.991,1.039,3.753,1.009,4.187-.072l.043-.108-.116-.378a3.53,3.53,0,0,1-.179-1.016l-.012-.238-.156-.26a8.4,8.4,0,0,0-4.364-3.28,6.17,6.17,0,0,0-1.536-.2,1.5,1.5,0,0,0-1.053.418.947.947,0,0,0-.256.317" transform="translate(-1404.704 -568.827)" fill="#29fdc1"/>
        <path id="Tracé_488" data-name="Tracé 488" d="M358.036,478.655c-.177-1.389,2.118-3.018,4.763-3.382,2.208-.3,3.863.325,3.935,1.495l.007.117-.228.318a3.434,3.434,0,0,0-.487.9l-.086.221-.229.193a8.128,8.128,0,0,1-5.152,1.613,6.193,6.193,0,0,1-1.515-.333,1.556,1.556,0,0,1-.864-.753.98.98,0,0,1-.143-.387" transform="translate(-337.389 -444.63)" fill="#29fdc1"/>
        <path id="Tracé_489" data-name="Tracé 489" d="M411.835,595.374c.633-1.236,3.409-1.164,5.761.148,1.964,1.1,2.957,2.613,2.361,3.607l-.06.1-.363.119a3.2,3.2,0,0,0-.9.434l-.193.128-.294.017a8.148,8.148,0,0,1-5.087-1.822,6.606,6.606,0,0,1-1.045-1.192,1.654,1.654,0,0,1-.281-1.137.987.987,0,0,1,.1-.4" transform="translate(-387.963 -556.249)" fill="#29fdc1"/>
        <path id="Tracé_490" data-name="Tracé 490" d="M92.908,551.061c-.177-1.389,2.118-3.018,4.763-3.382,2.208-.3,3.863.325,3.935,1.495l.007.117-.228.318a3.436,3.436,0,0,0-.487.9l-.086.221-.229.193a8.129,8.129,0,0,1-5.152,1.613,6.194,6.194,0,0,1-1.515-.333,1.556,1.556,0,0,1-.864-.753.98.98,0,0,1-.143-.387" transform="translate(-87.049 -512.378)" fill="#29fdc1"/>
        <path id="Tracé_491" data-name="Tracé 491" d="M373.959,174.1c.633-1.236,3.409-1.164,5.761.148,1.964,1.1,2.957,2.613,2.361,3.607l-.06.1-.363.119a3.2,3.2,0,0,0-.9.434l-.193.128-.294.017a8.148,8.148,0,0,1-5.087-1.822,6.6,6.6,0,0,1-1.045-1.192,1.654,1.654,0,0,1-.281-1.137.985.985,0,0,1,.1-.4" transform="translate(-352.283 -162.075)" fill="#29fdc1"/>
        <path id="Tracé_492" data-name="Tracé 492" d="M244.206,555.637c-1.266-.468-1.613-3.34-.721-5.962.746-2.188,2.036-3.439,3.067-2.973l.1.047.167.356a3.41,3.41,0,0,0,.546.862l.15.18.061.3a9.046,9.046,0,0,1-.967,5.517,6.648,6.648,0,0,1-.974,1.255,1.5,1.5,0,0,1-1.037.459.88.88,0,0,1-.4-.044" transform="translate(-227.483 -511.445)" fill="#29fdc1"/>
        <path id="Tracé_493" data-name="Tracé 493" d="M741.693,470.093c1.026.9,3.58-.231,5.3-2.356,1.436-1.775,1.822-3.567.916-4.261l-.09-.069-.38.029a3.123,3.123,0,0,1-.989-.057l-.225-.044-.279.1a8.472,8.472,0,0,0-4.082,3.653,6.873,6.873,0,0,0-.549,1.51,1.661,1.661,0,0,0,.142,1.165.953.953,0,0,0,.235.334" transform="translate(-698.353 -433.53)" fill="#29fdc1"/>
        <path id="Tracé_494" data-name="Tracé 494" d="M942.745,660.447c.115-1.4-2.25-2.913-4.908-3.148-2.219-.2-3.844.511-3.864,1.683l0,.117.242.306a3.421,3.421,0,0,1,.527.875l.1.217.237.182a8.1,8.1,0,0,0,5.218,1.362,6.209,6.209,0,0,0,1.5-.406,1.564,1.564,0,0,0,.83-.794.982.982,0,0,0,.125-.393" transform="translate(-879.956 -614.987)" fill="#29fdc1"/>
        <path id="Tracé_495" data-name="Tracé 495" d="M617.173,159.487c1.339-.112,2.384-2.794,2.169-5.567-.18-2.315-1.117-3.87-2.229-3.7l-.111.017-.25.3a3.3,3.3,0,0,1-.741.686l-.189.134-.133.274a9.071,9.071,0,0,0-.429,5.591,6.837,6.837,0,0,0,.631,1.475,1.545,1.545,0,0,0,.888.722.882.882,0,0,0,.393.064" transform="translate(-579.317 -140.548)" fill="#29fdc1"/>
        <path id="Tracé_496" data-name="Tracé 496" d="M538.951,98.5c1.025-.9.375-3.72-1.35-5.841-1.44-1.771-3.071-2.465-3.878-1.648l-.081.082-.036.4a3.521,3.521,0,0,1-.218,1.008l-.079.224.045.3a8.8,8.8,0,0,0,2.778,4.8,6.362,6.362,0,0,0,1.337.814,1.477,1.477,0,0,0,1.125.047.9.9,0,0,0,.355-.187" transform="translate(-502.428 -84.837)" fill="#29fdc1"/>
        <path id="Tracé_497" data-name="Tracé 497" d="M275.635,224.688c-1.251-.509-3.315,1.428-4.283,4.02-.808,2.164-.615,3.99.457,4.34l.107.035.35-.156a3.152,3.152,0,0,1,.954-.28l.226-.034.234-.186a8.8,8.8,0,0,0,2.727-4.835,6.98,6.98,0,0,0,.05-1.614,1.626,1.626,0,0,0-.5-1.054.914.914,0,0,0-.327-.237" transform="translate(-255.219 -210.159)" fill="#29fdc1"/>
        <path id="Tracé_498" data-name="Tracé 498" d="M322.635,225.5c.417,1.332-1.555,3.37-4.092,4.23-2.118.718-3.855.414-4.13-.722l-.027-.114.169-.356a3.492,3.492,0,0,0,.322-.977l.046-.234.192-.233a8.259,8.259,0,0,1,4.784-2.565,6.157,6.157,0,0,1,1.548.04,1.524,1.524,0,0,1,.981.577.963.963,0,0,1,.208.353" transform="translate(-296.27 -210.057)" fill="#29fdc1"/>
        <path id="Tracé_499" data-name="Tracé 499" d="M488.93,134.843c-.948.993-3.586.09-5.475-1.874-1.577-1.64-2.108-3.391-1.263-4.163l.084-.077.381-.005a3.133,3.133,0,0,0,.981-.145l.22-.064.286.072a8.387,8.387,0,0,1,4.367,3.274,6.824,6.824,0,0,1,.671,1.456,1.665,1.665,0,0,1-.046,1.173.96.96,0,0,1-.207.354" transform="translate(-453.945 -120.247)" fill="#29fdc1"/>
        <path id="Tracé_500" data-name="Tracé 500" d="M757.36,34.357c1.158.682,3.531-.921,4.925-3.327,1.164-2.009,1.278-3.831.272-4.331l-.1-.05-.374.1a3.237,3.237,0,0,1-.994.136h-.231l-.264.149a9.018,9.018,0,0,0-3.516,4.353,6.928,6.928,0,0,0-.319,1.579,1.575,1.575,0,0,0,.317,1.108.888.888,0,0,0,.285.28" transform="translate(-712.906 -24.935)" fill="#29fdc1"/>
        <path id="Tracé_501" data-name="Tracé 501" d="M1246.652,174.567c-1.207.614-3.416-1.14-4.584-3.641-.975-2.088-.927-3.924.115-4.365l.1-.044.361.125a3.138,3.138,0,0,0,.972.2l.228.015.248.166a8.726,8.726,0,0,1,3.1,4.585,6.975,6.975,0,0,1,.177,1.6,1.638,1.638,0,0,1-.412,1.093.923.923,0,0,1-.307.264" transform="translate(-1169.326 -155.805)" fill="#29fdc1"/>
        <path id="Tracé_502" data-name="Tracé 502" d="M60.4,626.273c.441-1.323-1.493-3.4-4.013-4.312-2.1-.761-3.847-.492-4.142.639l-.03.113.162.359a3.5,3.5,0,0,1,.3.983l.041.235.187.237a8.275,8.275,0,0,0,4.735,2.66,6.159,6.159,0,0,0,1.549-.008,1.521,1.521,0,0,0,.992-.557.963.963,0,0,0,.214-.349" transform="translate(-48.984 -581.551)" fill="#29fdc1"/>
        <path id="Tracé_503" data-name="Tracé 503" d="M112.876,348.5c.01,1.373,2.551,2.736,5.272,2.827,2.272.076,3.859-.7,3.772-1.851l-.009-.115-.274-.287a3.531,3.531,0,0,1-.615-.829l-.117-.207-.258-.166a8.706,8.706,0,0,0-5.425-1.061,6.3,6.3,0,0,0-1.486.476,1.478,1.478,0,0,0-.771.822.913.913,0,0,0-.092.392" transform="translate(-105.742 -324.428)" fill="#29fdc1"/>
        <path id="Tracé_504" data-name="Tracé 504" d="M69.822,497.3c.836-1.07-.463-3.567-2.694-5.182-1.863-1.348-3.676-1.645-4.309-.706l-.063.094.053.378a3.131,3.131,0,0,1,.007.991l-.029.227.115.275a8.668,8.668,0,0,0,3.908,3.9,6.956,6.956,0,0,0,1.542.474,1.645,1.645,0,0,0,1.153-.2.93.93,0,0,0,.318-.252" transform="translate(-58.845 -459.293)" fill="#29fdc1"/>
        <path id="Tracé_506" data-name="Tracé 506" d="M145.878,678.183c1.026.9,3.58-.231,5.3-2.356,1.437-1.775,1.822-3.567.916-4.261L152,671.5l-.38.029a3.123,3.123,0,0,1-.989-.057l-.225-.044-.279.1a8.472,8.472,0,0,0-4.082,3.652,6.875,6.875,0,0,0-.549,1.51,1.661,1.661,0,0,0,.142,1.165.951.951,0,0,0,.235.334" transform="translate(-136.231 -628.234)" fill="#29fdc1"/>
        <path id="Tracé_507" data-name="Tracé 507" d="M475.683,675.493c-1.251.51-1.51,3.392-.537,5.982.812,2.162,2.14,3.369,3.157,2.869l.1-.05.156-.362a3.42,3.42,0,0,1,.519-.88l.144-.185.051-.3a9.033,9.033,0,0,0-1.136-5.482,6.627,6.627,0,0,0-1.012-1.222,1.5,1.5,0,0,0-1.05-.424.882.882,0,0,0-.394.057" transform="translate(-447.05 -631.989)" fill="#29fdc1"/>
        <path id="Tracé_511" data-name="Tracé 511" d="M10.907,651.64c-.247-1.373-2.94-2.269-5.589-1.861-2.211.341-3.612,1.412-3.329,2.546l.028.113.314.237a3.5,3.5,0,0,1,.738.717l.149.186.278.118a8.276,8.276,0,0,0,5.431.065,6.162,6.162,0,0,0,1.355-.75,1.521,1.521,0,0,0,.6-.964.962.962,0,0,0,.021-.409" transform="translate(-1.953 -607.889)" fill="#29fdc1"/>
        <path id="Tracé_512" data-name="Tracé 512" d="M929.332,50.109c.157,1.373,2.812,2.461,5.509,2.257,2.252-.171,3.736-1.123,3.527-2.263l-.021-.114-.3-.258a3.534,3.534,0,0,1-.7-.763l-.138-.195-.272-.138a8.54,8.54,0,0,0-5.471-.473,6.217,6.217,0,0,0-1.416.638,1.487,1.487,0,0,0-.673.906.93.93,0,0,0-.049.4" transform="translate(-875.597 -44.836)" fill="#29fdc1"/>
        <path id="Tracé_513" data-name="Tracé 513" d="M114.088,416.38c-.8.839-3.03.076-4.627-1.584-1.333-1.386-1.782-2.866-1.067-3.518l.071-.065.322,0a2.647,2.647,0,0,0,.829-.123l.186-.054.242.061a7.088,7.088,0,0,1,3.69,2.767,5.762,5.762,0,0,1,.567,1.23,1.406,1.406,0,0,1-.039.992.813.813,0,0,1-.175.3" transform="translate(-101.232 -384.592)" fill="#29fdc1"/>
        <path id="Tracé_514" data-name="Tracé 514" d="M61.574,428.6c.2,1.143-1.747,2.477-4.031,2.768-1.907.243-3.363-.28-3.46-1.243l-.01-.1.188-.261a2.647,2.647,0,0,0,.4-.739l.068-.182.193-.158a7.088,7.088,0,0,1,4.423-1.311,5.77,5.77,0,0,1,1.325.279,1.407,1.407,0,0,1,.773.623.811.811,0,0,1,.136.319" transform="translate(-50.721 -399.877)" fill="#29fdc1"/>
        <path id="Tracé_515" data-name="Tracé 515" d="M467.792,168.005c-.643.966-2.971.6-4.832-.755-1.553-1.133-2.253-2.512-1.663-3.279l.059-.077.316-.06a2.645,2.645,0,0,0,.795-.265l.174-.086.249.018a7.088,7.088,0,0,1,4.116,2.083,5.769,5.769,0,0,1,.772,1.113,1.406,1.406,0,0,1,.134.983.813.813,0,0,1-.12.325" transform="translate(-434.426 -152.967)" fill="#29fdc1"/>
        <path id="Tracé_516" data-name="Tracé 516" d="M1275.174,290.018c.251-1.132-1.625-2.559-3.893-2.96-1.893-.335-3.372.117-3.516,1.074l-.014.1.176.269a2.644,2.644,0,0,1,.36.757l.059.185.185.167a7.088,7.088,0,0,0,4.354,1.523,5.763,5.763,0,0,0,1.337-.215,1.407,1.407,0,0,0,.8-.585.811.811,0,0,0,.151-.312" transform="translate(-1194.286 -268.49)" fill="#29fdc1"/>
        <path id="Tracé_517" data-name="Tracé 517" d="M692.06,447.228c.282-1.274-1.828-2.878-4.379-3.329-2.129-.377-3.793.131-3.955,1.208l-.016.108.2.3a2.98,2.98,0,0,1,.4.851l.066.208.208.188a7.972,7.972,0,0,0,4.9,1.714,6.482,6.482,0,0,0,1.5-.241,1.582,1.582,0,0,0,.9-.658.913.913,0,0,0,.17-.351" transform="translate(-644.182 -415.229)" fill="#29fdc1"/>
        <path id="Tracé_518" data-name="Tracé 518" d="M766.794,190.818c-1.291.19-2.038,2.733-1.551,5.277.407,2.124,1.474,3.5,2.537,3.265l.106-.023.213-.293a2.977,2.977,0,0,1,.651-.681l.171-.136.1-.262a7.972,7.972,0,0,0-.144-5.186,6.482,6.482,0,0,0-.761-1.32,1.582,1.582,0,0,0-.936-.609.912.912,0,0,0-.388-.034" transform="translate(-720.657 -178.535)" fill="#29fdc1"/>
        <path id="Tracé_519" data-name="Tracé 519" d="M248.528,419.219c.831-1.006,3.394-.329,5.318,1.4,1.607,1.447,2.229,3.072,1.48,3.861l-.075.079-.36.031a2.978,2.978,0,0,0-.92.2l-.2.076-.276-.049a7.972,7.972,0,0,1-4.363-2.808,6.48,6.48,0,0,1-.735-1.334,1.582,1.582,0,0,1-.036-1.116.912.912,0,0,1,.172-.35" transform="translate(-232.427 -391.813)" fill="#29fdc1"/>
        <path id="Tracé_520" data-name="Tracé 520" d="M506.91,420.186c-1.25.373-3-1.616-3.636-4.127-.529-2.1-.142-3.793.92-4.032L504.3,412l.316.175a2.978,2.978,0,0,0,.878.342l.212.051.2.194a7.972,7.972,0,0,1,2.062,4.761,6.484,6.484,0,0,1-.132,1.518,1.582,1.582,0,0,1-.591.947.912.912,0,0,1-.338.195" transform="translate(-473.88 -385.5)" fill="#29fdc1"/>
        <path id="Tracé_521" data-name="Tracé 521" d="M506.628,190.339c1.023.81.4,3.386-1.293,5.346-1.413,1.637-3.024,2.293-3.829,1.561l-.08-.073-.038-.36a2.978,2.978,0,0,0-.224-.916l-.08-.2.043-.277A7.972,7.972,0,0,1,503.841,191a6.482,6.482,0,0,1,1.319-.763,1.583,1.583,0,0,1,1.115-.06.913.913,0,0,1,.353.165" transform="translate(-472.072 -177.87)" fill="#29fdc1"/>
        <path id="Tracé_522" data-name="Tracé 522" d="M837.6,344.9c1.3.07,2.283,2.532,2.034,5.111-.208,2.152-1.143,3.619-2.223,3.487l-.108-.013-.239-.271a2.976,2.976,0,0,0-.712-.618l-.182-.12-.125-.251a7.972,7.972,0,0,1-.339-5.177,6.483,6.483,0,0,1,.636-1.384,1.582,1.582,0,0,1,.875-.693.912.912,0,0,1,.384-.069" transform="translate(-786.901 -322.712)" fill="#29fdc1"/>
        <path id="Tracé_523" data-name="Tracé 523" d="M1019.367,364.41c.488,1.21-1.329,3.14-3.77,4.005-2.038.722-3.763.5-4.1-.54l-.034-.1.145-.331a2.974,2.974,0,0,0,.259-.906l.031-.216.175-.22a7.973,7.973,0,0,1,4.548-2.5,6.49,6.49,0,0,1,1.523-.01,1.582,1.582,0,0,1,1,.5.914.914,0,0,1,.225.318" transform="translate(-952.907 -340.166)" fill="#29fdc1"/>
        <path id="Tracé_524" data-name="Tracé 524" d="M1282.379,437.143c-1.012.823-3.392-.342-4.94-2.419-1.292-1.734-1.584-3.449-.7-4.076l.089-.063.359.041a2.978,2.978,0,0,0,.942-.02l.216-.034.261.1a7.971,7.971,0,0,1,3.729,3.608,6.482,6.482,0,0,1,.459,1.453,1.582,1.582,0,0,1-.183,1.1.912.912,0,0,1-.237.309" transform="translate(-1202.208 -402.874)" fill="#29fdc1"/>
      </g>
      <path id="Tracé_525" data-name="Tracé 525" d="M0,716.958a47.639,47.639,0,0,0,14.645,34.229A50.194,50.194,0,0,0,32.21,762.2a12.505,12.505,0,0,0-.909,4.658H68.7a12.5,12.5,0,0,0-.909-4.658,50.194,50.194,0,0,0,17.565-11.01A47.639,47.639,0,0,0,100,716.958Z" transform="translate(0 -679.511)" fill="#33413d" stroke="#29fdc1" stroke-width="2"/>
    </g>
  </g>
</svg>
