<svg id="Groupe_185" data-name="Groupe 185" xmlns="http://www.w3.org/2000/svg" width="664" height="423" viewBox="0 0 664 423">
  <rect id="bg" width="664" height="423" fill="none"/>
  <path id="Tracé_535" data-name="Tracé 535" d="M-69.93,0h3.76V-3.9h1.82a4.751,4.751,0,0,0,5.1-5.04A4.756,4.756,0,0,0-64.35-14h-5.58Zm3.72-7.24v-3.34h1.5a1.561,1.561,0,0,1,1.7,1.68,1.555,1.555,0,0,1-1.7,1.66ZM-53.15.22A4.992,4.992,0,0,0-49.89-.94l.16.94h2.98V-10.6h-2.98l-.14.96a4.983,4.983,0,0,0-3.28-1.18A5.176,5.176,0,0,0-58.41-5.3,5.186,5.186,0,0,0-53.15.22Zm.58-3.2a2.221,2.221,0,0,1-2.3-2.32,2.221,2.221,0,0,1,2.3-2.32,2.221,2.221,0,0,1,2.3,2.32A2.221,2.221,0,0,1-52.57-2.98ZM-44.21,0h3.54V-10.6h-3.54Zm1.76-11.48a1.872,1.872,0,0,0,2-1.88,1.888,1.888,0,0,0-2-1.9,1.893,1.893,0,0,0-2.02,1.9A1.878,1.878,0,0,0-42.45-11.48ZM-38.13,0h3.54V-5.76a1.755,1.755,0,0,1,1.92-1.88c1.04,0,1.62.64,1.62,1.82V0h3.56V-6.22c0-2.76-1.28-4.58-4.02-4.58a4.147,4.147,0,0,0-3.24,1.4l-.12-1.2h-3.26Zm17.84-4.52h6.72V-7.64h-6.72ZM-3.49,0H.13V-14H-2.41l-4.9,3.52,1.54,2.56,2.3-1.36-.02,3.42ZM8.19.26c3.76,0,5.94-2.68,5.94-7.26s-2.18-7.26-5.94-7.26c-3.74,0-5.92,2.68-5.92,7.26S4.45.26,8.19.26Zm0-3.38C6.73-3.12,5.97-4.42,5.97-7s.76-3.88,2.22-3.88S10.41-9.58,10.41-7,9.65-3.12,8.19-3.12ZM21.61.26c3.76,0,5.94-2.68,5.94-7.26s-2.18-7.26-5.94-7.26c-3.74,0-5.92,2.68-5.92,7.26S17.87.26,21.61.26Zm0-3.38c-1.46,0-2.22-1.3-2.22-3.88s.76-3.88,2.22-3.88S23.83-9.58,23.83-7,23.07-3.12,21.61-3.12ZM35.03.26c3.76,0,5.94-2.68,5.94-7.26s-2.18-7.26-5.94-7.26c-3.74,0-5.92,2.68-5.92,7.26S31.29.26,35.03.26Zm0-3.38c-1.46,0-2.22-1.3-2.22-3.88s.76-3.88,2.22-3.88S37.25-9.58,37.25-7,36.49-3.12,35.03-3.12ZM54.39,0h4.02V-.34L54.95-5.5l3.14-4.76v-.34H54.21L51.89-6.72V-14H48.35V0h3.54V-4.02Zm9.96,3.6c3.28,0,5.68-1.8,5.68-5.34V-10.6H67.05l-.12.88a4.922,4.922,0,0,0-3.22-1.12,4.964,4.964,0,0,0-5.04,5.12A4.859,4.859,0,0,0,63.71-.7a5.156,5.156,0,0,0,2.8-.78v.26c0,1.26-.98,1.88-2.28,1.88-.88,0-1.62-.28-1.8-.96H59.01C59.29,2.36,61.45,3.6,64.35,3.6Zm0-7.14a2.021,2.021,0,0,1-2.16-2.1,2.006,2.006,0,0,1,2.16-2.08,2.022,2.022,0,0,1,2.18,2.08A2.038,2.038,0,0,1,64.35-3.54ZM-85.484,21h1.232V18.746h1.26V17.584h-1.26V11.2h-.966l-5.292,6.664v.882h5.026Zm-3.36-3.4,3.374-4.228V17.6Zm10.36,3.542c2.114,0,3.584-1.148,3.584-2.814a2.632,2.632,0,0,0-1.708-2.464,2.5,2.5,0,0,0,1.246-2.142,2.858,2.858,0,0,0-3.122-2.66,2.845,2.845,0,0,0-3.108,2.66,2.5,2.5,0,0,0,1.246,2.142,2.632,2.632,0,0,0-1.708,2.464C-82.054,19.978-80.584,21.14-78.484,21.14Zm0-1.2c-1.414,0-2.31-.672-2.31-1.722s.9-1.722,2.31-1.722,2.324.672,2.324,1.722S-77.056,19.936-78.484,19.936Zm0-4.578c-1.12,0-1.89-.644-1.89-1.568a1.672,1.672,0,0,1,1.89-1.582c1.12,0,1.9.644,1.9,1.582S-77.364,15.358-78.484,15.358ZM-71.26,21h1.022l5.46-9.8H-65.8Zm.056-5.362a2.249,2.249,0,0,0,2.324-2.282,2.252,2.252,0,0,0-2.324-2.3,2.241,2.241,0,0,0-2.31,2.3A2.237,2.237,0,0,0-71.2,15.638Zm0-.952a1.276,1.276,0,0,1-1.316-1.33,1.268,1.268,0,0,1,1.316-1.33,1.26,1.26,0,0,1,1.316,1.33A1.276,1.276,0,0,1-71.2,14.686Zm6.412,6.44a2.237,2.237,0,0,0,2.31-2.282,2.241,2.241,0,0,0-2.31-2.3,2.252,2.252,0,0,0-2.324,2.3A2.249,2.249,0,0,0-64.792,21.126Zm0-.952a1.276,1.276,0,0,1-1.316-1.33,1.268,1.268,0,0,1,1.316-1.33,1.26,1.26,0,0,1,1.316,1.33A1.268,1.268,0,0,1-64.792,20.174Zm7.966.826h1.19V11.2h-1.19Zm6.986.126a3.706,3.706,0,0,0,3.864-3.836,3.706,3.706,0,0,0-3.864-3.836A3.713,3.713,0,0,0-53.7,17.29,3.713,3.713,0,0,0-49.84,21.126Zm0-1.12a2.585,2.585,0,0,1-2.646-2.716,2.585,2.585,0,0,1,2.646-2.716,2.6,2.6,0,0,1,2.66,2.716A2.6,2.6,0,0,1-49.84,20.006Zm5.8.994h1.19V16.968A2.312,2.312,0,0,1-40.46,14.56a3.316,3.316,0,0,1,.8.112V13.594a3.942,3.942,0,0,0-.938-.126,2.563,2.563,0,0,0-2.254,1.218V13.58h-1.19Zm8.428.112c1.75,0,3.136-.714,3.136-2.254,0-1.414-1.176-1.918-2.912-2.142-1.54-.2-2.016-.476-2.016-1.134s.644-1.05,1.764-1.05c1.008,0,1.666.434,1.736,1.148h1.2c-.084-1.386-1.176-2.24-2.912-2.24-1.68,0-3,.728-3,2.142,0,1.316.8,1.918,2.926,2.226,1.554.238,1.988.476,1.988,1.106,0,.728-.756,1.092-1.9,1.092-1.12,0-1.862-.476-1.918-1.316h-1.218C-38.668,20.2-37.478,21.112-35.616,21.112Zm11.858.014a3.592,3.592,0,0,0,2.8-1.218V21h1.19V11.2h-1.19v3.472a3.592,3.592,0,0,0-2.8-1.218,3.64,3.64,0,0,0-3.724,3.836A3.64,3.64,0,0,0-23.758,21.126Zm.14-1.12a2.577,2.577,0,0,1-2.646-2.716,2.577,2.577,0,0,1,2.646-2.716,2.584,2.584,0,0,1,2.674,2.716A2.584,2.584,0,0,1-23.618,20.006Zm9.59,1.12a3.641,3.641,0,0,0,3.6-2.352h-1.288a2.491,2.491,0,0,1-2.31,1.232A2.488,2.488,0,0,1-16.59,17.7h6.384a3.721,3.721,0,0,0-3.822-4.242,3.684,3.684,0,0,0-3.808,3.836A3.684,3.684,0,0,0-14.028,21.126Zm-2.534-4.452a2.476,2.476,0,0,1,2.534-2.1,2.57,2.57,0,0,1,2.576,2.1ZM-4.634,21h1.19V11.2h-1.19Zm6.846.126A3.664,3.664,0,0,0,4.984,19.95V21h1.19V13.58H4.984v1.05a3.664,3.664,0,0,0-2.772-1.176A3.64,3.64,0,0,0-1.512,17.29,3.64,3.64,0,0,0,2.212,21.126Zm.14-1.12A2.577,2.577,0,0,1-.294,17.29a2.577,2.577,0,0,1,2.646-2.716,2.588,2.588,0,0,1,2.66,2.716A2.588,2.588,0,0,1,2.352,20.006Zm13.986,1.12a3.648,3.648,0,0,0,3.724-3.836,3.648,3.648,0,0,0-3.724-3.836,3.592,3.592,0,0,0-2.8,1.218V13.58h-1.19v9.576h1.19V19.908A3.592,3.592,0,0,0,16.338,21.126Zm-.154-1.12A2.592,2.592,0,0,1,13.51,17.29a2.592,2.592,0,0,1,2.674-2.716,2.581,2.581,0,0,1,2.66,2.716A2.581,2.581,0,0,1,16.184,20.006Zm5.81.994h1.19V16.968a2.312,2.312,0,0,1,2.394-2.408,3.316,3.316,0,0,1,.8.112V13.594a3.942,3.942,0,0,0-.938-.126,2.563,2.563,0,0,0-2.254,1.218V13.58h-1.19Zm9.016.126a3.706,3.706,0,0,0,3.864-3.836,3.706,3.706,0,0,0-3.864-3.836,3.713,3.713,0,0,0-3.864,3.836A3.713,3.713,0,0,0,31.01,21.126Zm0-1.12a2.585,2.585,0,0,1-2.646-2.716,2.654,2.654,0,1,1,5.306,0A2.6,2.6,0,0,1,31.01,20.006Zm8.96,1.12a3.592,3.592,0,0,0,2.8-1.218V21h1.19V11.2H42.77v3.472a3.592,3.592,0,0,0-2.8-1.218,3.64,3.64,0,0,0-3.724,3.836A3.64,3.64,0,0,0,39.97,21.126Zm.14-1.12a2.577,2.577,0,0,1-2.646-2.716,2.661,2.661,0,1,1,5.32,0A2.584,2.584,0,0,1,40.11,20.006Zm9.282,1.106a3.217,3.217,0,0,0,2.618-1.19V21H53.2V13.58H52.01V17.7A2.224,2.224,0,0,1,49.6,20.034c-1.372,0-2.072-.812-2.072-2.338V13.58H46.34V17.7C46.34,19.866,47.446,21.112,49.392,21.112Zm9.436.014A3.6,3.6,0,0,0,62.51,18.34H61.292a2.411,2.411,0,0,1-2.436,1.666,2.529,2.529,0,0,1-2.618-2.7,2.544,2.544,0,0,1,2.618-2.73,2.451,2.451,0,0,1,2.436,1.652h1.19a3.577,3.577,0,0,0-3.654-2.772A3.664,3.664,0,0,0,55.02,17.3,3.665,3.665,0,0,0,58.828,21.126Zm8.386-.084c.252,0,.56-.014.854-.042V19.894a6.681,6.681,0,0,1-.714.042c-1.036,0-1.428-.42-1.428-1.4V14.574H67.97V13.58H65.926V11.7l-1.19.126v1.75H63.182v.994h1.554v4.1C64.736,20.3,65.52,21.042,67.214,21.042ZM69.846,21h1.19V13.58h-1.19Zm.6-8.414a.889.889,0,0,0,.924-.882.924.924,0,1,0-1.848,0A.888.888,0,0,0,70.448,12.586Zm6.384,8.54A3.706,3.706,0,0,0,80.7,17.29a3.864,3.864,0,0,0-7.728,0A3.713,3.713,0,0,0,76.832,21.126Zm0-1.12a2.585,2.585,0,0,1-2.646-2.716,2.654,2.654,0,1,1,5.306,0A2.6,2.6,0,0,1,76.832,20.006Zm5.8.994h1.19V16.912a2.268,2.268,0,0,1,2.436-2.366c1.386,0,2.114.812,2.114,2.38V21h1.19V16.884c0-2.2-1.148-3.416-3.094-3.416a3.246,3.246,0,0,0-2.646,1.2V13.58h-1.19ZM-75.8,42.14a3.277,3.277,0,0,0,3.4-3.36,3.266,3.266,0,0,0-3.374-3.374,3.927,3.927,0,0,0-1.82.448l.112-1.078.126-1.386h4.424V32.2h-5.516l-.476,5.166h1.19a2.845,2.845,0,0,1,1.918-.742,2.035,2.035,0,0,1,2.156,2.156A2.086,2.086,0,0,1-75.8,40.936c-1.2,0-2.086-.672-2.128-1.624h-1.246C-79.163,40.978-77.749,42.14-75.8,42.14Zm4.55-.14h6.65V40.81h-3.374l-1.2.028,2.464-2.254c1.428-1.288,2.03-2.282,2.03-3.514a2.947,2.947,0,0,0-3.192-3.01,3.033,3.033,0,0,0-3.178,3.3h1.232a1.856,1.856,0,0,1,1.946-2.1,1.752,1.752,0,0,1,1.932,1.848c0,.854-.448,1.5-1.54,2.534l-3.766,3.514Zm10.346,0h1.022l5.46-9.8h-1.022Zm.056-5.362a2.249,2.249,0,0,0,2.324-2.282,2.252,2.252,0,0,0-2.324-2.3,2.241,2.241,0,0,0-2.31,2.3A2.237,2.237,0,0,0-60.851,36.638Zm0-.952a1.276,1.276,0,0,1-1.316-1.33,1.268,1.268,0,0,1,1.316-1.33,1.26,1.26,0,0,1,1.316,1.33A1.276,1.276,0,0,1-60.851,35.686Zm6.412,6.44a2.237,2.237,0,0,0,2.31-2.282,2.241,2.241,0,0,0-2.31-2.3,2.252,2.252,0,0,0-2.324,2.3A2.249,2.249,0,0,0-54.439,42.126Zm0-.952a1.276,1.276,0,0,1-1.316-1.33,1.268,1.268,0,0,1,1.316-1.33,1.26,1.26,0,0,1,1.316,1.33A1.268,1.268,0,0,1-54.439,41.174Zm11.214.952a3.641,3.641,0,0,0,3.6-2.352h-1.288a2.491,2.491,0,0,1-2.31,1.232,2.488,2.488,0,0,1-2.562-2.31H-39.4a3.721,3.721,0,0,0-3.822-4.242,3.684,3.684,0,0,0-3.808,3.836A3.684,3.684,0,0,0-43.225,42.126Zm-2.534-4.452a2.476,2.476,0,0,1,2.534-2.1,2.57,2.57,0,0,1,2.576,2.1ZM-37.513,42h1.19V37.912a2.268,2.268,0,0,1,2.436-2.366c1.386,0,2.114.812,2.114,2.38V42h1.19V37.884c0-2.2-1.148-3.416-3.094-3.416a3.246,3.246,0,0,0-2.646,1.2V34.58h-1.19Zm12.978,0h1.19V37.968a2.312,2.312,0,0,1,2.394-2.408,3.316,3.316,0,0,1,.8.112V34.594a3.942,3.942,0,0,0-.938-.126,2.563,2.563,0,0,0-2.254,1.218V34.58h-1.19Zm8.96.126a3.641,3.641,0,0,0,3.6-2.352h-1.288a2.491,2.491,0,0,1-2.31,1.232,2.488,2.488,0,0,1-2.562-2.31h6.384a3.721,3.721,0,0,0-3.822-4.242,3.684,3.684,0,0,0-3.808,3.836A3.684,3.684,0,0,0-15.575,42.126Zm-2.534-4.452a2.476,2.476,0,0,1,2.534-2.1A2.57,2.57,0,0,1-13,37.674Zm11.158,4.368c.252,0,.56-.014.854-.042V40.894a6.682,6.682,0,0,1-.714.042c-1.036,0-1.428-.42-1.428-1.4V35.574H-6.2V34.58H-8.239V32.7l-1.19.126v1.75h-1.554v.994h1.554v4.1C-9.429,41.3-8.645,42.042-6.951,42.042Zm5.852.084A3.706,3.706,0,0,0,2.765,38.29,3.706,3.706,0,0,0-1.1,34.454,3.713,3.713,0,0,0-4.963,38.29,3.713,3.713,0,0,0-1.1,42.126Zm0-1.12A2.585,2.585,0,0,1-3.745,38.29,2.585,2.585,0,0,1-1.1,35.574a2.6,2.6,0,0,1,2.66,2.716A2.6,2.6,0,0,1-1.1,41.006Zm8.736,1.106a3.217,3.217,0,0,0,2.618-1.19V42h1.19V34.58h-1.19V38.7a2.224,2.224,0,0,1-2.408,2.338c-1.372,0-2.072-.812-2.072-2.338V34.58H4.585V38.7C4.585,40.866,5.691,42.112,7.637,42.112ZM13.825,42h1.19V37.968a2.312,2.312,0,0,1,2.394-2.408,3.316,3.316,0,0,1,.8.112V34.594a3.942,3.942,0,0,0-.938-.126,2.563,2.563,0,0,0-2.254,1.218V34.58h-1.19Zm12.894.126a3.664,3.664,0,0,0,2.772-1.176V42h1.19V34.58h-1.19v1.05a3.806,3.806,0,1,0-2.772,6.5Zm.14-1.12a2.717,2.717,0,1,1,2.66-2.716A2.577,2.577,0,0,1,26.859,41.006Zm8.932,1.106c1.75,0,3.136-.714,3.136-2.254,0-1.414-1.176-1.918-2.912-2.142C34.475,37.52,34,37.24,34,36.582s.644-1.05,1.764-1.05c1.008,0,1.666.434,1.736,1.148h1.2c-.084-1.386-1.176-2.24-2.912-2.24-1.68,0-3,.728-3,2.142,0,1.316.8,1.918,2.926,2.226,1.554.238,1.988.476,1.988,1.106,0,.728-.756,1.092-1.9,1.092-1.12,0-1.862-.476-1.918-1.316H32.669C32.739,41.2,33.929,42.112,35.791,42.112Zm7.63,0c1.75,0,3.136-.714,3.136-2.254,0-1.414-1.176-1.918-2.912-2.142-1.54-.2-2.016-.476-2.016-1.134s.644-1.05,1.764-1.05c1.008,0,1.666.434,1.736,1.148h1.2c-.084-1.386-1.176-2.24-2.912-2.24-1.68,0-3,.728-3,2.142,0,1.316.8,1.918,2.926,2.226,1.554.238,1.988.476,1.988,1.106,0,.728-.756,1.092-1.9,1.092-1.12,0-1.862-.476-1.918-1.316H40.3C40.369,41.2,41.559,42.112,43.421,42.112ZM48.433,42h1.19V34.58h-1.19Zm.6-8.414a.888.888,0,0,0,.924-.882.924.924,0,1,0-1.848,0A.888.888,0,0,0,49.035,33.586Zm6.328,8.54a3.641,3.641,0,0,0,3.6-2.352H57.673A2.653,2.653,0,0,1,52.8,38.7h6.384a3.721,3.721,0,0,0-3.822-4.242,3.836,3.836,0,0,0,0,7.672Zm-2.534-4.452a2.476,2.476,0,0,1,2.534-2.1,2.57,2.57,0,0,1,2.576,2.1Zm11.158,4.368c.252,0,.56-.014.854-.042V40.894a6.682,6.682,0,0,1-.714.042c-1.036,0-1.428-.42-1.428-1.4V35.574h2.044V34.58H62.7V32.7l-1.19.126v1.75H59.955v.994h1.554v4.1C61.509,41.3,62.293,42.042,63.987,42.042Zm5.656,0c.252,0,.56-.014.854-.042V40.894a6.682,6.682,0,0,1-.714.042c-1.036,0-1.428-.42-1.428-1.4V35.574H70.4V34.58H68.355V32.7l-1.19.126v1.75H65.611v.994h1.554v4.1C67.165,41.3,67.949,42.042,69.643,42.042Zm5.8.084a3.641,3.641,0,0,0,3.6-2.352H77.749A2.653,2.653,0,0,1,72.877,38.7h6.384a3.721,3.721,0,0,0-3.822-4.242,3.836,3.836,0,0,0,0,7.672ZM72.9,37.674a2.476,2.476,0,0,1,2.534-2.1,2.57,2.57,0,0,1,2.576,2.1Z" transform="translate(162 151)" fill="#29fdc1"/>
</svg>
