<svg id="Groupe_186" data-name="Groupe 186" xmlns="http://www.w3.org/2000/svg" width="664" height="423" viewBox="0 0 664 423">
  <rect id="bg" width="664" height="423" fill="none"/>
  <g id="podium2" transform="translate(404 237.126)">
    <path id="Tracé_418" data-name="Tracé 418" d="M0,0H115L105,112H10Z" transform="translate(34 61)" fill="#191a1a" stroke="#29fdc1" stroke-linecap="round" stroke-width="2"/>
    <path id="Tracé_416" data-name="Tracé 416" d="M0,0V78" transform="translate(91 81)" fill="none" stroke="#29fdc1" stroke-linecap="round" stroke-width="2"/>
    <path id="Tracé_417" data-name="Tracé 417" d="M0,0V78" transform="translate(118 81)" fill="none" stroke="#29fdc1" stroke-linecap="round" stroke-width="2"/>
    <path id="Tracé_415" data-name="Tracé 415" d="M0,0V78" transform="translate(64 81)" fill="none" stroke="#29fdc1" stroke-linecap="round" stroke-width="2"/>
    <rect id="Rectangle_107" data-name="Rectangle 107" width="47" height="68" transform="translate(66 84)" fill="#191a1a"/>
    <path id="Tracé_425" data-name="Tracé 425" d="M2.418,0H43.212V-12.636H31.2l-6.24.312,6.786-6.084c8.112-7.176,11-12.4,11-19.11,0-10.608-8.19-18.1-19.89-18.1C11-55.614,3.12-47.58,3.12-35.646H17c0-3.9,2.262-6.4,5.694-6.4a5.242,5.242,0,0,1,5.616,5.46c0,2.808-1.4,4.836-6.162,9.36L2.418-8.97Z" transform="translate(69 145)" fill="#29fdc1"/>
  </g>
</svg>
