<svg id="Groupe_185" data-name="Groupe 185" xmlns="http://www.w3.org/2000/svg" width="664" height="423" viewBox="0 0 664 423">
  <rect id="bg" width="664" height="423" fill="none"/>
  <path id="Tracé_537" data-name="Tracé 537" d="M-74.15,0h3.76V-3.9h1.82a4.751,4.751,0,0,0,5.1-5.04A4.756,4.756,0,0,0-68.57-14h-5.58Zm3.72-7.24v-3.34h1.5a1.561,1.561,0,0,1,1.7,1.68,1.555,1.555,0,0,1-1.7,1.66ZM-57.37.22A4.992,4.992,0,0,0-54.11-.94l.16.94h2.98V-10.6h-2.98l-.14.96a4.983,4.983,0,0,0-3.28-1.18A5.176,5.176,0,0,0-62.63-5.3,5.186,5.186,0,0,0-57.37.22Zm.58-3.2a2.221,2.221,0,0,1-2.3-2.32,2.221,2.221,0,0,1,2.3-2.32,2.221,2.221,0,0,1,2.3,2.32A2.221,2.221,0,0,1-56.79-2.98Zm-3.9-8.64h2.92l1.34-1.34,1.34,1.34h2.92v-.32l-2.62-2.78h-3.28l-2.62,2.78ZM-43.57.22a10.529,10.529,0,0,0,2-.22V-2.88a8.571,8.571,0,0,1-.98.06c-.96,0-1.5-.32-1.5-1.38V-7.68h2.34V-10.6h-2.34v-2.52l-3.56.36v2.16h-1.74v2.92h1.74V-3.7C-47.61-1-46.01.22-43.57.22Zm8.86.02a5.446,5.446,0,0,0,5.38-3.62h-3.64a2.563,2.563,0,0,1-1.72.62,2.119,2.119,0,0,1-2.22-1.52h7.78a5.406,5.406,0,0,0-5.58-6.56,5.422,5.422,0,0,0-5.7,5.54A5.433,5.433,0,0,0-34.71.24Zm-2.2-6.56a2.2,2.2,0,0,1,2.24-1.54,2.153,2.153,0,0,1,2.24,1.54ZM-23.17.24c2.86,0,4.76-1.4,4.76-3.5,0-1.92-1.34-3.04-4.04-3.34-1.44-.16-1.94-.4-1.94-.9,0-.42.4-.66,1.1-.66.76,0,1.22.26,1.28.78h3.34c-.12-2.04-1.98-3.46-4.58-3.46-2.8,0-4.6,1.38-4.6,3.48,0,1.86,1.34,2.96,4.06,3.28,1.46.18,1.88.38,1.88.88,0,.44-.48.74-1.22.74-.82,0-1.32-.32-1.36-.9h-3.48C-27.87-1.14-26.05.24-23.17.24Zm11.34-4.76h6.72V-7.64h-6.72ZM4.97,0H8.59V-14H6.05l-4.9,3.52L2.69-7.92l2.3-1.36L4.97-5.86ZM15.91.2c3.2,0,5.32-1.96,5.32-4.94a4.43,4.43,0,0,0-4.66-4.7,4.607,4.607,0,0,0-2.18.5l.14-1.08.08-.82h5.72V-14H11.61l-.74,8.1h3.58a2.28,2.28,0,0,1,1.5-.58,1.612,1.612,0,0,1,1.68,1.7,1.633,1.633,0,0,1-1.68,1.74,1.621,1.621,0,0,1-1.7-1.26H10.71C10.79-1.52,12.77.2,15.91.2ZM28.31,0h3.56V-2.7h1.64V-5.9H31.85V-14H28.27L22.01-5.64V-2.7h6.3Zm-2.6-5.82,2.84-3.82-.12,2.5v1.32ZM40.01.26c3.22,0,5.44-1.72,5.44-4.2A3.89,3.89,0,0,0,43.37-7.4a3.5,3.5,0,0,0,1.52-2.94c0-2.28-2.04-3.92-4.88-3.92-2.82,0-4.86,1.64-4.86,3.92a3.648,3.648,0,0,0,1.5,2.96,3.879,3.879,0,0,0-2.06,3.44C34.59-1.46,36.79.26,40.01.26Zm0-3.14a1.5,1.5,0,0,1-1.7-1.5,1.5,1.5,0,0,1,1.7-1.5c1.08,0,1.72.6,1.72,1.5S41.09-2.88,40.01-2.88Zm0-5.74a1.367,1.367,0,0,1-1.54-1.36,1.367,1.367,0,0,1,1.54-1.36,1.357,1.357,0,0,1,1.54,1.36A1.357,1.357,0,0,1,40.01-8.62ZM58.61,0h4.02V-.34L59.17-5.5l3.14-4.76v-.34H58.43L56.11-6.72V-14H52.57V0h3.54V-4.02Zm9.96,3.6c3.28,0,5.68-1.8,5.68-5.34V-10.6H71.27l-.12.88a4.922,4.922,0,0,0-3.22-1.12,4.964,4.964,0,0,0-5.04,5.12A4.859,4.859,0,0,0,67.93-.7a5.156,5.156,0,0,0,2.8-.78v.26c0,1.26-.98,1.88-2.28,1.88-.88,0-1.62-.28-1.8-.96H63.23C63.51,2.36,65.67,3.6,68.57,3.6Zm0-7.14a2.021,2.021,0,0,1-2.16-2.1,2.006,2.006,0,0,1,2.16-2.08,2.022,2.022,0,0,1,2.18,2.08A2.038,2.038,0,0,1,68.57-3.54ZM-89.061,21h1.33l4.788-8.946V11.2h-6.874v1.19h5.334l-4.578,8.484Zm10.346.14c1.96,0,3.318-1.148,3.318-2.786a2.6,2.6,0,0,0-1.666-2.478,2.45,2.45,0,0,0,1.3-2.2,2.762,2.762,0,0,0-3.052-2.618c-1.82,0-3.01,1.036-3.066,2.6h1.232c.042-.826.714-1.414,1.792-1.414a1.636,1.636,0,0,1,1.848,1.54,1.6,1.6,0,0,1-1.708,1.54h-1.12v1.176h1.12c1.26,0,2.072.686,2.072,1.722s-.812,1.708-2.114,1.708c-1.246,0-2-.658-2.058-1.652h-1.246C-81.991,20.006-80.717,21.14-78.715,21.14Zm6.958-.14h1.022l5.46-9.8H-66.3Zm.056-5.362a2.249,2.249,0,0,0,2.324-2.282,2.252,2.252,0,0,0-2.324-2.3,2.241,2.241,0,0,0-2.31,2.3A2.237,2.237,0,0,0-71.7,15.638Zm0-.952a1.276,1.276,0,0,1-1.316-1.33,1.268,1.268,0,0,1,1.316-1.33,1.26,1.26,0,0,1,1.316,1.33A1.276,1.276,0,0,1-71.7,14.686Zm6.412,6.44a2.237,2.237,0,0,0,2.31-2.282,2.241,2.241,0,0,0-2.31-2.3,2.252,2.252,0,0,0-2.324,2.3A2.249,2.249,0,0,0-65.289,21.126Zm0-.952a1.276,1.276,0,0,1-1.316-1.33,1.268,1.268,0,0,1,1.316-1.33,1.26,1.26,0,0,1,1.316,1.33A1.268,1.268,0,0,1-65.289,20.174Zm7.966.826h1.19V11.2h-1.19Zm6.986.126a3.706,3.706,0,0,0,3.864-3.836,3.706,3.706,0,0,0-3.864-3.836A3.713,3.713,0,0,0-54.2,17.29,3.713,3.713,0,0,0-50.337,21.126Zm0-1.12a2.585,2.585,0,0,1-2.646-2.716,2.585,2.585,0,0,1,2.646-2.716,2.6,2.6,0,0,1,2.66,2.716A2.6,2.6,0,0,1-50.337,20.006Zm5.8.994h1.19V16.968a2.312,2.312,0,0,1,2.394-2.408,3.316,3.316,0,0,1,.8.112V13.594a3.942,3.942,0,0,0-.938-.126,2.563,2.563,0,0,0-2.254,1.218V13.58h-1.19Zm8.428.112c1.75,0,3.136-.714,3.136-2.254,0-1.414-1.176-1.918-2.912-2.142-1.54-.2-2.016-.476-2.016-1.134s.644-1.05,1.764-1.05c1.008,0,1.666.434,1.736,1.148h1.2c-.084-1.386-1.176-2.24-2.912-2.24-1.68,0-3,.728-3,2.142,0,1.316.8,1.918,2.926,2.226,1.554.238,1.988.476,1.988,1.106,0,.728-.756,1.092-1.9,1.092-1.12,0-1.862-.476-1.918-1.316h-1.218C-39.165,20.2-37.975,21.112-36.113,21.112Zm11.858.014a3.592,3.592,0,0,0,2.8-1.218V21h1.19V11.2h-1.19v3.472a3.592,3.592,0,0,0-2.8-1.218,3.64,3.64,0,0,0-3.724,3.836A3.64,3.64,0,0,0-24.255,21.126Zm.14-1.12a2.577,2.577,0,0,1-2.646-2.716,2.577,2.577,0,0,1,2.646-2.716,2.584,2.584,0,0,1,2.674,2.716A2.584,2.584,0,0,1-24.115,20.006Zm9.59,1.12a3.641,3.641,0,0,0,3.6-2.352h-1.288a2.491,2.491,0,0,1-2.31,1.232,2.488,2.488,0,0,1-2.562-2.31H-10.7a3.721,3.721,0,0,0-3.822-4.242,3.684,3.684,0,0,0-3.808,3.836A3.684,3.684,0,0,0-14.525,21.126Zm-2.534-4.452a2.476,2.476,0,0,1,2.534-2.1,2.57,2.57,0,0,1,2.576,2.1ZM-5.131,21h1.19V11.2h-1.19Zm6.846.126A3.664,3.664,0,0,0,4.487,19.95V21h1.19V13.58H4.487v1.05a3.664,3.664,0,0,0-2.772-1.176A3.64,3.64,0,0,0-2.009,17.29,3.64,3.64,0,0,0,1.715,21.126Zm.14-1.12A2.577,2.577,0,0,1-.791,17.29a2.577,2.577,0,0,1,2.646-2.716,2.588,2.588,0,0,1,2.66,2.716A2.588,2.588,0,0,1,1.855,20.006Zm13.986,1.12a3.648,3.648,0,0,0,3.724-3.836,3.648,3.648,0,0,0-3.724-3.836,3.592,3.592,0,0,0-2.8,1.218V13.58h-1.19v9.576h1.19V19.908A3.592,3.592,0,0,0,15.841,21.126Zm-.154-1.12a2.592,2.592,0,0,1-2.674-2.716,2.592,2.592,0,0,1,2.674-2.716,2.581,2.581,0,0,1,2.66,2.716A2.581,2.581,0,0,1,15.687,20.006ZM21.5,21h1.19V16.968a2.312,2.312,0,0,1,2.394-2.408,3.316,3.316,0,0,1,.8.112V13.594a3.942,3.942,0,0,0-.938-.126,2.563,2.563,0,0,0-2.254,1.218V13.58H21.5Zm9.016.126a3.706,3.706,0,0,0,3.864-3.836,3.706,3.706,0,0,0-3.864-3.836,3.713,3.713,0,0,0-3.864,3.836A3.713,3.713,0,0,0,30.513,21.126Zm0-1.12a2.585,2.585,0,0,1-2.646-2.716,2.654,2.654,0,1,1,5.306,0A2.6,2.6,0,0,1,30.513,20.006Zm8.96,1.12a3.592,3.592,0,0,0,2.8-1.218V21h1.19V11.2h-1.19v3.472a3.592,3.592,0,0,0-2.8-1.218,3.64,3.64,0,0,0-3.724,3.836A3.64,3.64,0,0,0,39.473,21.126Zm.14-1.12a2.577,2.577,0,0,1-2.646-2.716,2.661,2.661,0,1,1,5.32,0A2.584,2.584,0,0,1,39.613,20.006ZM48.9,21.112a3.217,3.217,0,0,0,2.618-1.19V21H52.7V13.58h-1.19V17.7A2.224,2.224,0,0,1,49.1,20.034c-1.372,0-2.072-.812-2.072-2.338V13.58h-1.19V17.7C45.843,19.866,46.949,21.112,48.9,21.112Zm9.436.014a3.6,3.6,0,0,0,3.682-2.786H60.8a2.411,2.411,0,0,1-2.436,1.666,2.529,2.529,0,0,1-2.618-2.7,2.544,2.544,0,0,1,2.618-2.73A2.451,2.451,0,0,1,60.8,16.226h1.19a3.577,3.577,0,0,0-3.654-2.772,3.664,3.664,0,0,0-3.808,3.85A3.665,3.665,0,0,0,58.331,21.126Zm8.386-.084c.252,0,.56-.014.854-.042V19.894a6.681,6.681,0,0,1-.714.042c-1.036,0-1.428-.42-1.428-1.4V14.574h2.044V13.58H65.429V11.7l-1.19.126v1.75H62.685v.994h1.554v4.1C64.239,20.3,65.023,21.042,66.717,21.042ZM69.349,21h1.19V13.58h-1.19Zm.6-8.414a.889.889,0,0,0,.924-.882.924.924,0,1,0-1.848,0A.888.888,0,0,0,69.951,12.586Zm6.384,8.54A3.706,3.706,0,0,0,80.2,17.29a3.864,3.864,0,0,0-7.728,0A3.713,3.713,0,0,0,76.335,21.126Zm0-1.12a2.585,2.585,0,0,1-2.646-2.716,2.654,2.654,0,1,1,5.306,0A2.6,2.6,0,0,1,76.335,20.006Zm5.8.994h1.19V16.912a2.268,2.268,0,0,1,2.436-2.366c1.386,0,2.114.812,2.114,2.38V21h1.19V16.884c0-2.2-1.148-3.416-3.094-3.416a3.246,3.246,0,0,0-2.646,1.2V13.58h-1.19ZM-79.079,42h6.65V40.81H-75.8l-1.2.028,2.464-2.254c1.428-1.288,2.03-2.282,2.03-3.514a2.947,2.947,0,0,0-3.192-3.01,3.033,3.033,0,0,0-3.178,3.3h1.232a1.856,1.856,0,0,1,1.946-2.1,1.752,1.752,0,0,1,1.932,1.848c0,.854-.448,1.5-1.54,2.534l-3.766,3.514Zm8.442,0h1.33l4.788-8.946V32.2h-6.874v1.19h5.334l-4.578,8.484Zm9.45,0h1.022l5.46-9.8h-1.022Zm.056-5.362a2.249,2.249,0,0,0,2.324-2.282,2.252,2.252,0,0,0-2.324-2.3,2.241,2.241,0,0,0-2.31,2.3A2.237,2.237,0,0,0-61.131,36.638Zm0-.952a1.276,1.276,0,0,1-1.316-1.33,1.268,1.268,0,0,1,1.316-1.33,1.26,1.26,0,0,1,1.316,1.33A1.276,1.276,0,0,1-61.131,35.686Zm6.412,6.44a2.237,2.237,0,0,0,2.31-2.282,2.241,2.241,0,0,0-2.31-2.3,2.252,2.252,0,0,0-2.324,2.3A2.249,2.249,0,0,0-54.719,42.126Zm0-.952a1.276,1.276,0,0,1-1.316-1.33,1.268,1.268,0,0,1,1.316-1.33,1.26,1.26,0,0,1,1.316,1.33A1.268,1.268,0,0,1-54.719,41.174Zm11.214.952a3.641,3.641,0,0,0,3.6-2.352h-1.288a2.491,2.491,0,0,1-2.31,1.232,2.488,2.488,0,0,1-2.562-2.31h6.384a3.721,3.721,0,0,0-3.822-4.242,3.684,3.684,0,0,0-3.808,3.836A3.684,3.684,0,0,0-43.505,42.126Zm-2.534-4.452a2.476,2.476,0,0,1,2.534-2.1,2.57,2.57,0,0,1,2.576,2.1ZM-37.793,42h1.19V37.912a2.268,2.268,0,0,1,2.436-2.366c1.386,0,2.114.812,2.114,2.38V42h1.19V37.884c0-2.2-1.148-3.416-3.094-3.416a3.246,3.246,0,0,0-2.646,1.2V34.58h-1.19Zm12.978,0h1.19V37.968a2.312,2.312,0,0,1,2.394-2.408,3.316,3.316,0,0,1,.8.112V34.594a3.942,3.942,0,0,0-.938-.126,2.563,2.563,0,0,0-2.254,1.218V34.58h-1.19Zm8.96.126a3.641,3.641,0,0,0,3.6-2.352h-1.288a2.491,2.491,0,0,1-2.31,1.232,2.488,2.488,0,0,1-2.562-2.31h6.384a3.721,3.721,0,0,0-3.822-4.242,3.684,3.684,0,0,0-3.808,3.836A3.684,3.684,0,0,0-15.855,42.126Zm-2.534-4.452a2.476,2.476,0,0,1,2.534-2.1,2.57,2.57,0,0,1,2.576,2.1Zm11.158,4.368c.252,0,.56-.014.854-.042V40.894a6.682,6.682,0,0,1-.714.042c-1.036,0-1.428-.42-1.428-1.4V35.574h2.044V34.58H-8.519V32.7l-1.19.126v1.75h-1.554v.994h1.554v4.1C-9.709,41.3-8.925,42.042-7.231,42.042Zm5.852.084A3.706,3.706,0,0,0,2.485,38.29a3.706,3.706,0,0,0-3.864-3.836A3.713,3.713,0,0,0-5.243,38.29,3.713,3.713,0,0,0-1.379,42.126Zm0-1.12A2.585,2.585,0,0,1-4.025,38.29a2.585,2.585,0,0,1,2.646-2.716,2.6,2.6,0,0,1,2.66,2.716A2.6,2.6,0,0,1-1.379,41.006Zm8.736,1.106a3.217,3.217,0,0,0,2.618-1.19V42h1.19V34.58H9.975V38.7a2.224,2.224,0,0,1-2.408,2.338c-1.372,0-2.072-.812-2.072-2.338V34.58H4.3V38.7C4.3,40.866,5.411,42.112,7.357,42.112ZM13.545,42h1.19V37.968a2.312,2.312,0,0,1,2.394-2.408,3.316,3.316,0,0,1,.8.112V34.594a3.942,3.942,0,0,0-.938-.126,2.563,2.563,0,0,0-2.254,1.218V34.58h-1.19Zm12.894.126a3.664,3.664,0,0,0,2.772-1.176V42H30.4V34.58h-1.19v1.05a3.806,3.806,0,1,0-2.772,6.5Zm.14-1.12a2.717,2.717,0,1,1,2.66-2.716A2.577,2.577,0,0,1,26.579,41.006Zm8.932,1.106c1.75,0,3.136-.714,3.136-2.254,0-1.414-1.176-1.918-2.912-2.142-1.54-.2-2.016-.476-2.016-1.134s.644-1.05,1.764-1.05c1.008,0,1.666.434,1.736,1.148h1.2c-.084-1.386-1.176-2.24-2.912-2.24-1.68,0-3,.728-3,2.142,0,1.316.8,1.918,2.926,2.226,1.554.238,1.988.476,1.988,1.106,0,.728-.756,1.092-1.9,1.092-1.12,0-1.862-.476-1.918-1.316H32.389C32.459,41.2,33.649,42.112,35.511,42.112Zm7.63,0c1.75,0,3.136-.714,3.136-2.254,0-1.414-1.176-1.918-2.912-2.142-1.54-.2-2.016-.476-2.016-1.134s.644-1.05,1.764-1.05c1.008,0,1.666.434,1.736,1.148h1.2c-.084-1.386-1.176-2.24-2.912-2.24-1.68,0-3,.728-3,2.142,0,1.316.8,1.918,2.926,2.226,1.554.238,1.988.476,1.988,1.106,0,.728-.756,1.092-1.9,1.092-1.12,0-1.862-.476-1.918-1.316H40.019C40.089,41.2,41.279,42.112,43.141,42.112ZM48.153,42h1.19V34.58h-1.19Zm.6-8.414a.888.888,0,0,0,.924-.882.924.924,0,1,0-1.848,0A.888.888,0,0,0,48.755,33.586Zm6.328,8.54a3.641,3.641,0,0,0,3.6-2.352H57.393A2.653,2.653,0,0,1,52.521,38.7h6.384a3.721,3.721,0,0,0-3.822-4.242,3.836,3.836,0,0,0,0,7.672Zm-2.534-4.452a2.476,2.476,0,0,1,2.534-2.1,2.57,2.57,0,0,1,2.576,2.1Zm11.158,4.368c.252,0,.56-.014.854-.042V40.894a6.682,6.682,0,0,1-.714.042c-1.036,0-1.428-.42-1.428-1.4V35.574h2.044V34.58H62.419V32.7l-1.19.126v1.75H59.675v.994h1.554v4.1C61.229,41.3,62.013,42.042,63.707,42.042Zm5.656,0c.252,0,.56-.014.854-.042V40.894a6.682,6.682,0,0,1-.714.042c-1.036,0-1.428-.42-1.428-1.4V35.574h2.044V34.58H68.075V32.7l-1.19.126v1.75H65.331v.994h1.554v4.1C66.885,41.3,67.669,42.042,69.363,42.042Zm5.8.084a3.641,3.641,0,0,0,3.6-2.352H77.469A2.653,2.653,0,0,1,72.6,38.7h6.384a3.721,3.721,0,0,0-3.822-4.242,3.836,3.836,0,0,0,0,7.672Zm-2.534-4.452a2.476,2.476,0,0,1,2.534-2.1,2.57,2.57,0,0,1,2.576,2.1Z" transform="translate(542 68)" fill="#29fdc1"/>
</svg>
