<svg id="Groupe_186" data-name="Groupe 186" xmlns="http://www.w3.org/2000/svg" width="664" height="423" viewBox="0 0 664 423">
  <rect id="bg" width="664" height="423" fill="none"/>
  <g id="podium2" transform="translate(404 237.126)">
    <g id="item" transform="translate(41 -87.546)">
      <path id="Tracé_426" data-name="Tracé 426" d="M50.172,46.638c7.186,0,10.528,12.172,15.142,16.786s16.229,12.808,21,11.535-1.83-9.467,0-11.3,8.916,2.273,10.1-1.193c1.909-5.574-4.3-4.535-4.3-9.547S100,50.616,100,46.638s-6.67-5.3-6.67-8.525S100,34.307,100,30.489s-8.831-2.864-8.831-5.251,6.8-7.518,4.3-10.024-7.458-.656-9.308-2.506,6.431-8.936,2.625-11.575C84.308-1.97,68.019,6.861,63.723,13.3S56.669,30.011,50.172,30.011s-8.048-11.337-13.9-17.184S15.446-3.231,11.217,1C8.4,3.81,14.8,8.532,13.127,12.589S5.489,10.68,3.819,15.214C2.829,17.9,9.069,22.613,9.069,25c0,5.012-9.069.716-9.069,5.728,0,2.387,8.115,3.63,8.115,7.065s-7.876,4.152-6.683,7.97,7.4,2.148,7.4,5.251-5.476,7.042-4.3,10.024c2.267,5.728,6.638-1.6,9.069,2.267,2.257,3.59-3.456,8.243-1.432,10.267,3.575,3.575,16.292-2.812,22.2-8.716,7.16-7.16,9.891-18.218,15.8-18.218" transform="translate(0 0)" fill="#637771" stroke="#29fdc1" stroke-width="2"/>
      <path id="Tracé_427" data-name="Tracé 427" d="M319.575,293.494A31.723,31.723,0,0,1,307,290.733a.971.971,0,0,1,.845-1.748c.071.034,7.164,3.4,14.762,2.368,7.877-1.069,14.584-2.431,14.65-2.446a.971.971,0,1,1,.388,1.9c-.066.013-6.837,1.39-14.776,2.465a24.486,24.486,0,0,1-3.292.218" transform="translate(-272.553 -256.54)" fill="#29fdc1"/>
      <path id="Tracé_428" data-name="Tracé 428" d="M307.421,361.215a.971.971,0,0,1-.461-1.826c.345-.186,8.53-4.545,15.774-4.545,7.261,0,14.88,4.375,15.2,4.56a.971.971,0,1,1-.975,1.68c-.074-.044-7.495-4.3-14.226-4.3-6.749,0-14.774,4.27-14.855,4.314a.975.975,0,0,1-.459.116" transform="translate(-272.551 -315.145)" fill="#29fdc1"/>
    </g>
  </g>
</svg>
