<svg id="Groupe_188" data-name="Groupe 188" xmlns="http://www.w3.org/2000/svg" width="435" height="922" viewBox="0 0 435 922">
  <g id="poulet" transform="translate(60.214 20.274)">
    <g id="Groupe_24" data-name="Groupe 24" transform="translate(0 0)">
      <path id="Tracé_70" data-name="Tracé 70" d="M42.219,72.323l14.217-47.94a28.754,28.754,0,0,1,7.3-7.077c4.184-2.581,12.47-9.99,4.165-12.422S58.84,14.236,54.894,8.994,46.24-4.26,41.182,2.738s6.277,10.686,7.01,11.619S32.869,77.815,32.869,77.815l7.623,1.9Z" transform="translate(-7.71 0)" fill="#191a1a" stroke="#fd29cc" stroke-width="1.5"/>
      <path id="Tracé_71" data-name="Tracé 71" d="M.421,115.093a5.171,5.171,0,0,0,.817,5.4c.74.925,2.7,1.1,3.37,1.829.917.99,1.769,3.076,1.008,4.172s.947,4.868,1.367,5.233.256,3.4.256,3.4,1.949,3.013,3.968.751S14.8,116.573.421,115.093" transform="translate(0 -24.323)" fill="#191a1a" stroke="#fd29cc" stroke-width="1.5"/>
      <path id="Tracé_72" data-name="Tracé 72" d="M40,71.049s19,12.984,6.5,43.689-37.955,9.532-37.955,9.532S13.111,111.8.559,104.982c0,0,13.152-44.558,39.443-33.934" transform="translate(-0.559 -15.363)" fill="#fd29cc" stroke="#fd29cc" stroke-width="1"/>
    </g>
  </g>
  <rect id="Rectangle_94" data-name="Rectangle 94" width="435" height="922" fill="none"/>
</svg>
