<svg id="Groupe_16" data-name="Groupe 16" xmlns="http://www.w3.org/2000/svg" xmlns:xlink="http://www.w3.org/1999/xlink" width="435" height="922" viewBox="0 0 435 922">
  <defs>
    <clipPath id="clip-path">
      <rect id="Rectangle_12" data-name="Rectangle 12" width="425.873" height="901.173" fill="none"/>
    </clipPath>
  </defs>
  <rect id="bg" width="435" height="922" fill="none"/>
  <g id="Groupe_5" data-name="Groupe 5" transform="translate(4.072 10.349)">
    <g id="Groupe_4" data-name="Groupe 4" transform="translate(0 -0.001)" clip-path="url(#clip-path)">
      <path id="Tracé_12" data-name="Tracé 12" d="M246.161,36.929l25.08-7.166a9.038,9.038,0,0,1,3.3-.311l23.325,2.121a11.634,11.634,0,0,1,6.655,2.872l19.836,17.547L354.07,71.267a6.675,6.675,0,0,0,.086-3.31l-3.818-16.542a9.164,9.164,0,0,0-2.933-4.871L296.471,2.438a7.948,7.948,0,0,0-5.2-1.94H275.462A5.271,5.271,0,0,0,273.8.769L246.435,9.889a5.982,5.982,0,0,0-3.961,4.432l-7.92,37.254a.062.062,0,0,0,.114.044l5.684-10.1A9.729,9.729,0,0,1,246.161,36.929Z" transform="translate(-29.838 -0.062)" fill="none" stroke="#29fdc1" stroke-miterlimit="10" stroke-width="1.5"/>
      <line id="Ligne_1" data-name="Ligne 1" x2="2.618" y2="563.822" transform="translate(302.374 84.66)" fill="none" stroke="#29fdc1" stroke-miterlimit="10" stroke-width="1.5"/>
      <ellipse id="objectif-out" cx="29.675" cy="16.147" rx="29.675" ry="16.147" transform="translate(216.84 32.729)" fill="none" stroke="#29fdc1" stroke-miterlimit="10" stroke-width="1.5"/>
      <ellipse id="Ellipse_2" data-name="Ellipse 2" cx="10.91" cy="6.11" rx="10.91" ry="6.11" transform="translate(236.042 43.203)" fill="none" stroke="#29fdc1" stroke-miterlimit="10" stroke-width="1.5"/>
      <path id="Tracé_13" data-name="Tracé 13" d="M301.484,43.042c-5.44-3.4-13.441-5.543-22.37-5.543-9.194,0-17.411,2.275-22.854,5.848l12.381,11.608h.124a3.552,3.552,0,0,1-.124-.873c0-3.374,4.885-6.11,10.91-6.11s10.91,2.735,10.91,6.11a3.512,3.512,0,0,1-.124.873h.124Z" transform="translate(-32.599 -4.769)" fill="none" stroke="#29fdc1" stroke-miterlimit="10" stroke-width="1.5"/>
      <ellipse id="Ellipse_3" data-name="Ellipse 3" cx="3.491" cy="1.746" rx="3.491" ry="1.746" transform="translate(243.024 47.567)" fill="none" stroke="#29fdc1" stroke-miterlimit="10" stroke-width="1.5"/>
      <line id="Ligne_2" data-name="Ligne 2" y1="78.562" x2="125.972" transform="translate(299.464 667.247)" fill="none" stroke="#29fdc1" stroke-miterlimit="10" stroke-width="1.5"/>
      <line id="Ligne_3" data-name="Ligne 3" x1="297.33" y1="67.216" transform="translate(2.134 678.593)" fill="none" stroke="#29fdc1" stroke-miterlimit="10" stroke-width="1.5"/>
      <line id="Ligne_4" data-name="Ligne 4" x1="0.582" y2="63.702" transform="translate(298.882 745.809)" fill="none" stroke="#29fdc1" stroke-miterlimit="10" stroke-width="1.5"/>
      <path id="Tracé_14" data-name="Tracé 14" d="M14.2,877.175a22.488,22.488,0,0,0,5.494,15.058,30.411,30.411,0,0,1,4.867-9.078C21.094,881.667,16.817,879.539,14.2,877.175Z" transform="translate(-1.805 -111.585)" fill="none" stroke="#29fdc1" stroke-miterlimit="10" stroke-width="1.5"/>
      <path id="Tracé_15" data-name="Tracé 15" d="M48.91,876.733v0a59.531,59.531,0,0,0,.493,6.92c5.535,2.675,7.928,11.4,5.337,20.418-2.787,9.7-10.28,16.068-16.736,14.214s-9.431-11.224-6.645-20.929a26.235,26.235,0,0,1,3.022-6.782l-3.7-5.321s-2.455-.82-5.566-2.156A30.678,30.678,0,0,0,19.8,893.608c-3.787,13.183,1.407,26.243,11.6,29.169s21.525-5.387,25.311-18.57C59.988,892.785,56.524,881.459,48.91,876.733Z" transform="translate(-2.361 -111.529)" fill="none" stroke="#29fdc1" stroke-miterlimit="10" stroke-width="1.5"/>
      <path id="Tracé_16" data-name="Tracé 16" d="M48.7,906.915a4.488,4.488,0,0,1-3.289-1.94l-9.313-13.388a26.234,26.234,0,0,0-3.021,6.782c-2.787,9.7.189,19.075,6.645,20.929s13.949-4.51,16.736-14.214c2.59-9.02.2-17.743-5.336-20.418.426,3.878,1.093,8.978,1.869,15.251S50.9,907.1,48.7,906.915Z" transform="translate(-4.074 -112.538)" fill="none" stroke="#29fdc1" stroke-miterlimit="10" stroke-width="1.5"/>
      <path id="Tracé_17" data-name="Tracé 17" d="M469.2,898.416c1.746,3.491,4.84,2.989,6.11.873,1.167-1.945,1.639-6.666,1.728-11.609a103.871,103.871,0,0,1-3.474-10.211,32.042,32.042,0,0,0-3.066-7.065C467.512,877.509,466.164,892.355,469.2,898.416Z" transform="translate(-59.469 -110.724)" fill="none" stroke="#29fdc1" stroke-miterlimit="10" stroke-width="1.5"/>
      <path id="Tracé_18" data-name="Tracé 18" d="M317.856,970.119a9.13,9.13,0,0,1-4.036-2.605,24.82,24.82,0,0,0,5.21,14.825,37.12,37.12,0,0,1,6.379-9.94C323.136,971.751,320.576,971.026,317.856,970.119Z" transform="translate(-39.921 -123.077)" fill="none" stroke="#29fdc1" stroke-miterlimit="10" stroke-width="1.5"/>
      <path id="Tracé_19" data-name="Tracé 19" d="M348.451,964.469a58.953,58.953,0,0,1,3.192,8.986c4.7,3.127,7.492,12.367,6.48,22.935-1.212,12.66-7.422,22.423-13.87,21.8s-10.693-11.38-9.48-24.041a40.034,40.034,0,0,1,3.243-12.674c-1.856-3.411-3.438-6-4.2-6.513-1.612-1.074-4.515-1.917-8.157-2.957a38.538,38.538,0,0,0-8.3,15.235c-4.653,16.2,1.234,32.1,13.149,35.528s25.346-6.934,30-23.133C365.01,983.946,359.626,968.528,348.451,964.469Z" transform="translate(-40.168 -122.69)" fill="none" stroke="#29fdc1" stroke-miterlimit="10" stroke-width="1.5"/>
      <path id="Tracé_20" data-name="Tracé 20" d="M358.546,1001.533a4.721,4.721,0,0,1-8.484-.143c-2.053-4.319-6.091-12.691-9.306-18.6a40.034,40.034,0,0,0-3.244,12.674c-1.212,12.661,3.033,23.424,9.481,24.041s12.658-9.145,13.87-21.8c1.012-10.568-1.78-19.808-6.48-22.936,1.18,4.129,2.414,9.175,3.99,15.478C359.808,995.98,359.545,999.454,358.546,1001.533Z" transform="translate(-42.909 -124)" fill="none" stroke="#29fdc1" stroke-miterlimit="10" stroke-width="1.5"/>
      <path id="Tracé_21" data-name="Tracé 21" d="M20.173,856.113v5.873s-8.728,2.295-8.728,8.4,18.329,12.219,18.329,12.219l13.015,18.709a4.485,4.485,0,0,0,3.289,1.94c2.206.181,5.066-.725,4.291-7-1.4-11.289-2.442-18.8-2.363-22.171A3.7,3.7,0,0,1,49.66,871.1l1.129-.753a1.521,1.521,0,0,0-.346-2.7l-18.924-5.979v-5.74A28.6,28.6,0,0,1,20.173,856.113Z" transform="translate(-1.456 -108.882)" fill="none" stroke="#29fdc1" stroke-miterlimit="10" stroke-width="1.5"/>
      <path id="Tracé_22" data-name="Tracé 22" d="M355.062,985.816c-4.364-17.456-6.11-25.311-11.346-30.548s-7.855-6.109-7.855-6.109l-.3-8.654a35.114,35.114,0,0,1-14.54-.538v6.413s-6.11-2.458-8.728,5.4,0,13.092,5.237,14.838c7.075,2.358,13.092,3.491,15.71,5.237,2.087,1.391,10.269,18.3,13.508,25.113a4.721,4.721,0,0,0,8.484.143C356.233,995.028,356.5,991.554,355.062,985.816Z" transform="translate(-39.597 -119.573)" fill="none" stroke="#29fdc1" stroke-miterlimit="10" stroke-width="1.5"/>
      <path id="Tracé_23" data-name="Tracé 23" d="M13.445,839v11.479s5.237,6.416,20.074,2.925l18.2,11.331,191.267,55H275.6v4.785s16.232,8.276,30.647,0V911.992l-5.659,4.249Z" transform="translate(-1.71 -106.729)" fill="none" stroke="#29fdc1" stroke-miterlimit="10" stroke-width="1.5"/>
      <path id="Tracé_24" data-name="Tracé 24" d="M312.488,102.382l2.562,553.7,38.411,5.939-2.586-567.3-37.551,7.663Z" transform="translate(-39.752 -12.048)" fill="none" stroke="#29fdc1" stroke-miterlimit="10" stroke-width="1.5"/>
      <path id="Tracé_25" data-name="Tracé 25" d="M261.9,79.573,287.31,93.01a13.807,13.807,0,0,0,6.454,1.6H303.4l38.877-7.935a11.32,11.32,0,0,0,6.432-3.844l4.059-4.872a6.674,6.674,0,0,0,1.293-2.479L324.342,56.208,304.507,38.661a11.636,11.636,0,0,0-6.656-2.872l-23.325-2.12a9.031,9.031,0,0,0-3.3.31l-25.08,7.166a9.735,9.735,0,0,0-5.808,4.587l-5.894,10.478v.035l25.1,21.716A12.61,12.61,0,0,0,261.9,79.573Z" transform="translate(-29.824 -4.277)" fill="none" stroke="#29fdc1" stroke-miterlimit="10" stroke-width="1.5"/>
      <path id="Tracé_26" data-name="Tracé 26" d="M253.445,29.848l8.728.873,2.343-2.083-11.071-3.256Z" transform="translate(-32.241 -3.228)" fill="none" stroke="#29fdc1" stroke-miterlimit="10" stroke-width="1.5"/>
      <path id="Tracé_27" data-name="Tracé 27" d="M270.028,12.244,261.3,10.5l-7.855,6.982v3.942l13.222,3.411,3.361-2.988Z" transform="translate(-32.241 -1.335)" fill="none" stroke="#29fdc1" stroke-miterlimit="10" stroke-width="1.5"/>
      <path id="Tracé_28" data-name="Tracé 28" d="M473.28,837.367c1.8-1.17,1.884-6.5,1.571-11.175l-17.452,13.1C463.518,839.119,471.312,838.644,473.28,837.367Z" transform="translate(-58.186 -105.1)" fill="none" stroke="#29fdc1" stroke-miterlimit="10" stroke-width="1.5"/>
      <path id="socle" d="M3.429,769.758l167.7-50.138a1.8,1.8,0,0,1,.785-.054l252.067,38.98a1.789,1.789,0,0,1,1.516,1.768v44.833a1.787,1.787,0,0,1-.715,1.43L299.643,900.521a1.787,1.787,0,0,1-1.539.3l-296.28-79.7A1.79,1.79,0,0,1,.5,819.327l1.652-47.917A1.79,1.79,0,0,1,3.429,769.758Z" transform="translate(-0.064 -91.533)" fill="none" stroke="#29fdc1" stroke-miterlimit="10" stroke-width="1.5"/>
      <path id="Tracé_30" data-name="Tracé 30" d="M467.317,865.622l.058.059Z" transform="translate(-59.448 -110.116)" fill="none" stroke="#29fdc1" stroke-miterlimit="10" stroke-width="1.5"/>
      <path id="Tracé_31" data-name="Tracé 31" d="M464.526,863.338l0,0Z" transform="translate(-59.093 -109.825)" fill="none" stroke="#29fdc1" stroke-miterlimit="10" stroke-width="1.5"/>
      <path id="Tracé_32" data-name="Tracé 32" d="M465.513,864.029l.025.019Z" transform="translate(-59.218 -109.913)" fill="none" stroke="#29fdc1" stroke-miterlimit="10" stroke-width="1.5"/>
      <path id="Tracé_33" data-name="Tracé 33" d="M466.443,864.794l.043.038Z" transform="translate(-59.337 -110.01)" fill="none" stroke="#29fdc1" stroke-miterlimit="10" stroke-width="1.5"/>
      <path id="Tracé_34" data-name="Tracé 34" d="M468.14,866.506l.065.073Z" transform="translate(-59.553 -110.228)" fill="none" stroke="#29fdc1" stroke-miterlimit="10" stroke-width="1.5"/>
      <path id="Tracé_35" data-name="Tracé 35" d="M469.631,868.4l.055.078Z" transform="translate(-59.742 -110.469)" fill="none" stroke="#29fdc1" stroke-miterlimit="10" stroke-width="1.5"/>
      <path id="Tracé_36" data-name="Tracé 36" d="M479.015,891.51c.171.36.34.693.509,1C479.355,892.2,479.186,891.869,479.015,891.51Z" transform="translate(-60.936 -113.409)" fill="none" stroke="#29fdc1" stroke-miterlimit="10" stroke-width="1.5"/>
      <path id="Tracé_37" data-name="Tracé 37" d="M478.426,890.2h0c.171.4.342.784.513,1.143C478.768,890.983,478.6,890.6,478.426,890.2Z" transform="translate(-60.861 -113.242)" fill="none" stroke="#29fdc1" stroke-miterlimit="10" stroke-width="1.5"/>
      <path id="Tracé_38" data-name="Tracé 38" d="M470.305,869.391c.011.017.022.034.032.051C470.327,869.425,470.316,869.408,470.305,869.391Z" transform="translate(-59.828 -110.595)" fill="none" stroke="#29fdc1" stroke-miterlimit="10" stroke-width="1.5"/>
      <path id="Tracé_39" data-name="Tracé 39" d="M468.91,867.433c.022.028.044.055.065.083Z" transform="translate(-59.65 -110.346)" fill="none" stroke="#29fdc1" stroke-miterlimit="10" stroke-width="1.5"/>
      <path id="Tracé_40" data-name="Tracé 40" d="M470.932,870.4Z" transform="translate(-59.908 -110.724)" fill="none" stroke="#29fdc1" stroke-miterlimit="10" stroke-width="1.5"/>
      <path id="Tracé_41" data-name="Tracé 41" d="M448.328,864.161h0c-1.218,2.7-1.695,4.691,3.415,12.128.146-5.517.587-11.171,1.719-14.447A18.517,18.517,0,0,0,448.328,864.161Z" transform="translate(-56.93 -109.635)" fill="none" stroke="#29fdc1" stroke-miterlimit="10" stroke-width="1.5"/>
      <path id="Tracé_42" data-name="Tracé 42" d="M454.328,861.842Z" transform="translate(-57.795 -109.635)" fill="none" stroke="#29fdc1" stroke-miterlimit="10" stroke-width="1.5"/>
      <path id="Tracé_43" data-name="Tracé 43" d="M473.372,898.138c-1.27,2.117-4.364,2.618-6.109-.873-3.031-6.062-1.684-20.907,1.3-28.012-2.711-4.586-7.363-9.364-14.492-7.473-2.49,7.21-1.643,25.931-1.643,29.375,0,3.491,1.746,10.152,4.364,12.058s7.855,1.906,12.219,1.033c3.935-.787,7.158-3,7.115-15.577a23.557,23.557,0,0,1-1.023-2.142C475.011,891.472,474.539,896.193,473.372,898.138Z" transform="translate(-57.536 -109.573)" fill="none" stroke="#29fdc1" stroke-miterlimit="10" stroke-width="1.5"/>
      <path id="Tracé_44" data-name="Tracé 44" d="M478.542,878.579c-.281-14.26-1.846-22.812-2.909-27.058a6.208,6.208,0,0,0-3.991-4.367l-5.324-1.842v-4.976c-3.075.339-6.8.518-10.057.611l2.343-1.76-9.286,6.972v6.4l-.873,8.717c16.583-10.474,22.693,12.219,22.693,12.219S478.993,901.427,478.542,878.579Z" transform="translate(-57.047 -106.753)" fill="none" stroke="#29fdc1" stroke-miterlimit="10" stroke-width="1.5"/>
    </g>
  </g>
</svg>
