<svg id="Groupe_188" data-name="Groupe 188" xmlns="http://www.w3.org/2000/svg" width="435" height="922" viewBox="0 0 435 922">
  <g id="pizza" transform="translate(43.74 64.76)">
    <g id="Groupe_21" data-name="Groupe 21" transform="translate(0 0)">
      <path id="Tracé_62" data-name="Tracé 62" d="M103.51,79.8S52.877,18.887,50.213,9.37,39.554-.909,28.513,6.324-3.465,27.262.723,35.638,28.132,58.86,31.178,61.145,49.071,54.292,55.923,60s4.949,11.8,4.949,11.8,10.279-9.517,15.609,1.9c0,0,5.329-4.187,11.8,6.091,0,0,5.01-4.093,15.228,0" transform="translate(-0.054 -0.455)" fill="#191a1a" stroke="#fd29cc" stroke-width="1.5"/>
      <path id="Tracé_63" data-name="Tracé 63" d="M51.67,12.129S21.226,22.239,12.09,36.706c0,0,12.931,13.324,19.79,20.557,0,0,12.188-5.329,17.9-4.187s12.944,6.853,12.944,10.279c0,0,10.66-3.045,12.183,3.427,0,0,15.311,1.864,13.324,12.563,0,0-6.471-8.121-11.8-6.091,0,0-5.964-10.405-15.609-1.9,0,0,.949-18.424-19-12.447,0,0-4.567,6.048-12.935.219S5.871,45.589.668,35.183,22.114,7.392,29.475,3.839s15.355-4.985,17.131-2.81,3.657,5.686,5.064,11.1" transform="translate(0 0)" fill="#fd29cc" stroke="#fd29cc" stroke-width="1"/>
      <path id="Tracé_64" data-name="Tracé 64" d="M55.065,49.5A4.464,4.464,0,1,1,50.6,45.035,4.464,4.464,0,0,1,55.065,49.5" transform="translate(-14.146 -13.809)" fill="#fd29cc" stroke="#fd29cc" stroke-width="1"/>
      <path id="Tracé_65" data-name="Tracé 65" d="M105.426,71.45a4.464,4.464,0,1,1-4.464-4.464,4.464,4.464,0,0,1,4.464,4.464" transform="translate(-29.589 -20.54)" fill="#fd29cc" stroke="#fd29cc" stroke-width="1"/>
      <path id="Tracé_66" data-name="Tracé 66" d="M121.65,88.619a2.535,2.535,0,1,1-2.536-2.536,2.535,2.535,0,0,1,2.536,2.536" transform="translate(-35.746 -26.395)" fill="#fd29cc" stroke="#fd29cc" stroke-width="1"/>
      <path id="Tracé_67" data-name="Tracé 67" d="M78.412,55.128a6.293,6.293,0,1,1-6.292-6.292,6.292,6.292,0,0,1,6.292,6.292" transform="translate(-20.184 -14.975)" fill="#fd29cc" stroke="#fd29cc" stroke-width="1"/>
      <path id="Tracé_68" data-name="Tracé 68" d="M74.058,33.177a6.293,6.293,0,1,1-6.292-6.293,6.292,6.292,0,0,1,6.292,6.293" transform="translate(-18.849 -8.243)" fill="#fd29cc" stroke="#fd29cc" stroke-width="1"/>
      <path id="Tracé_69" data-name="Tracé 69" d="M142.227,112.487s-9.774-7.81-15.783-2.61l.555,2.61s4.876-2.841,15.228,0" transform="translate(-38.771 -33.144)" fill="#fd29cc" stroke="#fd29cc" stroke-width="1"/>
    </g>
  </g>
  <rect id="Rectangle_94" data-name="Rectangle 94" width="435" height="922" fill="none"/>
</svg>
