<svg id="Groupe_188" data-name="Groupe 188" xmlns="http://www.w3.org/2000/svg" width="435" height="922" viewBox="0 0 435 922">
  <g id="banane" transform="matrix(-0.259, -0.966, 0.966, -0.259, 80.182, 144.104)">
    <g id="Groupe_18" data-name="Groupe 18" transform="translate(0 0)">
      <path id="Tracé_57" data-name="Tracé 57" d="M145.542,6.3s8.314-1.256,9.958-.912a1.422,1.422,0,0,1-.722,2.338c-1.936.854-7.734,3.54-7.734,3.54Z" transform="translate(-56.505 -2.067)" fill="#191a1a" stroke="#fd29cc" stroke-width="1.5"/>
      <path id="Tracé_58" data-name="Tracé 58" d="M16.273,39.309C10.3,43.023-2.362,54.069.385,62.539s20.908-2.2,31.738-7.438,11.9-33.035-15.85-15.791" transform="translate(0 -13.098)" fill="#fd29cc" stroke="#fd29cc" stroke-width="1"/>
      <path id="Tracé_59" data-name="Tracé 59" d="M91.541,1.881S74.321-.981,45.518,14.028,17.267,3.65,17.267,3.65A21.694,21.694,0,0,0,24.06,27.159c11.882,10.311,19.341.973,19.341.973S24.475,41.2,28.231,55.887,41.79,70.021,41.79,70.021s-16.212-12.139.522-28.611,39.58-25.457,48.88-26.755,11.39-10.483.349-12.774" transform="translate(-6.283 -0.645)" fill="#191a1a" stroke="#fd29cc" stroke-width="1.5"/>
      <path id="Tracé_60" data-name="Tracé 60" d="M107.575,9.618S78.1,10.738,52.267,31.22,46.349,68.3,46.349,68.3,43.9,53.641,57.565,41c10.648-9.847,28.155-20,39.763-22.745s11.953-6.367,10.248-8.641" transform="translate(-15.149 -3.734)" fill="#191a1a" stroke="#fd29cc" stroke-width="1.5"/>
      <path id="Tracé_61" data-name="Tracé 61" d="M81.754,10.295C69.181,13.582,38.8,24.386,30.219,17.108c0,0,6.827,3.4,25.639-6.16s43.78-16.359,48.3-5.064c0,0-16.88,2.967-22.4,4.411" transform="translate(-11.732 0)" fill="#191a1a" stroke="#fd29cc" stroke-width="1.5"/>
    </g>
  </g>
  <rect id="Rectangle_94" data-name="Rectangle 94" width="435" height="922" fill="none"/>
</svg>
