<svg id="Groupe_28" data-name="Groupe 28" xmlns="http://www.w3.org/2000/svg" width="435" height="922" viewBox="0 0 435 922">
  <rect id="bg" width="435" height="922" fill="none"/>
  <g id="fourchette" transform="translate(8.981 40.491)">
    <path id="Tracé_80" data-name="Tracé 80" d="M668.722,454.45c3.942,6.069,13.252,9.912,12.613,16.106-.669,6.485-15.734-2.386-15.734-2.386Z" transform="translate(-592.162 -404.307)" fill="#191a1a" stroke="#29fdc1" stroke-width="1.5"/>
    <path id="Union_1" data-name="Union 1" d="M45.919,34.419c-4.54-2.269-5.673-7.515-8.018-10.312-1.749-2.086-7.589-4.562-21.7-10.545L16.442,13C11.9,11.073,6.474,8.773,0,5.986L1.177,0C3.707,1.057,30.962,16.1,37.66,18.962c2.933,1.255,3.825,1.2,5.232.985,3.383-.526,5.8-.155,10.94,2.045,8.8,3.768,18.45,5.156,26.809,6.531,1.3.214.922,1.223-.076,1.156a169.73,169.73,0,0,1-20.34-2.551c-1.994-.351-2.269.271-.148.858a141.087,141.087,0,0,0,19.788,3.428c1.424.158.779,1.037-.174,1.018A141.843,141.843,0,0,1,59.4,30.577c-2.1-.333-2.207.272-.116.786,7.239,1.779,15.414,2.188,19.423,2.594,1.186.12.9.971-.331.992a99.245,99.245,0,0,1-19.931-1.234c-2.113-.32-2.071.368-.052.847,7.859,1.865,17.591,2.264,18.793,2.4.845.1,1.309.45,1.145.74.174.129-.014.347-.552.384-2.035.137-4.494.227-7.169.227C62.318,38.313,51.976,37.446,45.919,34.419Z" transform="translate(48.98 49.161)" fill="#191a1a" stroke="#29fdc1" stroke-miterlimit="10" stroke-width="1.5"/>
    <path id="Tracé_83" data-name="Tracé 83" d="M77.815,58.306c-.039,1.759-.154,3.528-.36,5.265-.085.753-.193,1.5-.315,2.238-.036.219-.075.439-.115.655s-.079.413-.118.616-.085.409-.128.609a28.053,28.053,0,0,1-2.057,6.238c-.148.3-.3.6-.459.871-2.166,3.83-5.19,4.986-7.837,4.829a7.04,7.04,0,0,1-5.511-2.9A7.23,7.23,0,0,1,53,80.715a7.034,7.034,0,0,1-5.461-4.383,9.871,9.871,0,0,1-.6-2.428c-1.369,2.745-4.357,4.039-8.367,2.7-3.849-1.288-4.79-4.344-4.852-7.221-4.492,2.585-9.776-.334-11.634-3.292a32.844,32.844,0,0,1-4.469-11.562c-1.576-8.069-4.036-11.08-4.669-15.739-2.28-2.559-2.408-1.491-7.555-6.582C3.922,30.757,2.1,29.168,0,27.464.829,4.086,5.645.282,24.81,0,39.671,12.715,50.554,20.725,52.559,22.039,60.53,27.258,73.841,35.8,76.095,43.2a42.575,42.575,0,0,1,1.491,8.334,61.024,61.024,0,0,1,.229,6.772" transform="translate(0 0.003)" fill="#191a1a" stroke="#29fdc1" stroke-width="1.5"/>
    <path id="Tracé_84" data-name="Tracé 84" d="M552.186,563.833c2.3-5.928,1.131-11.352,6.266-15.745" transform="translate(-491.26 -487.614)" fill="none" stroke="#29fdc1" stroke-linecap="round" stroke-linejoin="round" stroke-width="1.5"/>
    <path id="Tracé_85" data-name="Tracé 85" d="M434.3,579.646c-4.087,2.558-5.021,6.152-6.463,9.443" transform="translate(-380.63 -515.69)" fill="none" stroke="#29fdc1" stroke-linecap="round" stroke-linejoin="round" stroke-width="1.5"/>
    <path id="Tracé_86" data-name="Tracé 86" d="M309.258,601.986c2.2-.779,3.5-2.13,5.331-2.916" transform="translate(-275.135 -532.97)" fill="none" stroke="#29fdc1" stroke-linecap="round" stroke-linejoin="round" stroke-width="1.5"/>
  </g>
</svg>
