<svg id="Groupe_28" data-name="Groupe 28" xmlns="http://www.w3.org/2000/svg" width="435" height="922" viewBox="0 0 435 922">
  <rect id="bg" width="435" height="922" fill="none"/>
  <g id="assiete" transform="translate(11.981 35.494)">
    <g id="Groupe_27" data-name="Groupe 27" transform="translate(-3 4.997)">
      <path id="Tracé_73" data-name="Tracé 73" d="M553.782,68.952v.033l-.039,0-5.383-.616-.662-.075-1.238-.144-.842-.095-.108-.013-2.778-.318-3.44-.393-.459-.052-5.5-.629L496.7,62.456a21.108,21.108,0,0,1-11.093-6.169c-2.106-2.12-3.689-4.341-5.121-5.982-13.262-15.172-30.553-33.312-45.437-48.556,13.573.19,31.353.478,49.722.721,6.614,8.593,13.786,17.56,20.427,25.131,2.6,2.965,2.952,2.988,7.876,4.406,7.247,2.094,15.335,4.108,23.948,13.272,8.495,9.039,12.843,13.019,14.952,16.443a11.08,11.08,0,0,1,1.54,3.889,17.8,17.8,0,0,1,.265,3.342" transform="translate(-387.049 -1.556)" fill="#191a1a" stroke="#29fdc1" stroke-width="1.5"/>
      <path id="Tracé_74" data-name="Tracé 74" d="M397.36,522.866c-2.113,21.48,31.779,42.4,75.7,46.716s81.24-9.589,83.353-31.069-31.779-42.4-75.7-46.716-81.24,9.589-83.353,31.069" transform="translate(-353.433 -436.834)" fill="#191a1a" stroke="#29fdc1" stroke-width="1.5"/>
      <path id="Tracé_87" data-name="Tracé 87" d="M.073,18.38C-1.577,30.774,24.894,42.842,59.2,45.335s63.451-5.533,65.1-17.926S99.479,2.947,65.175.454,1.724,5.987.073,18.38" transform="translate(62.516 65.391) rotate(3)" fill="#191a1a" stroke="#29fdc1" stroke-width="1.5"/>
      <path id="Tracé_76" data-name="Tracé 76" d="M1092.38,384.514c4.285,5.6,9.117,7.975,9.846,12.756.681,4.467.657,6.192,1.894,11.065s-5.029,7.51-9.865,2.293c-2.569-2.771-3.442-6.454-4.124-9.6-3.888-1.506-17.857-.2-27.131-8.125Z" transform="translate(-945.712 -342.088)" fill="#191a1a" stroke="#29fdc1" stroke-width="1.5"/>
      <path id="Tracé_88" data-name="Tracé 88" d="M175.151,71.427l-4.472-2.84L201,60.392l2.96,3.768Z" transform="translate(-56.217 -19.892)" fill="#191a1a"/>
    </g>
  </g>
</svg>
