<svg id="Groupe_16" data-name="Groupe 16" xmlns="http://www.w3.org/2000/svg" xmlns:xlink="http://www.w3.org/1999/xlink" width="435" height="922" viewBox="0 0 435 922">
  <defs>
    <clipPath id="clip-path">
      <rect id="Rectangle_13" data-name="Rectangle 13" width="303.3" height="479.592" fill="none"/>
    </clipPath>
  </defs>
  <rect id="bg" width="435" height="922" fill="none"/>
  <g id="Groupe_7" data-name="Groupe 7" transform="translate(72 221.138)">
    <g id="Groupe_6" data-name="Groupe 6" clip-path="url(#clip-path)">
      <path id="Tracé_45" data-name="Tracé 45" d="M14.38,142.192c.176-.913.393-2.022.643-3.292l-.707-.064a6.423,6.423,0,0,1-5.641-4.428,6.688,6.688,0,0,1,1.125-5.8c3.2-4.8,3.846-10.238,9.61-11.2,1.486-7.034,3.18-14.8,4.968-22.533l-6.916,6.483A46.383,46.383,0,0,0,6.778,116.382C4,122.645,2.8,122.607.8,132.607c-.784,3.922,0,9,2,12,1.163,1.745,5.551,5.294,11,7.017v-3.417A31.545,31.545,0,0,1,14.38,142.192Z" fill="none" stroke="#29fdc1" stroke-miterlimit="10" stroke-width="1.5"/>
      <path id="Tracé_46" data-name="Tracé 46" d="M286.8,151.607s-4-50-4-53a4.2,4.2,0,0,1,.583-2.148c-2.436-11.134-4.318-17-4.583-18.852-1-7-3-41.294-3-41.294l-.779-13.021c-.716-1.1-1.337-3.639-3.666-5.009C249.8,5.607,181.8-.393,127.8.607c-14.872.275-68.1.061-85.357,10.545A10.32,10.32,0,0,0,37.6,19.466L35.8,53.607C27.928,73.723,17,128.718,14.38,142.192a31.544,31.544,0,0,0-.58,6.015v185.4c0,56,38,128,38,128,26,18,93,21,146,14,34.813-4.6,54.265-16.577,60.638-21.17a11.363,11.363,0,0,0,3.586-4.231c13.655-28.025,29.286-100.785,31.508-111.32a16.708,16.708,0,0,0,.336-2.578c4.282-81.949,2.156-140.278-1.686-180.593C287.456,156.6,286.8,151.607,286.8,151.607Z" fill="#191a1a" stroke="#29fdc1" stroke-miterlimit="10" stroke-width="1.5"/>
      <path id="Tracé_47" data-name="Tracé 47" d="M290.617,105.819s2.183,25.788,5.183,34.788c.707,2.121,1,2,3,2s2-1,2-6c0-9-.156-21.312-2-25C297.8,109.607,290.434,99.031,290.617,105.819Z" fill="none" stroke="#29fdc1" stroke-miterlimit="10" stroke-width="1.5"/>
      <path id="Tracé_48" data-name="Tracé 48" d="M294.8,102.607c-2-3-6-6-7-7-2-2-5,0-5,3s4,53,4,53,1.039,7.974,10,2c6-4,6-9,6-9s0-29-3-34S294.8,102.607,294.8,102.607Z" fill="none" stroke="#29fdc1" stroke-miterlimit="10" stroke-width="1.5"/>
      <path id="Tracé_49" data-name="Tracé 49" d="M89.654,255.277,51.8,227.237v28.371l64,46,23.426-13.613-43.15-28.243Q92.8,257.608,89.654,255.277Z" fill="none" stroke="#29fdc1" stroke-miterlimit="10" stroke-width="1.5"/>
      <path id="Tracé_50" data-name="Tracé 50" d="M191.8,171.607l-74.349-43.451L51.8,171.091v32.461l43.113,30.456q7.923,5.6,16.359,10.4l51.985,29.619L189.8,258.607Z" fill="none" stroke="#29fdc1" stroke-miterlimit="10" stroke-width="1.5"/>
    </g>
  </g>
</svg>
