<svg id="Groupe_172" data-name="Groupe 172" xmlns="http://www.w3.org/2000/svg" width="541" height="535" viewBox="0 0 541 535">
  <rect id="bg" width="541" height="535" fill="none"/>
  <g id="Groupe_171" data-name="Groupe 171" transform="translate(51.587 47.104)">
    <g id="quartier2" transform="matrix(0.602, 0.799, -0.799, 0.602, 2826.916, -3843.439)">
      <path id="Tracé_401" data-name="Tracé 401" d="M1126.433,446.4c.989,12.888,3.714,86.744-61.387,104.423-64.872,17.617-99.776-35.926-105.615-45.855a1.5,1.5,0,0,1,.776-2.161l3.329-1.212,37.612-13.7a1.5,1.5,0,0,1,1.582.362c3.762,3.857,23.411,21.933,51.151,10.147,26.829-11.4,25.907-31.225,25.191-36.282a1.492,1.492,0,0,1,.988-1.62l44.4-15.4a1.493,1.493,0,0,1,1.976,1.3" transform="translate(467.886 4062.172)" fill="#33413d" stroke="#707070" stroke-width="2"/>
      <path id="Tracé_402" data-name="Tracé 402" d="M1126.433,446.4c.989,12.888,3.714,86.744-61.387,104.423-64.872,17.617-99.776-35.926-105.615-45.855a1.5,1.5,0,0,1,.776-2.161l3.329-1.212,37.612-13.7a1.5,1.5,0,0,1,1.582.362c3.762,3.857,23.411,21.933,51.151,10.147,26.829-11.4,25.907-31.225,25.191-36.282a1.492,1.492,0,0,1,.988-1.62l44.4-15.4A1.493,1.493,0,0,1,1126.433,446.4Z" transform="translate(467.886 4062.172)" fill="none" stroke="#29fdc1" stroke-miterlimit="10" stroke-width="2"/>
      <path id="Tracé_403" data-name="Tracé 403" d="M1128.658,448.9c.5,23.111-3.894,80.9-58.62,95.616-53.794,14.458-86.749-23.225-98.593-40.41l37.612-13.7a1.5,1.5,0,0,1,1.582.362c3.761,3.857,23.411,21.933,51.151,10.147,26.829-11.4,25.907-31.225,25.191-36.282a1.492,1.492,0,0,1,.988-1.62Z" transform="translate(459.977 4059.659)" fill="#191a1a" stroke="#707070" stroke-width="2"/>
      <path id="Tracé_404" data-name="Tracé 404" d="M1128.658,448.9c.5,23.111-3.894,80.9-58.62,95.616-53.794,14.458-86.749-23.225-98.593-40.41l37.612-13.7a1.5,1.5,0,0,1,1.582.362c3.761,3.857,23.411,21.933,51.151,10.147,26.829-11.4,25.907-31.225,25.191-36.282a1.492,1.492,0,0,1,.988-1.62Z" transform="translate(459.977 4059.659)" fill="none" stroke="#29fdc1" stroke-miterlimit="10" stroke-width="2"/>
      <path id="Tracé_405" data-name="Tracé 405" d="M1117.948,682.481a78.033,78.033,0,0,1-40.4-12.046.939.939,0,0,1,1.062-1.548,73.8,73.8,0,0,0,15.707,7.542c8.743,3.062,22.216,6.022,36.75,2.737a.939.939,0,0,1,.414,1.831,61.313,61.313,0,0,1-13.53,1.484" transform="translate(391.573 3917.388)" fill="#29fdc1"/>
    </g>
  </g>
</svg>
