<svg id="Groupe_172" data-name="Groupe 172" xmlns="http://www.w3.org/2000/svg" width="541" height="535" viewBox="0 0 541 535">
  <rect id="bg" width="541" height="535" fill="none"/>
  <g id="Groupe_171" data-name="Groupe 171" transform="translate(51.587 47.104)">
    <g id="quartier1" transform="translate(-1130.965 -4415.398)">
      <path id="Tracé_406" data-name="Tracé 406" d="M1042.305,262.691c5.153,11.854,31.909,80.746-23.815,118.766-55.529,37.885-106.039-1.279-114.807-8.75a1.5,1.5,0,0,1,.025-2.3l2.749-2.235,31.055-25.255a1.5,1.5,0,0,1,1.613-.175c4.817,2.413,29.3,13.059,51.654-7.16,21.617-19.558,14.256-37.986,11.924-42.53a1.492,1.492,0,0,1,.4-1.855l36.908-29.09a1.493,1.493,0,0,1,2.292.58" transform="translate(504.173 4180.757)" fill="#33413d" stroke="#707070" stroke-width="2"/>
      <path id="Tracé_407" data-name="Tracé 407" d="M1042.305,262.691c5.153,11.854,31.909,80.746-23.815,118.766-55.529,37.885-106.039-1.279-114.807-8.75a1.5,1.5,0,0,1,.025-2.3l2.749-2.235,31.055-25.255a1.5,1.5,0,0,1,1.613-.175c4.817,2.413,29.3,13.059,51.654-7.16,21.617-19.558,14.256-37.986,11.924-42.53a1.492,1.492,0,0,1,.4-1.855l36.908-29.09A1.493,1.493,0,0,1,1042.305,262.691Z" transform="translate(504.173 4180.757)" fill="none" stroke="#29fdc1" stroke-miterlimit="10" stroke-width="2"/>
      <path id="Tracé_408" data-name="Tracé 408" d="M1042.983,269.585c8.042,21.673,22.809,77.721-24.084,109.538-46.1,31.273-89.572,6.457-106.389-5.9l31.055-25.255a1.5,1.5,0,0,1,1.613-.175c4.817,2.413,29.3,13.059,51.654-7.16,21.618-19.558,14.256-37.986,11.924-42.53a1.492,1.492,0,0,1,.4-1.855Z" transform="translate(498.121 4175.713)" fill="#191a1a" stroke="#707070" stroke-width="2"/>
      <path id="Tracé_409" data-name="Tracé 409" d="M1042.983,269.585c8.042,21.673,22.809,77.721-24.084,109.538-46.1,31.273-89.572,6.457-106.389-5.9l31.055-25.255a1.5,1.5,0,0,1,1.613-.175c4.817,2.413,29.3,13.059,51.654-7.16,21.618-19.558,14.256-37.986,11.924-42.53a1.492,1.492,0,0,1,.4-1.855Z" transform="translate(498.121 4175.713)" fill="none" stroke="#29fdc1" stroke-miterlimit="10" stroke-width="2"/>
      <path id="Tracé_410" data-name="Tracé 410" d="M1052.589,577.577h-.319a74.123,74.123,0,0,1-17.742-2.05.939.939,0,0,1,.5-1.81,73.77,73.77,0,0,0,17.31,1.983c9.278.038,22.963-1.584,35.621-9.446a.939.939,0,1,1,.991,1.595c-12.912,8.02-26.839,9.729-36.359,9.729" transform="translate(419.597 3983.798)" fill="#29fdc1"/>
    </g>
  </g>
</svg>
