<svg id="Groupe_172" data-name="Groupe 172" xmlns="http://www.w3.org/2000/svg" width="541" height="535" viewBox="0 0 541 535">
  <rect id="bg" width="541" height="535" fill="none"/>
  <g id="Groupe_171" data-name="Groupe 171" transform="translate(51.587 47.104)">
    <g id="saucisse1" transform="translate(-1130 -4395)">
      <path id="Tracé_397" data-name="Tracé 397" d="M783.15,178.262c-13.817,29.572-49.411,79.376-81.561,77.467-6.781-.4-13.394-3.109-19.632-8.778-16.041-14.594-12.547-34.423,35.535-95.181,15.637-19.76,19.052-56.457,26.039-81.7,7.184-25.921,20.7-43.477,42.916-36.716a33.766,33.766,0,0,1,13.216,7.351c31.1,28.548-5.117,113.17-16.513,137.555" transform="translate(652.905 4329.545)" fill="#191a1a" stroke="#707070" stroke-width="2"/>
      <path id="Tracé_398" data-name="Tracé 398" d="M783.15,178.262c-13.817,29.572-49.411,79.376-81.561,77.467-6.781-.4-13.394-3.109-19.632-8.778-16.041-14.594-12.547-34.423,35.535-95.181,15.637-19.76,19.052-56.457,26.039-81.7,7.184-25.921,20.7-43.477,42.916-36.716a33.766,33.766,0,0,1,13.216,7.351C830.76,69.255,794.546,153.877,783.15,178.262Z" transform="translate(652.905 4329.545)" fill="none" stroke="#29fdc1" stroke-miterlimit="10" stroke-width="2"/>
      <path id="Tracé_399" data-name="Tracé 399" d="M834.949,194.419c-13.817,29.572-49.411,79.376-81.561,77.467,12.626-8.3,37.562-29.424,65.028-86.383,31.205-64.733,33.292-103.969,33.046-128.639,31.1,28.548-5.117,113.17-16.513,137.555" transform="translate(601.106 4313.389)" fill="#33413d" stroke="#707070" stroke-width="2"/>
      <path id="Tracé_400" data-name="Tracé 400" d="M834.949,194.419c-13.817,29.572-49.411,79.376-81.561,77.467,12.626-8.3,37.562-29.424,65.028-86.383,31.205-64.733,33.292-103.969,33.046-128.639C882.559,85.412,846.345,170.034,834.949,194.419Z" transform="translate(601.106 4313.389)" fill="none" stroke="#29fdc1" stroke-miterlimit="10" stroke-width="2"/>
    </g>
  </g>
</svg>
