<svg id="Groupe_188" data-name="Groupe 188" xmlns="http://www.w3.org/2000/svg" width="541" height="541" viewBox="0 0 541 541">
  <path id="Tracé_99" data-name="Tracé 99" d="M90.8,2.216,84.1,8.261a9.782,9.782,0,0,1-7.3,2.47q-2.147-.163-4.337-.164t-4.334.164a9.781,9.781,0,0,1-7.285-2.456L54.081,2.206A8.634,8.634,0,0,0,45.442.5,54.459,54.459,0,0,0,27.9,10.669a8.6,8.6,0,0,0-2.8,8.319L26.972,27.8a9.785,9.785,0,0,1-1.521,7.573,56.88,56.88,0,0,0-4.307,7.434,9.772,9.772,0,0,1-5.78,5.068l-8.6,2.786a8.562,8.562,0,0,0-5.8,6.581,55.725,55.725,0,0,0-.05,20.351A8.585,8.585,0,0,0,6.7,84.177l8.611,2.81a9.765,9.765,0,0,1,5.768,5.079,56.869,56.869,0,0,0,4.376,7.574,9.779,9.779,0,0,1,1.518,7.568L25.1,115.992a8.561,8.561,0,0,0,2.8,8.313,55.721,55.721,0,0,0,17.6,10.218,8.585,8.585,0,0,0,8.595-1.718l6.759-6.069a9.781,9.781,0,0,1,7.284-2.456q2.143.162,4.327.164t4.33-.164a9.781,9.781,0,0,1,7.3,2.47l6.682,6.027a8.561,8.561,0,0,0,8.6,1.733,55.714,55.714,0,0,0,17.649-10.132,8.585,8.585,0,0,0,2.81-8.3l-1.88-8.9a9.775,9.775,0,0,1,1.52-7.544,56.892,56.892,0,0,0,4.377-7.582,9.767,9.767,0,0,1,5.77-5.083l8.568-2.8a8.633,8.633,0,0,0,5.793-6.631,54.462,54.462,0,0,0-.029-20.278,8.6,8.6,0,0,0-5.8-6.588l-8.584-2.781a9.772,9.772,0,0,1-5.782-5.071,56.865,56.865,0,0,0-4.31-7.442,9.784,9.784,0,0,1-1.523-7.549l1.88-8.9a8.633,8.633,0,0,0-2.846-8.332A54.466,54.466,0,0,0,99.406.485,8.6,8.6,0,0,0,90.8,2.216m11,65.29A29.341,29.341,0,1,1,72.458,38.165,29.341,29.341,0,0,1,101.8,67.506" transform="translate(198.041 202.994)" fill="#191a1a" stroke="#29fdc1" stroke-width="2"/>
  <rect id="Rectangle_110" data-name="Rectangle 110" width="541" height="541" fill="none"/>
</svg>
