<svg id="Groupe_188" data-name="Groupe 188" xmlns="http://www.w3.org/2000/svg" width="541" height="541" viewBox="0 0 541 541">
  <g id="Union_3" data-name="Union 3" transform="translate(331.73 225.751) rotate(90)" fill="#191a1a">
    <path d="M 51.572265625 89.6165771484375 L 26.10912704467773 89.6165771484375 L 26.10912704467773 49.9161376953125 L 26.10912704467773 48.9161376953125 L 25.10912704467773 48.9161376953125 L 2.038733959197998 48.9161376953125 L 38.64453125 1.633526921272278 L 75.25067901611328 48.9161376953125 L 52.572265625 48.9161376953125 L 51.572265625 48.9161376953125 L 51.572265625 49.9161376953125 L 51.572265625 89.6165771484375 Z" stroke="none"/>
    <path d="M 50.57226181030273 88.61658477783203 L 50.57226181030273 47.91614151000977 L 73.21183013916016 47.91614151000977 L 38.6445426940918 3.26703953742981 L 4.07758903503418 47.91614151000977 L 27.10912704467773 47.91614151000977 L 27.10912704467773 88.61658477783203 L 50.57226181030273 88.61658477783203 M 52.57226181030273 90.61658477783203 L 25.10912704467773 90.61658477783203 L 25.10912704467773 49.91614151000977 L -0.000125644524814561 49.91614151000977 L 38.64452743530273 -4.759114744956605e-06 L 77.28955078125 49.91614151000977 L 52.57226181030273 49.91614151000977 L 52.57226181030273 90.61658477783203 Z" stroke="none" fill="#29fdc1"/>
  </g>
  <g id="Union_6" data-name="Union 6" transform="translate(331.73 375.002) rotate(90)" fill="#191a1a">
    <path d="M 51.572265625 89.6165771484375 L 26.10912704467773 89.6165771484375 L 26.10912704467773 49.9161376953125 L 26.10912704467773 48.9161376953125 L 25.10912704467773 48.9161376953125 L 2.038733959197998 48.9161376953125 L 38.64453125 1.633526921272278 L 75.25067901611328 48.9161376953125 L 52.572265625 48.9161376953125 L 51.572265625 48.9161376953125 L 51.572265625 49.9161376953125 L 51.572265625 89.6165771484375 Z" stroke="none"/>
    <path d="M 50.57226181030273 88.61658477783203 L 50.57226181030273 47.91614151000977 L 73.21183013916016 47.91614151000977 L 38.6445426940918 3.26703953742981 L 4.07758903503418 47.91614151000977 L 27.10912704467773 47.91614151000977 L 27.10912704467773 88.61658477783203 L 50.57226181030273 88.61658477783203 M 52.57226181030273 90.61658477783203 L 25.10912704467773 90.61658477783203 L 25.10912704467773 49.91614151000977 L -0.000125644524814561 49.91614151000977 L 38.64452743530273 -4.759114744956605e-06 L 77.28955078125 49.91614151000977 L 52.57226181030273 49.91614151000977 L 52.57226181030273 90.61658477783203 Z" stroke="none" fill="#29fdc1"/>
  </g>
  <g id="Union_5" data-name="Union 5" transform="translate(331.73 76.5) rotate(90)" fill="#191a1a">
    <path d="M 51.572265625 89.6165771484375 L 26.10912704467773 89.6165771484375 L 26.10912704467773 49.9161376953125 L 26.10912704467773 48.9161376953125 L 25.10912704467773 48.9161376953125 L 2.038733959197998 48.9161376953125 L 38.64453125 1.633526921272278 L 75.25067901611328 48.9161376953125 L 52.572265625 48.9161376953125 L 51.572265625 48.9161376953125 L 51.572265625 49.9161376953125 L 51.572265625 89.6165771484375 Z" stroke="none"/>
    <path d="M 50.57226181030273 88.61658477783203 L 50.57226181030273 47.91614151000977 L 73.21183013916016 47.91614151000977 L 38.6445426940918 3.26703953742981 L 4.07758903503418 47.91614151000977 L 27.10912704467773 47.91614151000977 L 27.10912704467773 88.61658477783203 L 50.57226181030273 88.61658477783203 M 52.57226181030273 90.61658477783203 L 25.10912704467773 90.61658477783203 L 25.10912704467773 49.91614151000977 L -0.000125644524814561 49.91614151000977 L 38.64452743530273 -4.759114744956605e-06 L 77.28955078125 49.91614151000977 L 52.57226181030273 49.91614151000977 L 52.57226181030273 90.61658477783203 Z" stroke="none" fill="#29fdc1"/>
  </g>
  <rect id="Rectangle_111" data-name="Rectangle 111" width="541" height="541" fill="none"/>
</svg>
