<svg id="Groupe_188" data-name="Groupe 188" xmlns="http://www.w3.org/2000/svg" width="541" height="541" viewBox="0 0 541 541">
  <g id="Union_4" data-name="Union 4" transform="translate(287.104 171.975) rotate(45)" fill="#191a1a">
    <path d="M 92.92127227783203 139.883056640625 L 46.63683319091797 139.883056640625 L 0.9999959468841553 139.883056640625 L 0.9999959468841553 94.92163848876953 L 46.63683319091797 94.92163848876953 L 47.63683319091797 94.92163848876953 L 47.63683319091797 93.92163848876953 L 47.63683319091797 46.96081924438477 L 47.63683319091797 1.000003695487976 L 92.92127227783203 1.000125646591187 L 92.92127227783203 46.96094512939453 L 92.92127227783203 93.92174530029297 L 92.92127227783203 139.883056640625 Z" stroke="none"/>
    <path d="M 91.92127227783203 138.8830718994141 L 91.92127227783203 2.000123262405396 L 48.63683319091797 2.00001335144043 L 48.63683319091797 95.921630859375 L 2.000012397766113 95.921630859375 L 2.000012397766113 138.8830718994141 L 91.92127227783203 138.8830718994141 M 93.92127227783203 140.8830718994141 L 1.232421891472768e-05 140.8830718994141 L 1.232421891472768e-05 93.921630859375 L 46.63683319091797 93.921630859375 L 46.63683319091797 8.320312190335244e-06 L 93.92127227783203 0.0001283203164348379 L 93.92127227783203 140.8830718994141 Z" stroke="none" fill="#29fdc1"/>
  </g>
  <rect id="Rectangle_110" data-name="Rectangle 110" width="541" height="541" fill="none"/>
</svg>
