<svg id="Groupe_32" data-name="Groupe 32" xmlns="http://www.w3.org/2000/svg" width="435" height="435" viewBox="0 0 435 435">
  <rect id="bg" width="435" height="435" fill="none"/>
  <g id="Union_3" data-name="Union 3" transform="translate(-593.5 -1340.5) rotate(90)" fill="#191a1a">
    <path d="M 1575.27001953125 -751.7504272460938 L 1541.237548828125 -751.7504272460938 L 1541.237548828125 -804.8983154296875 L 1541.237548828125 -805.6483154296875 L 1540.487548828125 -805.6483154296875 L 1509.508178710938 -805.6483154296875 L 1558 -869.7570190429688 L 1606.491943359375 -805.6483154296875 L 1576.02001953125 -805.6483154296875 L 1575.27001953125 -805.6483154296875 L 1575.27001953125 -804.8983154296875 L 1575.27001953125 -751.7504272460938 Z" stroke="none"/>
    <path d="M 1574.52001953125 -752.5004272460938 L 1574.52001953125 -806.3983154296875 L 1604.984252929688 -806.3983154296875 L 1558 -868.5137329101562 L 1511.015869140625 -806.3983154296875 L 1541.987548828125 -806.3983154296875 L 1541.987548828125 -752.5004272460938 L 1574.52001953125 -752.5004272460938 M 1576.02001953125 -751.0004272460938 L 1540.487548828125 -751.0004272460938 L 1540.487548828125 -804.8983154296875 L 1508.00048828125 -804.8983154296875 L 1558 -871.000244140625 L 1607.999633789062 -804.8983154296875 L 1576.02001953125 -804.8983154296875 L 1576.02001953125 -751.0004272460938 Z" stroke="none" fill="#29fdc1"/>
  </g>
</svg>
