<svg id="Groupe_188" data-name="Groupe 188" xmlns="http://www.w3.org/2000/svg" width="541" height="541" viewBox="0 0 541 541">
  <g id="Groupe_18" data-name="Groupe 18" transform="translate(380.571 103.866) rotate(-19)">
    <path id="Tracé_57" data-name="Tracé 57" d="M0,.822S7.033-.24,8.423.05a1.2,1.2,0,0,1-.611,1.978C6.176,2.751,1.27,5.022,1.27,5.022Z" transform="translate(75.315 2.755)" fill="#191a1a" stroke="#fd29cc" stroke-width="1.5"/>
    <path id="Tracé_58" data-name="Tracé 58" d="M13.765,4.714C8.71,7.855-2,17.2.325,24.363S18.011,22.5,27.172,18.072,37.236-9.872,13.765,4.714" transform="translate(0 17.458)" fill="#fd29cc" stroke="#fd29cc" stroke-width="1"/>
    <path id="Tracé_59" data-name="Tracé 59" d="M63.744.184s-14.566-2.42-38.93,10.275S.916,1.681.916,1.681A18.35,18.35,0,0,0,6.663,21.567c10.05,8.722,16.36.823,16.36.823S7.013,33.44,10.191,45.868,21.66,57.823,21.66,57.823s-13.713-10.268.442-24.2S55.583,12.087,63.449,10.99s9.634-8.868.295-10.805" transform="translate(8.375 0.861)" fill="#191a1a" stroke="#fd29cc" stroke-width="1.5"/>
    <path id="Tracé_60" data-name="Tracé 60" d="M57.99,0A88.523,88.523,0,0,0,11.205,18.273C-10.649,35.6,6.2,49.642,6.2,49.642s-2.073-12.4,9.487-23.093C24.694,18.219,39.5,9.633,49.321,7.309S59.432,1.924,57.99,0" transform="translate(20.192 4.977)" fill="#191a1a" stroke="#fd29cc" stroke-width="1.5"/>
    <path id="Tracé_61" data-name="Tracé 61" d="M43.593,8.708C32.957,11.489,7.261,20.628,0,14.471c0,0,5.775,2.88,21.688-5.21S58.721-4.577,62.544,4.977c0,0-14.279,2.51-18.951,3.731" transform="translate(15.638 0)" fill="#191a1a" stroke="#fd29cc" stroke-width="1.5"/>
  </g>
  <g id="poulet" transform="translate(428.547 308.887) rotate(-163)">
    <g id="Groupe_24" data-name="Groupe 24" transform="translate(0 0)">
      <path id="Tracé_70" data-name="Tracé 70" d="M6.42,49.66l9.762-32.918a19.744,19.744,0,0,1,5.015-4.86c2.873-1.772,8.563-6.859,2.86-8.53s-6.225,6.422-8.934,2.823-5.942-9.1-9.415-4.3,4.31,7.338,4.814,7.978S0,53.432,0,53.432l5.234,1.307Z" transform="translate(17.275 0)" fill="#191a1a" stroke="#fd29cc" stroke-width="1.5"/>
      <path id="Tracé_71" data-name="Tracé 71" d="M.289,0A3.55,3.55,0,0,0,.85,3.71c.508.635,1.851.756,2.314,1.256.629.68,1.215,2.112.692,2.865s.65,3.343.939,3.593.176,2.337.176,2.337,1.338,2.069,2.725.516S10.163,1.016.289,0" transform="translate(0 62.327)" fill="#191a1a" stroke="#fd29cc" stroke-width="1.5"/>
      <path id="Tracé_72" data-name="Tracé 72" d="M27.083,1.124s13.049,8.916,4.46,30S5.482,37.668,5.482,37.668A10.868,10.868,0,0,0,0,24.425s9.031-30.6,27.083-23.3" transform="translate(0 37.112)" fill="#fd29cc" stroke="#fd29cc" stroke-width="1"/>
    </g>
  </g>
  <g id="pizza" transform="translate(386.685 384.87)">
    <g id="Groupe_21" data-name="Groupe 21" transform="translate(0 0)">
      <path id="Tracé_62" data-name="Tracé 62" d="M75.135,58.293S38.406,14.108,36.473,7.2,28.741-.252,20.732,4.995-2.465,20.184.573,26.259,20.456,43.1,22.665,44.762s12.979-4.971,17.95-.829,3.59,8.561,3.59,8.561,7.457-6.9,11.323,1.381c0,0,3.866-3.037,8.561,4.419,0,0,3.634-2.969,11.046,0" transform="translate(-0.088 -0.738)" fill="#191a1a" stroke="#fd29cc" stroke-width="1.5"/>
      <path id="Tracé_63" data-name="Tracé 63" d="M37.481,8.8S15.4,16.132,8.77,26.626c0,0,9.38,9.665,14.356,14.912,0,0,8.841-3.866,12.983-3.037S45.5,43.472,45.5,45.957c0,0,7.733-2.209,8.837,2.486,0,0,11.107,1.352,9.665,9.113,0,0-4.694-5.891-8.561-4.419,0,0-4.327-7.548-11.322-1.381,0,0,.689-13.364-13.786-9.029,0,0-3.313,4.387-9.383.159S4.259,33.07.485,25.522s15.557-20.16,20.9-22.737S32.519-.831,33.808.747A21.033,21.033,0,0,1,37.481,8.8" transform="translate(0 0)" fill="#fd29cc" stroke="#fd29cc" stroke-width="1"/>
      <path id="Tracé_64" data-name="Tracé 64" d="M52.613,48.273a3.238,3.238,0,1,1-3.239-3.238,3.238,3.238,0,0,1,3.239,3.238" transform="translate(-22.931 -22.384)" fill="#fd29cc" stroke="#fd29cc" stroke-width="1"/>
      <path id="Tracé_65" data-name="Tracé 65" d="M102.974,70.224a3.238,3.238,0,1,1-3.238-3.238,3.238,3.238,0,0,1,3.238,3.238" transform="translate(-47.962 -33.294)" fill="#fd29cc" stroke="#fd29cc" stroke-width="1"/>
      <path id="Tracé_66" data-name="Tracé 66" d="M120.257,87.922a1.839,1.839,0,1,1-1.839-1.839,1.839,1.839,0,0,1,1.839,1.839" transform="translate(-57.943 -42.786)" fill="#fd29cc" stroke="#fd29cc" stroke-width="1"/>
      <path id="Tracé_67" data-name="Tracé 67" d="M74.956,53.4a4.565,4.565,0,1,1-4.564-4.564A4.564,4.564,0,0,1,74.956,53.4" transform="translate(-32.718 -24.273)" fill="#fd29cc" stroke="#fd29cc" stroke-width="1"/>
      <path id="Tracé_68" data-name="Tracé 68" d="M70.6,31.449a4.565,4.565,0,1,1-4.564-4.565A4.564,4.564,0,0,1,70.6,31.449" transform="translate(-30.554 -13.362)" fill="#fd29cc" stroke="#fd29cc" stroke-width="1"/>
      <path id="Tracé_69" data-name="Tracé 69" d="M137.893,111.28s-7.09-5.665-11.449-1.893l.4,1.893s3.537-2.061,11.046,0" transform="translate(-62.846 -53.725)" fill="#fd29cc" stroke="#fd29cc" stroke-width="1"/>
    </g>
  </g>
  <path id="Tracé_538" data-name="Tracé 538" d="M6.6,0h5.973V-23.1H8.382L.3-17.292l2.541,4.224,3.8-2.244L6.6-9.669ZM25.872.429c6.2,0,9.8-4.422,9.8-11.979s-3.6-11.979-9.8-11.979c-6.171,0-9.768,4.422-9.768,11.979S19.7.429,25.872.429Zm0-5.577c-2.409,0-3.663-2.145-3.663-6.4s1.254-6.4,3.663-6.4,3.663,2.145,3.663,6.4S28.281-5.148,25.872-5.148ZM10.362,34.94c5.412,0,9.372-2.97,9.372-8.811V11.51H14.817l-.2,1.452a8.122,8.122,0,0,0-5.313-1.848A8.191,8.191,0,0,0,.99,19.562a8.017,8.017,0,0,0,8.316,8.283,8.508,8.508,0,0,0,4.62-1.287v.429c0,2.079-1.617,3.1-3.762,3.1-1.452,0-2.673-.462-2.97-1.584H1.551C2.013,32.894,5.577,34.94,10.362,34.94Zm0-11.781A3.335,3.335,0,0,1,6.8,19.694a3.31,3.31,0,0,1,3.564-3.432,3.337,3.337,0,0,1,3.6,3.432A3.362,3.362,0,0,1,10.362,23.159ZM23.925,29h5.841V20.816c0-2.739,1.518-4.158,4.158-4.158a10.349,10.349,0,0,1,2.145.231V11.51a8.651,8.651,0,0,0-2.013-.264,5.731,5.731,0,0,0-4.587,2.046l-.2-1.782H23.925Zm14.454.3a3.055,3.055,0,1,0,0-6.105,3.056,3.056,0,1,0,0,6.105Z" transform="translate(472 111)" fill="#fd29cc"/>
  <path id="Tracé_540" data-name="Tracé 540" d="M6.6,0h5.973V-23.1H8.382L.3-17.292l2.541,4.224,3.8-2.244L6.6-9.669ZM24.651.33c5.28,0,8.778-3.234,8.778-8.151,0-4.62-3.069-7.755-7.689-7.755a7.6,7.6,0,0,0-3.6.825l.231-1.782.132-1.353h9.438V-23.1H17.556L16.335-9.735h5.907a3.762,3.762,0,0,1,2.475-.957,2.659,2.659,0,0,1,2.772,2.805,2.7,2.7,0,0,1-2.772,2.871A2.675,2.675,0,0,1,21.912-7.1H16.071C16.2-2.508,19.47.33,24.651.33ZM10.362,34.94c5.412,0,9.372-2.97,9.372-8.811V11.51H14.817l-.2,1.452a8.122,8.122,0,0,0-5.313-1.848A8.191,8.191,0,0,0,.99,19.562a8.017,8.017,0,0,0,8.316,8.283,8.508,8.508,0,0,0,4.62-1.287v.429c0,2.079-1.617,3.1-3.762,3.1-1.452,0-2.673-.462-2.97-1.584H1.551C2.013,32.894,5.577,34.94,10.362,34.94Zm0-11.781A3.335,3.335,0,0,1,6.8,19.694a3.31,3.31,0,0,1,3.564-3.432,3.337,3.337,0,0,1,3.6,3.432A3.362,3.362,0,0,1,10.362,23.159ZM23.925,29h5.841V20.816c0-2.739,1.518-4.158,4.158-4.158a10.349,10.349,0,0,1,2.145.231V11.51a8.651,8.651,0,0,0-2.013-.264,5.731,5.731,0,0,0-4.587,2.046l-.2-1.782H23.925Zm14.454.3a3.055,3.055,0,1,0,0-6.105,3.056,3.056,0,1,0,0,6.105Z" transform="translate(472 411)" fill="#fd29cc"/>
  <path id="Tracé_539" data-name="Tracé 539" d="M6.6,0h5.973V-23.1H8.382L.3-17.292l2.541,4.224,3.8-2.244L6.6-9.669Zm9.24,0H33.1V-5.346H28.017l-2.64.132,2.871-2.574c3.432-3.036,4.653-5.247,4.653-8.085,0-4.488-3.465-7.656-8.415-7.656-5.016,0-8.349,3.4-8.349,8.448h5.874a2.41,2.41,0,0,1,2.409-2.706,2.218,2.218,0,0,1,2.376,2.31c0,1.188-.594,2.046-2.607,3.96L15.84-3.8ZM10.362,34.94c5.412,0,9.372-2.97,9.372-8.811V11.51H14.817l-.2,1.452a8.122,8.122,0,0,0-5.313-1.848A8.191,8.191,0,0,0,.99,19.562a8.017,8.017,0,0,0,8.316,8.283,8.508,8.508,0,0,0,4.62-1.287v.429c0,2.079-1.617,3.1-3.762,3.1-1.452,0-2.673-.462-2.97-1.584H1.551C2.013,32.894,5.577,34.94,10.362,34.94Zm0-11.781A3.335,3.335,0,0,1,6.8,19.694a3.31,3.31,0,0,1,3.564-3.432,3.337,3.337,0,0,1,3.6,3.432A3.362,3.362,0,0,1,10.362,23.159ZM23.925,29h5.841V20.816c0-2.739,1.518-4.158,4.158-4.158a10.349,10.349,0,0,1,2.145.231V11.51a8.651,8.651,0,0,0-2.013-.264,5.731,5.731,0,0,0-4.587,2.046l-.2-1.782H23.925Zm14.454.3a3.055,3.055,0,1,0,0-6.105,3.056,3.056,0,1,0,0,6.105Z" transform="translate(472 260)" fill="#fd29cc"/>
  <rect id="Rectangle_111" data-name="Rectangle 111" width="541" height="541" fill="none"/>
</svg>
