<svg id="Groupe_188" data-name="Groupe 188" xmlns="http://www.w3.org/2000/svg" width="541" height="541" viewBox="0 0 541 541">
  <g id="Groupe_30" data-name="Groupe 30" transform="translate(47.638 148.66)">
    <g id="Groupe_31" data-name="Groupe 31" transform="translate(0 0)">
      <path id="Tracé_93" data-name="Tracé 93" d="M2280.562,1496.352h-23.276a3.646,3.646,0,0,1-3.641-3.641v-1.949H2284.2v1.949a3.646,3.646,0,0,1-3.641,3.641m-25.924-4.6v.955a2.651,2.651,0,0,0,2.648,2.648h23.276a2.651,2.651,0,0,0,2.648-2.648v-.955Z" transform="translate(-1856.504 -1228.058)" fill="#29fdc1" stroke="#29fdc1" stroke-width="1.5"/>
      <path id="Tracé_94" data-name="Tracé 94" d="M162.936,1496.4H139.66a3.646,3.646,0,0,1-3.642-3.642v-1.949h30.559v1.949a3.646,3.646,0,0,1-3.641,3.642m-25.924-4.6v.955a2.651,2.651,0,0,0,2.648,2.648h23.276a2.651,2.651,0,0,0,2.648-2.648v-.955Z" transform="translate(-112.049 -1228.096)" fill="#29fdc1" stroke="#29fdc1" stroke-width="1.5"/>
      <path id="Tracé_95" data-name="Tracé 95" d="M436.413,1433.448H9.31c-3.893,0-7.407-1.874-8.743-4.662A6.093,6.093,0,0,1,0,1426.227v-6.246H445.724v6.246a6.087,6.087,0,0,1-.564,2.551c-1.34,2.8-4.853,4.67-8.746,4.67M.994,1420.975v5.252a5.1,5.1,0,0,0,.474,2.137c1.171,2.443,4.324,4.09,7.843,4.09h427.1c3.519,0,6.672-1.647,7.846-4.1a5.088,5.088,0,0,0,.471-2.129v-5.252Z" transform="translate(0 -1169.75)" fill="#29fdc1" stroke="#29fdc1" stroke-width="1.5"/>
      <path id="Tracé_97" data-name="Tracé 97" d="M589.8,251.227H222.49V10.811A10.82,10.82,0,0,1,233.3,0H578.991A10.82,10.82,0,0,1,589.8,10.811Zm-366.315-.994H588.8V10.811A9.825,9.825,0,0,0,578.991,1H233.3a9.825,9.825,0,0,0-9.814,9.814Zm357.633-9.827H231.172V13.469a5.9,5.9,0,0,1,5.888-5.889H386.781v3.211a2.456,2.456,0,0,0,2.453,2.452h33.821a2.455,2.455,0,0,0,2.452-2.452V7.579H575.228a5.9,5.9,0,0,1,5.888,5.889Zm-348.951-.994H580.123V13.469a4.9,4.9,0,0,0-4.895-4.9H426.5v2.217a3.45,3.45,0,0,1-3.446,3.446H389.234a3.45,3.45,0,0,1-3.447-3.446V8.573H237.06a4.9,4.9,0,0,0-4.894,4.9Z" transform="translate(-183.283 -0.003)" fill="#29fdc1" stroke="#29fdc1" stroke-width="1.5"/>
      <path id="Tracé_98" data-name="Tracé 98" d="M1130.644,1425.928H1072.53a5.457,5.457,0,0,1-5.45-5.451v-.5h69.015v.5a5.457,5.457,0,0,1-5.451,5.451m-62.543-4.954a4.463,4.463,0,0,0,4.429,3.96h58.114a4.463,4.463,0,0,0,4.429-3.96Z" transform="translate(-879.038 -1169.75)" fill="#29fdc1" stroke="#29fdc1" stroke-width="1.5"/>
    </g>
  </g>
  <rect id="Rectangle_110" data-name="Rectangle 110" width="541" height="541" fill="none"/>
</svg>
