<svg id="Groupe_188" data-name="Groupe 188" xmlns="http://www.w3.org/2000/svg" width="541" height="541" viewBox="0 0 541 541">
  <rect id="bg" width="541" height="541" fill="none"/>
  <g id="scan-poulet" transform="translate(244.642 272.742)">
    <g id="poulet" transform="translate(0 0)">
      <g id="Groupe_24" data-name="Groupe 24" transform="translate(0 0)">
        <path id="Tracé_70" data-name="Tracé 70" d="M46.266,103.626,66.637,34.937A41.2,41.2,0,0,1,77.1,24.8c6-3.7,17.869-14.314,5.969-17.8S70.081,20.407,64.428,12.89,52.028-6.1,44.781,3.923s8.994,15.311,10.045,16.647-21.957,90.925-21.957,90.925l10.923,2.727Z" transform="translate(3.179 0.001)" fill="#191a1a" stroke="#fd29cc" stroke-width="2"/>
        <path id="Tracé_71" data-name="Tracé 71" d="M.6,115.093a7.408,7.408,0,0,0,1.173,7.742c1.061,1.326,3.855,1.579,4.829,2.62,1.314,1.418,2.534,4.406,1.445,5.977s1.353,6.971,1.956,7.5.367,4.876.367,4.876,2.792,4.318,5.685,1.076S21.207,117.213.6,115.093" transform="translate(0 14.965)" fill="#191a1a" stroke="#fd29cc" stroke-width="2"/>
        <path id="Tracé_72" data-name="Tracé 72" d="M57.073,71.757s27.228,18.6,9.307,62.6S12,148.012,12,148.012s6.545-17.87-11.439-27.633c0,0,18.844-63.843,56.514-48.621" transform="translate(-0.559 8.032)" fill="#fd29cc" stroke="#fd29cc" stroke-width="2"/>
      </g>
    </g>
  </g>
</svg>
