<svg id="Groupe_188" data-name="Groupe 188" xmlns="http://www.w3.org/2000/svg" width="541" height="541" viewBox="0 0 541 541">
  <rect id="bg" width="541" height="541" fill="none"/>
  <g id="scan-pizza" transform="translate(254.543 102.019)">
    <g id="pizza" transform="translate(0 0)">
      <g id="Groupe_21" data-name="Groupe 21" transform="translate(0 0)">
        <path id="Tracé_62" data-name="Tracé 62" d="M162.872,124.788S83.153,28.884,78.956,13.9,62.173-2.284,44.8,9.1-5.559,42.072,1.037,55.257s43.156,36.564,47.953,40.16,28.171-10.789,38.96-1.8S95.742,112.2,95.742,112.2s16.184-14.984,24.576,3c0,0,8.39-6.592,18.581,9.59,0,0,7.888-6.445,23.968,0" transform="translate(0.016 0.135)" fill="#191a1a" stroke="#fd29cc" stroke-width="2"/>
        <path id="Tracé_63" data-name="Tracé 63" d="M81.353,19.1S33.418,35.02,19.035,57.793c0,0,20.359,20.978,31.16,32.367,0,0,19.189-8.39,28.18-6.592s20.378,10.8,20.378,16.183c0,0,16.784-4.8,19.181,5.4,0,0,24.107,2.935,20.978,19.778,0,0-10.189-12.787-18.581-9.591,0,0-9.386-16.384-24.575-3,0,0,1.5-29.008-29.923-19.6,0,0-7.19,9.522-20.366.345S9.245,71.778,1.053,55.394,34.819,11.639,46.407,6.044,70.583-1.805,73.379,1.621s5.757,8.952,7.973,17.476" transform="translate(0 0)" fill="#fd29cc" stroke="#fd29cc" stroke-width="2"/>
        <path id="Tracé_64" data-name="Tracé 64" d="M60.194,52.063a7.029,7.029,0,1,1-7.029-7.028,7.03,7.03,0,0,1,7.029,7.028" transform="translate(4.229 4.129)" fill="#fd29cc" stroke="#fd29cc" stroke-width="2"/>
        <path id="Tracé_65" data-name="Tracé 65" d="M110.555,74.014a7.028,7.028,0,1,1-7.028-7.028,7.028,7.028,0,0,1,7.028,7.028" transform="translate(8.849 6.141)" fill="#fd29cc" stroke="#fd29cc" stroke-width="2"/>
        <path id="Tracé_66" data-name="Tracé 66" d="M124.563,90.075a3.992,3.992,0,1,1-3.992-3.992,3.992,3.992,0,0,1,3.992,3.992" transform="translate(10.69 7.893)" fill="#fd29cc" stroke="#fd29cc" stroke-width="2"/>
        <path id="Tracé_67" data-name="Tracé 67" d="M85.642,58.743a9.907,9.907,0,1,1-9.907-9.907,9.907,9.907,0,0,1,9.907,9.907" transform="translate(6.036 4.478)" fill="#fd29cc" stroke="#fd29cc" stroke-width="2"/>
        <path id="Tracé_68" data-name="Tracé 68" d="M81.293,36.8a9.907,9.907,0,1,1-9.908-9.909A9.907,9.907,0,0,1,81.293,36.8" transform="translate(5.641 2.467)" fill="#fd29cc" stroke="#fd29cc" stroke-width="2"/>
        <path id="Tracé_69" data-name="Tracé 69" d="M151.294,115.012s-15.388-12.3-24.85-4.11l.875,4.11s7.676-4.473,23.968,0" transform="translate(11.594 9.911)" fill="#fd29cc" stroke="#fd29cc" stroke-width="2"/>
      </g>
    </g>
  </g>
</svg>
