<svg id="Groupe_188" data-name="Groupe 188" xmlns="http://www.w3.org/2000/svg" width="541" height="541" viewBox="0 0 541 541">
  <rect id="bg" width="541" height="541" fill="none"/>
  <g id="scan-banane-blanc" transform="translate(80.316 199.898)">
    <g id="banane-blanc" transform="translate(0 51.511) rotate(-19)">
      <g id="Groupe_18" data-name="Groupe 18" transform="translate(0 0)">
        <path id="Tracé_57" data-name="Tracé 57" d="M0,1.548s13.241-2,15.857-1.453a2.264,2.264,0,0,1-1.15,3.723C11.625,5.176,2.392,9.454,2.392,9.454Z" transform="translate(141.774 5.187)" fill="#e3e3e3" stroke="#e3e3e3" stroke-linejoin="round" stroke-width="10"/>
        <path id="Tracé_58" data-name="Tracé 58" d="M25.911,8.87C16.4,14.783-3.762,32.372.613,45.86S33.9,42.353,51.15,34.016s18.94-52.6-25.238-25.141" transform="translate(0 32.867)" fill="#e3e3e3" stroke="#e3e3e3" stroke-linejoin="round" stroke-width="10"/>
        <path id="Tracé_59" data-name="Tracé 59" d="M120,.347S92.581-4.208,46.717,19.689,1.733,3.165,1.733,3.165A34.544,34.544,0,0,0,12.55,40.6c18.92,16.426,30.8,1.55,30.8,1.55S13.21,62.949,19.191,86.343s21.591,22.5,21.591,22.5S14.97,89.511,41.62,63.28s63.02-40.536,77.832-42.6,18.137-16.692.555-20.341" transform="translate(15.757 1.621)" fill="#e3e3e3" stroke="#e3e3e3" stroke-linejoin="round" stroke-width="10"/>
        <path id="Tracé_60" data-name="Tracé 60" d="M109.16,0S62.23,1.783,21.092,34.4,11.67,93.446,11.67,93.446,7.768,70.1,29.528,49.976C46.483,34.3,74.36,18.13,92.842,13.759S111.875,3.622,109.158,0" transform="translate(38.01 9.369)" fill="#e3e3e3" stroke="#e3e3e3" stroke-linejoin="round" stroke-width="10"/>
        <path id="Tracé_61" data-name="Tracé 61" d="M82.061,16.392C62.04,21.627,13.677,38.831,0,27.241c0,0,10.869,5.42,40.826-9.808s69.711-26.05,76.907-8.064c0,0-26.879,4.725-35.674,7.023" transform="translate(29.436 0)" fill="#e3e3e3" stroke="#e3e3e3" stroke-linejoin="round" stroke-width="10"/>
      </g>
    </g>
  </g>
</svg>
