<svg id="Groupe_172" data-name="Groupe 172" xmlns="http://www.w3.org/2000/svg" width="541" height="535" viewBox="0 0 541 535">
  <rect id="bg" width="541" height="535" fill="none"/>
  <g id="Groupe_171" data-name="Groupe 171" transform="translate(51.587 47.104)">
    <g id="tomate1" transform="translate(-1138 -4395)">
      <path id="Tracé_329" data-name="Tracé 329" d="M214.652,678.392c-9.248,36.44-45.975,57.262-82.414,48.014s-58.793-45.064-49.545-81.5,41.074-48.345,79.992-38.468c38.481,9.766,61.215,35.517,51.968,71.957" transform="translate(1036.54 3959.854)" fill="#191a1a" stroke="#707070" stroke-width="2"/>
      <path id="Tracé_330" data-name="Tracé 330" d="M214.652,678.392c-9.248,36.44-45.975,57.262-82.414,48.014s-58.793-45.064-49.545-81.5,41.074-48.345,79.992-38.468C201.165,616.2,223.9,641.952,214.652,678.392Z" transform="translate(1036.54 3959.854)" fill="none" stroke="#29fdc1" stroke-miterlimit="10" stroke-width="2"/>
      <path id="Tracé_331" data-name="Tracé 331" d="M218.53,685.674c-8.6,33.892-42.761,53.259-76.653,44.658s-54.683-41.914-46.081-75.806,38.2-44.965,74.4-35.779c35.791,9.083,56.936,33.035,48.335,66.927" transform="translate(1027.965 3951.735)" fill="#33413d" stroke="#707070" stroke-width="2"/>
      <path id="Tracé_332" data-name="Tracé 332" d="M218.53,685.674c-8.6,33.892-42.761,53.259-76.653,44.658s-54.683-41.914-46.081-75.806,38.2-44.965,74.4-35.779C205.986,627.831,227.131,651.782,218.53,685.674Z" transform="translate(1027.965 3951.735)" fill="none" stroke="#29fdc1" stroke-miterlimit="10" stroke-width="2"/>
      <path id="Tracé_333" data-name="Tracé 333" d="M277.039,658.615c-7.736,6.986-.041,29.778-3.95,45.18s-24.111,24.608-22.273,41,47.469,2.187,55.962-31.275-13.481-69.591-29.739-54.909" transform="translate(926.452 3926.107)" fill="#191a1a" stroke="#707070" stroke-width="2"/>
      <path id="Tracé_334" data-name="Tracé 334" d="M277.039,658.615c-7.736,6.986-.041,29.778-3.95,45.18s-24.111,24.608-22.273,41,47.469,2.187,55.962-31.275S293.3,643.933,277.039,658.615Z" transform="translate(926.452 3926.107)" fill="none" stroke="#29fdc1" stroke-miterlimit="10" stroke-width="2"/>
      <path id="Tracé_335" data-name="Tracé 335" d="M315.944,703.819s13.636-11.581,16.759-3.861c3.053,7.547-16.759,3.861-16.759,3.861" transform="translate(884.225 3898.89)" fill="#33413d" stroke="#707070" stroke-width="2"/>
      <path id="Tracé_336" data-name="Tracé 336" d="M315.944,703.819s13.636-11.581,16.759-3.861C335.756,707.505,315.944,703.819,315.944,703.819Z" transform="translate(884.225 3898.89)" fill="none" stroke="#29fdc1" stroke-miterlimit="10" stroke-width="2"/>
      <path id="Tracé_337" data-name="Tracé 337" d="M316.779,748.9s20.882-8,20.509.61c-.463,10.705-20.509-.61-20.509-.61" transform="translate(883.685 3867.688)" fill="#33413d" stroke="#707070" stroke-width="2"/>
      <path id="Tracé_338" data-name="Tracé 338" d="M316.779,748.9s20.882-8,20.509.61C336.825,760.212,316.779,748.9,316.779,748.9Z" transform="translate(883.685 3867.688)" fill="none" stroke="#29fdc1" stroke-miterlimit="10" stroke-width="2"/>
      <path id="Tracé_339" data-name="Tracé 339" d="M311.261,799.636s22.116-3.313,19.895,5.019c-2.761,10.354-19.895-5.019-19.895-5.019" transform="translate(887.256 3833.079)" fill="#33413d" stroke="#707070" stroke-width="2"/>
      <path id="Tracé_340" data-name="Tracé 340" d="M311.261,799.636s22.116-3.313,19.895,5.019C328.4,815.009,311.261,799.636,311.261,799.636Z" transform="translate(887.256 3833.079)" fill="none" stroke="#29fdc1" stroke-miterlimit="10" stroke-width="2"/>
      <path id="Tracé_341" data-name="Tracé 341" d="M293.313,831.226s18.7,5.12,14.016,10.948c-5.816,7.242-14.016-10.948-14.016-10.948" transform="translate(898.872 3812.214)" fill="#33413d" stroke="#707070" stroke-width="2"/>
      <path id="Tracé_342" data-name="Tracé 342" d="M293.313,831.226s18.7,5.12,14.016,10.948C301.513,849.416,293.313,831.226,293.313,831.226Z" transform="translate(898.872 3812.214)" fill="none" stroke="#29fdc1" stroke-miterlimit="10" stroke-width="2"/>
      <path id="Tracé_343" data-name="Tracé 343" d="M270.655,857.611s15.66,7.727,10.523,12.081c-6.382,5.41-10.523-12.081-10.523-12.081" transform="translate(913.536 3795.137)" fill="#33413d" stroke="#707070" stroke-width="2"/>
      <path id="Tracé_344" data-name="Tracé 344" d="M270.655,857.611s15.66,7.727,10.523,12.081C274.8,875.1,270.655,857.611,270.655,857.611Z" transform="translate(913.536 3795.137)" fill="none" stroke="#29fdc1" stroke-miterlimit="10" stroke-width="2"/>
      <path id="Tracé_345" data-name="Tracé 345" d="M166.3,634.473c3.469,9.83-14.164,26.194-18.072,41.6s9.459,33.127.024,46.662-42.768-20.713-34.276-54.175,45.034-54.741,52.324-34.083" transform="translate(1015.826 3944.827)" fill="#191a1a" stroke="#707070" stroke-width="2"/>
      <path id="Tracé_346" data-name="Tracé 346" d="M166.3,634.473c3.469,9.83-14.164,26.194-18.072,41.6s9.459,33.127.024,46.662-42.768-20.713-34.276-54.175S159.015,613.815,166.3,634.473Z" transform="translate(1015.826 3944.827)" fill="none" stroke="#29fdc1" stroke-miterlimit="10" stroke-width="2"/>
      <path id="Tracé_347" data-name="Tracé 347" d="M222.811,675.931s-6.464-16.682-12.89-11.385c-6.282,5.178,12.89,11.385,12.89,11.385" transform="translate(953.662 3920.763)" fill="#33413d" stroke="#707070" stroke-width="2"/>
      <path id="Tracé_348" data-name="Tracé 348" d="M222.811,675.931s-6.464-16.682-12.89-11.385C203.639,669.724,222.811,675.931,222.811,675.931Z" transform="translate(953.662 3920.763)" fill="none" stroke="#29fdc1" stroke-miterlimit="10" stroke-width="2"/>
      <path id="Tracé_349" data-name="Tracé 349" d="M194.522,712.227s-14.537-16.994-18.318-9.244c-4.7,9.631,18.318,9.244,18.318,9.244" transform="translate(975.075 3896.524)" fill="#33413d" stroke="#707070" stroke-width="2"/>
      <path id="Tracé_350" data-name="Tracé 350" d="M194.522,712.227s-14.537-16.994-18.318-9.244C171.506,712.614,194.522,712.227,194.522,712.227Z" transform="translate(975.075 3896.524)" fill="none" stroke="#29fdc1" stroke-miterlimit="10" stroke-width="2"/>
      <path id="Tracé_351" data-name="Tracé 351" d="M175.5,761.367s-17.86-13.458-19.88-5.076c-2.511,10.417,19.88,5.076,19.88,5.076" transform="translate(988.114 3862.491)" fill="#33413d" stroke="#707070" stroke-width="2"/>
      <path id="Tracé_352" data-name="Tracé 352" d="M175.5,761.367s-17.86-13.458-19.88-5.076C153.111,766.709,175.5,761.367,175.5,761.367Z" transform="translate(988.114 3862.491)" fill="none" stroke="#29fdc1" stroke-miterlimit="10" stroke-width="2"/>
      <path id="Tracé_353" data-name="Tracé 353" d="M181.312,808.589s-18.875-4.414-17.54,2.939c1.658,9.139,17.54-2.939,17.54-2.939" transform="translate(982.756 3827.715)" fill="#33413d" stroke="#707070" stroke-width="2"/>
      <path id="Tracé_354" data-name="Tracé 354" d="M181.312,808.589s-18.875-4.414-17.54,2.939C165.43,820.668,181.312,808.589,181.312,808.589Z" transform="translate(982.756 3827.715)" fill="none" stroke="#29fdc1" stroke-miterlimit="10" stroke-width="2"/>
      <path id="Tracé_355" data-name="Tracé 355" d="M192.983,844.957s-17.449-.676-15.01,5.6c3.03,7.8,15.01-5.6,15.01-5.6" transform="translate(973.673 3803.341)" fill="#33413d" stroke="#707070" stroke-width="2"/>
      <path id="Tracé_356" data-name="Tracé 356" d="M192.983,844.957s-17.449-.676-15.01,5.6C181,858.357,192.983,844.957,192.983,844.957Z" transform="translate(973.673 3803.341)" fill="none" stroke="#29fdc1" stroke-miterlimit="10" stroke-width="2"/>
    </g>
  </g>
</svg>
